<svg width="50" height="50" viewBox="0 0 50 50" fill="none" xmlns="http://www.w3.org/2000/svg">
<rect x="50" y="50" width="50" height="50" rx="25" transform="rotate(180 50 50)" fill="#2FD3AE"/>
<path d="M25 33L25.7071 33.7071L25 34.4142L24.2929 33.7071L25 33ZM24 18C24 17.4477 24.4477 17 25 17C25.5523 17 26 17.4477 26 18L24 18ZM31.7071 27.7071L25.7071 33.7071L24.2929 32.2929L30.2929 26.2929L31.7071 27.7071ZM24.2929 33.7071L18.2929 27.7071L19.7071 26.2929L25.7071 32.2929L24.2929 33.7071ZM24 33L24 18L26 18L26 33L24 33Z" fill="white"/>
</svg>
