<svg width="18" height="18" viewBox="0 0 18 18" fill="none" xmlns="http://www.w3.org/2000/svg">
<path d="M18 10.5625C18 10.1118 17.8207 9.69174 17.5117 9.38198C17.862 8.99874 18.0405 8.48496 17.9917 7.95024C17.904 6.99698 17.0452 6.24998 16.0357 6.24998H11.403C11.6325 5.55321 12 4.27599 12 3.24999C12 1.62324 10.6178 0.25 9.74999 0.25C8.97149 0.25 8.41423 0.68875 8.39099 0.70675C8.30173 0.778012 8.24998 0.886012 8.24998 0.999988V3.54323L6.08924 8.22249L5.99998 8.26823V8.12496C5.99998 7.91796 5.83196 7.74995 5.62496 7.74995H1.87499C0.840762 7.74999 0 8.59075 0 9.62498V15.625C0 16.6593 0.840762 17.5 1.87499 17.5H4.12499C4.93573 17.5 5.62873 16.9825 5.88973 16.2602C6.51375 16.5812 7.35374 16.75 7.875 16.75H14.7593C15.576 16.75 16.2908 16.1995 16.4587 15.4405C16.545 15.049 16.4948 14.6552 16.3237 14.3132C16.8773 14.035 17.25 13.4627 17.25 12.8125C17.25 12.547 17.1893 12.2927 17.0745 12.0632C17.628 11.7842 18 11.2127 18 10.5625ZM16.4182 11.488C16.2735 11.5052 16.1512 11.6035 16.1048 11.7422C16.059 11.881 16.0973 12.0332 16.2038 12.1337C16.3943 12.313 16.5 12.5545 16.5 12.8125C16.5 13.2857 16.1423 13.6832 15.669 13.738C15.5243 13.7552 15.402 13.8535 15.3555 13.9922C15.3098 14.131 15.3481 14.2832 15.4545 14.3837C15.7013 14.6162 15.8003 14.9425 15.7261 15.2785C15.6338 15.697 15.2273 16 14.7593 16H7.875C7.26599 16 6.24449 15.7143 5.8905 15.3595C5.78324 15.253 5.62124 15.2215 5.48174 15.2785C5.3415 15.3363 5.24999 15.4735 5.24999 15.625C5.24999 16.2453 4.74525 16.75 4.12499 16.75H1.87499C1.25473 16.75 0.749988 16.2453 0.749988 15.625V9.62498C0.749988 9.00471 1.25473 8.49998 1.87499 8.49998H5.24999V8.87499C5.24999 9.00475 5.31749 9.12548 5.42848 9.19449C5.53799 9.26048 5.67598 9.26723 5.79298 9.21024L6.54296 8.83523C6.61873 8.79771 6.67948 8.73471 6.71548 8.65748L8.96548 3.78246C8.98798 3.73296 8.99996 3.67896 8.99996 3.62496V1.20323C9.15599 1.11699 9.42676 0.999988 9.74999 0.999988C10.161 0.999988 11.25 2.02149 11.25 3.24999C11.25 4.57 10.5315 6.47273 10.5248 6.4915C10.4813 6.60625 10.4963 6.73601 10.566 6.838C10.6365 6.93925 10.752 7 10.875 7H16.0357C16.6612 7 17.1922 7.44775 17.2447 8.01925C17.2845 8.44675 17.079 8.85326 16.7108 9.08051C16.596 9.151 16.5278 9.27851 16.533 9.41425C16.5382 9.54999 16.6163 9.67149 16.7362 9.73375C17.0535 9.89501 17.25 10.213 17.25 10.5625C17.25 11.0357 16.8923 11.4332 16.4182 11.488Z" fill="#2FD3AE"/>
<path d="M5.62501 8.5C5.41801 8.5 5.25 8.66801 5.25 8.87501V15.625C5.25 15.832 5.41801 16 5.62501 16C5.83201 16 6.00002 15.832 6.00002 15.625V8.87501C6.00002 8.66801 5.83201 8.5 5.62501 8.5Z" fill="#2FD3AE"/>
</svg>
