<svg width="77" height="24" viewBox="0 0 77 24" fill="none" xmlns="http://www.w3.org/2000/svg">
<rect width="77" height="24" rx="12" fill="#2FD3AE"/>
<path d="M17.0957 8.66406H14.4355V16H12.9648V8.66406H10.3281V7.46875H17.0957V8.66406ZM16.5977 12.7715C16.5977 12.1504 16.7207 11.5918 16.9668 11.0957C17.2129 10.5957 17.5586 10.2129 18.0039 9.94727C18.4492 9.67773 18.9609 9.54297 19.5391 9.54297C20.3945 9.54297 21.0879 9.81836 21.6191 10.3691C22.1543 10.9199 22.4434 11.6504 22.4863 12.5605L22.4922 12.8945C22.4922 13.5195 22.3711 14.0781 22.1289 14.5703C21.8906 15.0625 21.5469 15.4434 21.0977 15.7129C20.6523 15.9824 20.1367 16.1172 19.5508 16.1172C18.6562 16.1172 17.9395 15.8203 17.4004 15.2266C16.8652 14.6289 16.5977 13.834 16.5977 12.8418V12.7715ZM18.0215 12.8945C18.0215 13.5469 18.1562 14.0586 18.4258 14.4297C18.6953 14.7969 19.0703 14.9805 19.5508 14.9805C20.0312 14.9805 20.4043 14.793 20.6699 14.418C20.9395 14.043 21.0742 13.4941 21.0742 12.7715C21.0742 12.1309 20.9355 11.623 20.6582 11.248C20.3848 10.873 20.0117 10.6855 19.5391 10.6855C19.0742 10.6855 18.7051 10.8711 18.4316 11.2422C18.1582 11.6094 18.0215 12.1602 18.0215 12.8945ZM23.8047 16V9.66016H26.377C27.2441 9.66016 27.9043 9.8125 28.3574 10.1172C28.8105 10.418 29.0371 10.8516 29.0371 11.418C29.0371 11.7109 28.9453 11.9746 28.7617 12.209C28.582 12.4395 28.3145 12.6172 27.959 12.7422C28.373 12.8281 28.7012 13.002 28.9434 13.2637C29.1855 13.5254 29.3066 13.834 29.3066 14.1895C29.3066 14.7793 29.0879 15.2285 28.6504 15.5371C28.2168 15.8457 27.5918 16 26.7754 16H23.8047ZM25.2285 13.2988V14.875H26.7871C27.5176 14.875 27.8828 14.6133 27.8828 14.0898C27.8828 13.5625 27.5117 13.2988 26.7695 13.2988H25.2285ZM25.2285 12.2793H26.4004C27.209 12.2793 27.6133 12.041 27.6133 11.5645C27.6133 11.0645 27.2305 10.8066 26.4648 10.791H25.2285V12.2793ZM34.3281 16C34.2656 15.8789 34.2109 15.6816 34.1641 15.4082C33.7109 15.8809 33.1562 16.1172 32.5 16.1172C31.8633 16.1172 31.3438 15.9355 30.9414 15.5723C30.5391 15.209 30.3379 14.7598 30.3379 14.2246C30.3379 13.5488 30.5879 13.0312 31.0879 12.6719C31.5918 12.3086 32.3105 12.127 33.2441 12.127H34.1172V11.7109C34.1172 11.3828 34.0254 11.1211 33.8418 10.9258C33.6582 10.7266 33.3789 10.627 33.0039 10.627C32.6797 10.627 32.4141 10.709 32.207 10.873C32 11.0332 31.8965 11.2383 31.8965 11.4883H30.4727C30.4727 11.1406 30.5879 10.8164 30.8184 10.5156C31.0488 10.2109 31.3613 9.97266 31.7559 9.80078C32.1543 9.62891 32.5977 9.54297 33.0859 9.54297C33.8281 9.54297 34.4199 9.73047 34.8613 10.1055C35.3027 10.4766 35.5293 11 35.541 11.6758V14.5352C35.541 15.1055 35.6211 15.5605 35.7812 15.9004V16H34.3281ZM32.7637 14.9746C33.0449 14.9746 33.3086 14.9062 33.5547 14.7695C33.8047 14.6328 33.9922 14.4492 34.1172 14.2188V13.0234H33.3496C32.8223 13.0234 32.4258 13.1152 32.1602 13.2988C31.8945 13.4824 31.7617 13.7422 31.7617 14.0781C31.7617 14.3516 31.8516 14.5703 32.0312 14.7344C32.2148 14.8945 32.459 14.9746 32.7637 14.9746ZM42.584 12.8945C42.584 13.875 42.3613 14.6582 41.916 15.2441C41.4707 15.8262 40.873 16.1172 40.123 16.1172C39.4277 16.1172 38.8711 15.8887 38.4531 15.4316V18.4375H37.0293V9.66016H38.3418L38.4004 10.3047C38.8184 9.79688 39.3867 9.54297 40.1055 9.54297C40.8789 9.54297 41.4844 9.83203 41.9219 10.4102C42.3633 10.9844 42.584 11.7832 42.584 12.8066V12.8945ZM41.166 12.7715C41.166 12.1387 41.0391 11.6367 40.7852 11.2656C40.5352 10.8945 40.1758 10.709 39.707 10.709C39.125 10.709 38.707 10.9492 38.4531 11.4297V14.2422C38.7109 14.7344 39.1328 14.9805 39.7188 14.9805C40.1719 14.9805 40.5254 14.7988 40.7793 14.4355C41.0371 14.0684 41.166 13.5137 41.166 12.7715ZM46.8086 14.8633C47.2031 14.4219 47.4668 14.0039 47.5996 13.6094C47.7363 13.2109 47.8184 12.7031 47.8457 12.0859L47.9277 9.66016H52.3281V14.8633H53.207V17.8867H51.7891V16H47.7227V17.8867H46.2812L46.2871 14.8633H46.8086ZM48.4785 14.8633H50.9102V10.8848H49.3105L49.2695 12.0977C49.2148 13.2617 48.9512 14.1836 48.4785 14.8633ZM59.4883 16H58.0645V13.4395H55.5977V16H54.1738V9.66016H55.5977V12.3027H58.0645V9.66016H59.4883V16ZM66.0859 9.66016V16H64.668V13.6738H63.3379L61.9844 16H60.5078L62.002 13.4395C61.6113 13.2754 61.3105 13.041 61.0996 12.7363C60.8926 12.4316 60.7891 12.082 60.7891 11.6875C60.7891 11.0977 61.0156 10.6152 61.4688 10.2402C61.9258 9.86133 62.541 9.66797 63.3145 9.66016H66.0859ZM62.2129 11.7227C62.2129 11.9883 62.3105 12.2051 62.5059 12.373C62.7051 12.5371 62.959 12.6191 63.2676 12.6191H64.668V10.791H63.3555C63.0078 10.791 62.7305 10.8789 62.5234 11.0547C62.3164 11.2305 62.2129 11.4531 62.2129 11.7227Z" fill="white"/>
</svg>
