<svg width="43" height="40" viewBox="0 0 43 40" fill="none" xmlns="http://www.w3.org/2000/svg">
<path d="M7.11585 24.5369V37.749C7.11585 38.9902 6.10461 40 4.86153 40H3.25045C2.86233 40 2.54765 39.6858 2.54765 39.2982C2.54765 38.9107 2.86233 38.5965 3.25045 38.5965H4.86153C5.32951 38.5965 5.71025 38.2163 5.71025 37.749V23.479C5.71025 23.0117 5.3296 22.6315 4.86153 22.6315H2.25432C1.78634 22.6315 1.4056 23.0117 1.4056 23.479V36.7544C1.4056 37.1419 1.09092 37.4561 0.7028 37.4561C0.314679 37.4561 0 37.1419 0 36.7544V23.479C0 22.2379 1.01124 21.228 2.25432 21.228H4.86162C5.92355 21.228 6.81567 21.9652 7.0533 22.9538L12.4772 19.8397C13.494 19.2559 14.6514 18.9473 15.8244 18.9473H22.1962C24.2853 18.9473 26.2672 20.5546 26.2672 23.192C26.2672 24.9706 25.1267 26.5274 23.429 27.066L15.4017 29.613C15.0332 29.7302 14.6369 29.527 14.5191 29.1567C14.4015 28.7873 14.6061 28.3928 14.9761 28.2754L23.0033 25.7285C24.1148 25.3758 24.8615 24.3565 24.8615 23.192V23.0123C24.8615 21.5448 23.6658 20.3508 22.1961 20.3508H15.8243C14.8969 20.3508 13.9818 20.5948 13.1778 21.0564L7.11585 24.5369ZM36.3749 22.4599L29.5622 27.788C29.1849 28.083 28.7132 28.2456 28.2339 28.2456H24.3344C23.9463 28.2456 23.6316 28.5598 23.6316 28.9473C23.6316 29.3349 23.9463 29.6491 24.3344 29.6491H28.2339C29.0259 29.6491 29.8055 29.3805 30.429 28.893L37.2416 23.5648C38.7882 22.355 41.0389 23.6392 40.7811 25.5837C40.7023 26.1777 40.3937 26.7017 39.912 27.0591L28.1795 35.7667C27.3212 36.4037 26.2596 36.7545 25.1902 36.7545H9.75135C9.36323 36.7545 9.04855 37.0687 9.04855 37.4562C9.04855 37.8438 9.36323 38.158 9.75135 38.158H25.1902C26.5596 38.158 27.919 37.7088 29.018 36.8932L40.7505 28.1856C41.5397 27.5999 42.0454 26.7413 42.1745 25.7679C42.5964 22.5864 38.914 20.4739 36.3749 22.4599ZM6.41305 19.4736C6.80117 19.4736 7.11585 19.1594 7.11585 18.7719V2.95966C7.11585 2.10158 7.81496 1.40351 8.67431 1.40351H16.6036V8.12537C16.6036 9.56862 18.1419 10.4884 19.4156 9.81318L21.812 8.54195C21.9612 8.46256 22.1394 8.46274 22.2888 8.54204L24.6851 9.81318C25.9614 10.4899 27.497 9.56528 27.497 8.12528V3.59641C27.497 3.20887 27.1824 2.89466 26.7942 2.89466C26.4061 2.89466 26.0914 3.20887 26.0914 3.59641V8.12528C26.0914 8.50905 25.6825 8.75283 25.3446 8.57362L22.9484 7.30247C22.3861 7.00414 21.7148 7.00405 21.1524 7.30238L18.7561 8.57353C18.4174 8.75335 18.0093 8.50809 18.0093 8.12528V1.40342H35.3386C36.198 1.40342 36.8971 2.1015 36.8971 2.95957V18.7719C36.8971 19.1594 37.2118 19.4736 37.5999 19.4736C37.988 19.4736 38.3027 19.1594 38.3027 18.7719V2.95966C38.3027 1.32772 36.973 4.34632e-09 35.3386 4.34632e-09H8.67431C7.03995 -8.77151e-05 5.71025 1.32763 5.71025 2.95966V18.772C5.71025 19.1594 6.02493 19.4736 6.41305 19.4736Z" fill="#2D9CDB"/>
</svg>
