<svg width="20" height="20" viewBox="0 0 20 20" fill="none" xmlns="http://www.w3.org/2000/svg">
<g clip-path="url(#clip0_121_2165)">
<path d="M18.8632 2.51631L17.2053 0.858375C16.6518 0.304843 15.9158 0 15.1329 0C14.35 0 13.6141 0.304843 13.0606 0.858414C12.9265 0.992528 12.807 1.13833 12.7022 1.2937C12.5991 1.28592 12.4949 1.2819 12.3899 1.2819H7.70059C7.56644 1.2819 7.43385 1.28858 7.30298 1.30124C7.19696 1.14305 7.0759 0.994717 6.93956 0.858414C5.79689 -0.284289 3.93755 -0.284367 2.79481 0.858414L1.13691 2.51631C0.804748 2.84847 0.621826 3.29005 0.621826 3.75976C0.621826 4.22947 0.804748 4.67105 1.13691 5.0032L1.96586 5.83215C2.41122 6.27752 2.98472 6.56349 3.59746 6.65688V9.51149C2.87273 10.2519 2.42513 11.2645 2.42513 12.3799V14.7246C2.42513 16.3406 3.73989 17.6554 5.35594 17.6554H7.1734C7.44569 18.9915 8.62985 20 10.0452 20C11.4606 20 12.6447 18.9915 12.9171 17.6554H14.7345C16.3506 17.6554 17.6653 16.3406 17.6653 14.7246V12.3799C17.6653 11.2645 17.2177 10.2519 16.493 9.51149V6.64258C17.0731 6.53742 17.6065 6.25997 18.0343 5.83215L18.8632 5.0032C19.1954 4.67108 19.3783 4.22947 19.3783 3.75976C19.3783 3.29005 19.1954 2.84847 18.8632 2.51631ZM12.3899 2.45422C14.0059 2.45422 15.3207 3.76898 15.3207 5.38503V8.6732C14.7874 8.4192 14.1912 8.27676 13.5622 8.27676H6.52827C5.89931 8.27676 5.30307 8.4192 4.76978 8.6732V5.38503C4.76978 3.76898 6.08454 2.45422 7.70059 2.45422H12.3899ZM2.79481 5.0032L1.96586 4.17425C1.73729 3.94569 1.73729 3.57383 1.96586 3.34526L3.62376 1.68736C4.2894 1.02172 5.3602 1.00245 6.04945 1.62918C4.60691 2.26583 3.59746 3.70966 3.59746 5.38503V5.46189C3.29679 5.38401 3.01876 5.22716 2.79481 5.0032ZM10.0452 18.8277C9.2531 18.8277 8.58186 18.3011 8.36256 17.5797C9.04517 17.4214 9.63727 17.0243 10.0452 16.4812C10.4532 17.0243 11.0453 17.4214 11.7279 17.5797C11.5086 18.3011 10.8374 18.8277 10.0452 18.8277ZM10.0452 12.9661C9.72203 12.9661 9.45907 12.7031 9.45907 12.3799V11.7937H10.6314V12.3799C10.6314 12.7031 10.3684 12.9661 10.0452 12.9661ZM16.493 14.7245C16.493 15.6942 15.7042 16.483 14.7345 16.483H12.3899C11.4203 16.483 10.6314 15.6942 10.6314 14.7245V14.0376C11.3137 13.7956 11.8037 13.1441 11.8037 12.3799V11.2076C11.8037 10.8839 11.5413 10.6214 11.2176 10.6214H8.87291C8.5492 10.6214 8.28675 10.8839 8.28675 11.2076V12.3799C8.28675 13.1441 8.77682 13.7956 9.45907 14.0376V14.7245C9.45907 15.6942 8.67022 16.483 7.70059 16.483H5.35594C4.38631 16.483 3.59746 15.6942 3.59746 14.7245V12.3799C3.59746 10.7638 4.91222 9.44909 6.52827 9.44909H13.5622C15.1783 9.44909 16.493 10.7638 16.493 12.3799V14.7245ZM18.0343 4.17425L17.2054 5.0032C17.0018 5.2068 16.7586 5.35361 16.493 5.43728V5.38503C16.493 3.68637 15.4554 2.22554 13.9808 1.60292C14.3005 1.32465 14.7049 1.17232 15.1329 1.17232C15.6027 1.17232 16.0442 1.35525 16.3764 1.68736L18.0343 3.34526C18.2628 3.57383 18.2628 3.94569 18.0343 4.17425Z" fill="#C56C1E"/>
<path d="M7.70066 7.10441C8.02438 7.10441 8.28682 6.84196 8.28682 6.51825V5.34593C8.28682 5.02221 8.02438 4.75977 7.70066 4.75977C7.37695 4.75977 7.1145 5.02221 7.1145 5.34593V6.51825C7.1145 6.84196 7.37695 7.10441 7.70066 7.10441Z" fill="#C56C1E"/>
<path d="M12.3899 7.10441C12.7136 7.10441 12.976 6.84196 12.976 6.51825V5.34593C12.976 5.02221 12.7136 4.75977 12.3899 4.75977C12.0662 4.75977 11.8037 5.02221 11.8037 5.34593V6.51825C11.8037 6.84196 12.0662 7.10441 12.3899 7.10441Z" fill="#C56C1E"/>
<path d="M5.35594 15.3105C5.67966 15.3105 5.9421 15.0481 5.9421 14.7244C5.9421 14.4006 5.67966 14.1382 5.35594 14.1382C5.03221 14.1382 4.76978 14.4006 4.76978 14.7244C4.76978 15.0481 5.03221 15.3105 5.35594 15.3105Z" fill="#C56C1E"/>
<path d="M7.70066 15.3105C8.02439 15.3105 8.28682 15.0481 8.28682 14.7244C8.28682 14.4006 8.02439 14.1382 7.70066 14.1382C7.37693 14.1382 7.1145 14.4006 7.1145 14.7244C7.1145 15.0481 7.37693 15.3105 7.70066 15.3105Z" fill="#C56C1E"/>
<path d="M6.5283 12.9663C6.85203 12.9663 7.11446 12.7038 7.11446 12.3801C7.11446 12.0564 6.85203 11.7939 6.5283 11.7939C6.20457 11.7939 5.94214 12.0564 5.94214 12.3801C5.94214 12.7038 6.20457 12.9663 6.5283 12.9663Z" fill="#C56C1E"/>
<path d="M13.5622 12.9663C13.886 12.9663 14.1484 12.7038 14.1484 12.3801C14.1484 12.0564 13.886 11.7939 13.5622 11.7939C13.2385 11.7939 12.9761 12.0564 12.9761 12.3801C12.9761 12.7038 13.2385 12.9663 13.5622 12.9663Z" fill="#C56C1E"/>
<path d="M12.3899 15.3105C12.7136 15.3105 12.976 15.0481 12.976 14.7244C12.976 14.4006 12.7136 14.1382 12.3899 14.1382C12.0661 14.1382 11.8037 14.4006 11.8037 14.7244C11.8037 15.0481 12.0661 15.3105 12.3899 15.3105Z" fill="#C56C1E"/>
<path d="M14.7346 15.3105C15.0583 15.3105 15.3208 15.0481 15.3208 14.7244C15.3208 14.4006 15.0583 14.1382 14.7346 14.1382C14.4109 14.1382 14.1484 14.4006 14.1484 14.7244C14.1484 15.0481 14.4109 15.3105 14.7346 15.3105Z" fill="#C56C1E"/>
</g>
<defs>
<clipPath id="clip0_121_2165">
<rect width="20" height="20" fill="white"/>
</clipPath>
</defs>
</svg>
