<svg width="229" height="50" viewBox="0 0 229 50" fill="none" xmlns="http://www.w3.org/2000/svg">
<path d="M26.2232 14.3349C19.6575 14.3349 14.3349 19.6575 14.3349 26.2232L14.3349 39.3062C14.3349 45.2122 19.1226 50 25.0287 50C30.9347 50 35.7225 45.2122 35.7225 39.3062L35.7225 37.0204C35.7225 36.3036 36.3036 35.7225 37.0204 35.7225L39.3062 35.7225C45.2122 35.7225 50 30.9347 50 25.0287C50 19.1226 45.2122 14.3349 39.3062 14.3349L26.2232 14.3349Z" fill="white"/>
<path fill-rule="evenodd" clip-rule="evenodd" d="M24.9713 0C30.8774 0 35.6651 4.78778 35.6651 10.6938V29.7209C35.6651 33.0038 33.0038 35.6651 29.7209 35.6651H10.6938C4.78778 35.6651 0 30.8774 0 24.9713C0 19.0653 4.78778 14.2775 10.6938 14.2775H12.9796C13.6964 14.2775 14.2775 13.6964 14.2775 12.9796V10.6938C14.2775 4.78778 19.0653 0 24.9713 0ZM29.8738 12.4427C27.0454 9.20172 25.1518 8.03865 21.1009 7.39679C21.1009 7.39679 24.2546 4.3578 27.6949 6.59404C31.1353 8.83027 29.8738 12.4427 29.8738 12.4427Z" fill="#2FD3AE"/>
<path d="M75.434 5.38H79.328L84.696 21H81L79.79 17.502H74.928L73.74 21H70.044L75.434 5.38ZM79.196 15.016L77.37 9.01L75.5 15.016H79.196ZM85.9703 21V9.45H96.7723V21H93.2523V12.53H89.4903V21H85.9703ZM101.8 21V12.53H98.3021V9.45H108.818V12.53H105.32V21H101.8ZM115.834 21.22C114.528 21.22 113.414 20.9487 112.49 20.406C111.566 19.8633 110.854 19.1447 110.356 18.25C109.872 17.3553 109.63 16.3873 109.63 15.346C109.63 14.2313 109.872 13.212 110.356 12.288C110.84 11.364 111.544 10.6233 112.468 10.066C113.392 9.50867 114.514 9.23 115.834 9.23C117.139 9.23 118.254 9.50867 119.178 10.066C120.102 10.6233 120.798 11.3567 121.268 12.266C121.752 13.1753 121.994 14.1507 121.994 15.192C121.994 15.6173 121.964 15.9913 121.906 16.314H113.37C113.428 17.0913 113.707 17.6853 114.206 18.096C114.719 18.492 115.298 18.69 115.944 18.69C116.457 18.69 116.948 18.5653 117.418 18.316C117.887 18.0667 118.21 17.7293 118.386 17.304L121.378 18.14C120.923 19.0493 120.212 19.79 119.244 20.362C118.29 20.934 117.154 21.22 115.834 21.22ZM113.282 14.158H118.298C118.224 13.4247 117.953 12.8453 117.484 12.42C117.029 11.98 116.464 11.76 115.79 11.76C115.115 11.76 114.543 11.98 114.074 12.42C113.619 12.86 113.355 13.4393 113.282 14.158ZM123.611 21V9.45H127.109V13.586H127.945L130.805 9.45H134.589L130.629 14.994L135.007 21H130.981L127.879 16.644H127.109V21H123.611ZM135.861 17.546C135.861 16.7833 136.074 16.116 136.499 15.544C136.924 14.972 137.511 14.5247 138.259 14.202C139.007 13.8647 139.865 13.696 140.833 13.696C141.302 13.696 141.764 13.74 142.219 13.828C142.674 13.9013 143.07 14.0113 143.407 14.158V13.652C143.407 12.3467 142.637 11.694 141.097 11.694C140.452 11.694 139.843 11.804 139.271 12.024C138.714 12.244 138.12 12.5593 137.489 12.97L136.433 10.726C137.958 9.72867 139.63 9.23 141.449 9.23C143.18 9.23 144.522 9.648 145.475 10.484C146.443 11.3053 146.927 12.5007 146.927 14.07V17.084C146.927 17.436 146.978 17.6853 147.081 17.832C147.198 17.9787 147.396 18.0593 147.675 18.074V21C147.367 21.0587 147.088 21.1027 146.839 21.132C146.59 21.1613 146.37 21.176 146.179 21.176C145.519 21.176 145.013 21.044 144.661 20.78C144.324 20.516 144.111 20.1567 144.023 19.702L143.957 19.196C143.444 19.856 142.828 20.362 142.109 20.714C141.39 21.0513 140.65 21.22 139.887 21.22C139.124 21.22 138.435 21.0587 137.819 20.736C137.218 20.4133 136.741 19.9807 136.389 19.438C136.037 18.8807 135.861 18.25 135.861 17.546ZM142.857 17.986C143.224 17.6927 143.407 17.392 143.407 17.084V16.05C143.099 15.9327 142.762 15.8447 142.395 15.786C142.043 15.7127 141.72 15.676 141.427 15.676C140.767 15.676 140.224 15.8227 139.799 16.116C139.388 16.4093 139.183 16.7833 139.183 17.238C139.183 17.634 139.337 17.9787 139.645 18.272C139.968 18.5507 140.393 18.69 140.921 18.69C141.273 18.69 141.625 18.624 141.977 18.492C142.329 18.36 142.622 18.1913 142.857 17.986ZM149.698 21V18.844H150.996V21H149.698ZM158.54 21.22C157.44 21.22 156.457 20.9487 155.592 20.406C154.741 19.8633 154.074 19.1447 153.59 18.25C153.106 17.3407 152.864 16.358 152.864 15.302C152.864 14.2313 153.106 13.2487 153.59 12.354C154.089 11.4447 154.763 10.7187 155.614 10.176C156.479 9.61867 157.455 9.34 158.54 9.34C159.64 9.34 160.615 9.61867 161.466 10.176C162.331 10.7187 163.006 11.4447 163.49 12.354C163.989 13.2487 164.238 14.2313 164.238 15.302C164.238 16.358 163.996 17.3407 163.512 18.25C163.028 19.1447 162.353 19.8633 161.488 20.406C160.637 20.9487 159.655 21.22 158.54 21.22ZM154.382 15.324C154.382 16.1747 154.565 16.952 154.932 17.656C155.313 18.3453 155.819 18.8953 156.45 19.306C157.081 19.702 157.777 19.9 158.54 19.9C159.303 19.9 159.999 19.6947 160.63 19.284C161.261 18.8733 161.767 18.316 162.148 17.612C162.529 16.908 162.72 16.1307 162.72 15.28C162.72 14.4293 162.529 13.652 162.148 12.948C161.767 12.244 161.261 11.6867 160.63 11.276C159.999 10.8653 159.303 10.66 158.54 10.66C157.792 10.66 157.103 10.8727 156.472 11.298C155.841 11.7087 155.335 12.266 154.954 12.97C154.573 13.674 154.382 14.4587 154.382 15.324ZM166.718 21V9.538H168.214V14.466H174.77V9.538H176.266V21H174.77V15.808H168.214V21H166.718ZM178.466 21.066V19.702C178.847 19.702 179.192 19.5993 179.5 19.394C179.823 19.1887 180.101 18.8293 180.336 18.316C180.585 17.8027 180.783 17.0913 180.93 16.182C181.077 15.2727 181.172 14.1213 181.216 12.728L181.348 9.538H188.784V21H187.288V10.88H182.668L182.624 12.86C182.551 14.9867 182.353 16.644 182.03 17.832C181.707 19.02 181.245 19.856 180.644 20.34C180.057 20.8093 179.331 21.0513 178.466 21.066ZM191.167 17.7C191.167 16.996 191.373 16.3873 191.783 15.874C192.194 15.346 192.759 14.9353 193.477 14.642C194.211 14.3487 195.054 14.202 196.007 14.202C196.565 14.202 197.144 14.2533 197.745 14.356C198.347 14.444 198.882 14.5687 199.351 14.73V13.762C199.351 12.794 199.065 12.024 198.493 11.452C197.921 10.88 197.129 10.594 196.117 10.594C195.516 10.594 194.915 10.7113 194.313 10.946C193.712 11.166 193.089 11.496 192.443 11.936L191.871 10.88C192.619 10.3667 193.353 9.98533 194.071 9.736C194.79 9.472 195.523 9.34 196.271 9.34C197.679 9.34 198.794 9.74333 199.615 10.55C200.437 11.3567 200.847 12.4713 200.847 13.894V19.196C200.847 19.592 201.031 19.7973 201.397 19.812V21C201.075 21.044 200.847 21.0587 200.715 21.044C200.349 21.0293 200.07 20.912 199.879 20.692C199.689 20.472 199.586 20.2373 199.571 19.988L199.549 19.152C199.036 19.812 198.369 20.3253 197.547 20.692C196.726 21.044 195.89 21.22 195.039 21.22C194.291 21.22 193.624 21.066 193.037 20.758C192.451 20.4353 191.989 20.01 191.651 19.482C191.329 18.9393 191.167 18.3453 191.167 17.7ZM198.845 18.58C199.183 18.184 199.351 17.8173 199.351 17.48V15.808C198.339 15.412 197.283 15.214 196.183 15.214C195.113 15.214 194.247 15.4267 193.587 15.852C192.927 16.2773 192.597 16.8567 192.597 17.59C192.597 18.2207 192.839 18.7927 193.323 19.306C193.822 19.8193 194.511 20.076 195.391 20.076C196.11 20.076 196.777 19.9367 197.393 19.658C198.024 19.3793 198.508 19.02 198.845 18.58ZM204.058 21V9.56H205.554V18.976L212.528 9.538H213.87V21H212.374V11.738L205.51 21H204.058ZM208.986 8.086C207.988 8.086 207.218 7.85133 206.676 7.382C206.133 6.91267 205.862 6.31867 205.862 5.6H206.962C206.962 6.04 207.123 6.40667 207.446 6.7C207.783 6.99333 208.296 7.14 208.986 7.14C209.66 7.14 210.152 7.00067 210.46 6.722C210.782 6.44333 210.966 6.06933 211.01 5.6H212.088C212.088 6.31867 211.816 6.91267 211.274 7.382C210.731 7.85133 209.968 8.086 208.986 8.086ZM217.12 21V9.538H218.616V14.466H225.172V9.538H226.668V21H225.172V15.808H218.616V21H217.12Z" fill="white"/>
<path d="M71.1553 41V31.0469H74.4092C75.4893 31.0469 76.3005 31.2702 76.8428 31.7168C77.3896 32.1634 77.6631 32.8242 77.6631 33.6992C77.6631 34.1641 77.5309 34.5765 77.2666 34.9365C77.0023 35.292 76.6423 35.5677 76.1865 35.7637C76.7243 35.9141 77.1481 36.2012 77.458 36.625C77.7725 37.0443 77.9297 37.5456 77.9297 38.1289C77.9297 39.0221 77.6403 39.724 77.0615 40.2344C76.4827 40.7448 75.6647 41 74.6074 41H71.1553ZM72.4678 36.3447V39.9268H74.6348C75.2454 39.9268 75.7262 39.7695 76.0771 39.4551C76.4326 39.1361 76.6104 38.6986 76.6104 38.1426C76.6104 36.944 75.9587 36.3447 74.6553 36.3447H72.4678ZM72.4678 35.292H74.4502C75.0244 35.292 75.4824 35.1484 75.8242 34.8613C76.1706 34.5742 76.3438 34.1846 76.3438 33.6924C76.3438 33.1455 76.1842 32.749 75.8652 32.5029C75.5462 32.2523 75.0609 32.127 74.4092 32.127H72.4678V35.292ZM84.2461 41C84.1732 40.8542 84.1139 40.5944 84.0684 40.2207C83.4805 40.8314 82.7786 41.1367 81.9629 41.1367C81.2337 41.1367 80.6344 40.9316 80.165 40.5215C79.7002 40.1068 79.4678 39.5827 79.4678 38.9492C79.4678 38.179 79.7594 37.582 80.3428 37.1582C80.9307 36.7298 81.7555 36.5156 82.8174 36.5156H84.0479V35.9346C84.0479 35.4925 83.9157 35.1416 83.6514 34.8818C83.387 34.6175 82.9974 34.4854 82.4824 34.4854C82.0312 34.4854 81.653 34.5993 81.3477 34.8271C81.0423 35.055 80.8896 35.3307 80.8896 35.6543H79.6182C79.6182 35.2852 79.748 34.9297 80.0078 34.5879C80.2721 34.2415 80.6276 33.9681 81.0742 33.7676C81.5254 33.5671 82.0199 33.4668 82.5576 33.4668C83.4098 33.4668 84.0775 33.681 84.5605 34.1094C85.0436 34.5332 85.2943 35.1188 85.3125 35.8662V39.2705C85.3125 39.9495 85.3991 40.4896 85.5723 40.8906V41H84.2461ZM82.1475 40.0361C82.5439 40.0361 82.9199 39.9336 83.2754 39.7285C83.6309 39.5234 83.8883 39.2568 84.0479 38.9287V37.4111H83.0566C81.5072 37.4111 80.7324 37.8646 80.7324 38.7715C80.7324 39.168 80.8646 39.4779 81.1289 39.7012C81.3932 39.9245 81.7327 40.0361 82.1475 40.0361ZM88.6758 33.6035V39.9678H91.3828V33.6035H92.6475V39.9678H95.3477V33.6035H96.6191V41H87.4043V33.6035H88.6758ZM103.182 41C103.109 40.8542 103.049 40.5944 103.004 40.2207C102.416 40.8314 101.714 41.1367 100.898 41.1367C100.169 41.1367 99.57 40.9316 99.1006 40.5215C98.6357 40.1068 98.4033 39.5827 98.4033 38.9492C98.4033 38.179 98.695 37.582 99.2783 37.1582C99.8662 36.7298 100.691 36.5156 101.753 36.5156H102.983V35.9346C102.983 35.4925 102.851 35.1416 102.587 34.8818C102.323 34.6175 101.933 34.4854 101.418 34.4854C100.967 34.4854 100.589 34.5993 100.283 34.8271C99.9779 35.055 99.8252 35.3307 99.8252 35.6543H98.5537C98.5537 35.2852 98.6836 34.9297 98.9434 34.5879C99.2077 34.2415 99.5632 33.9681 100.01 33.7676C100.461 33.5671 100.955 33.4668 101.493 33.4668C102.345 33.4668 103.013 33.681 103.496 34.1094C103.979 34.5332 104.23 35.1188 104.248 35.8662V39.2705C104.248 39.9495 104.335 40.4896 104.508 40.8906V41H103.182ZM101.083 40.0361C101.479 40.0361 101.855 39.9336 102.211 39.7285C102.566 39.5234 102.824 39.2568 102.983 38.9287V37.4111H101.992C100.443 37.4111 99.668 37.8646 99.668 38.7715C99.668 39.168 99.8001 39.4779 100.064 39.7012C100.329 39.9245 100.668 40.0361 101.083 40.0361ZM109.368 37.2334C109.368 36.5088 109.509 35.8571 109.792 35.2783C110.079 34.6995 110.476 34.2529 110.981 33.9385C111.492 33.624 112.073 33.4668 112.725 33.4668C113.732 33.4668 114.545 33.8154 115.165 34.5127C115.789 35.21 116.102 36.1374 116.102 37.2949V37.3838C116.102 38.1038 115.963 38.751 115.685 39.3252C115.411 39.8949 115.017 40.3392 114.502 40.6582C113.992 40.9772 113.404 41.1367 112.738 41.1367C111.736 41.1367 110.922 40.7881 110.298 40.0908C109.678 39.3936 109.368 38.4707 109.368 37.3223V37.2334ZM110.64 37.3838C110.64 38.2041 110.829 38.8626 111.207 39.3594C111.59 39.8561 112.1 40.1045 112.738 40.1045C113.381 40.1045 113.891 39.8538 114.27 39.3525C114.648 38.8467 114.837 38.1403 114.837 37.2334C114.837 36.4222 114.643 35.766 114.256 35.2646C113.873 34.7588 113.363 34.5059 112.725 34.5059C112.1 34.5059 111.597 34.7542 111.214 35.251C110.831 35.7477 110.64 36.4587 110.64 37.3838ZM123.73 41H122.466V37.8418H119.068V41H117.797V33.6035H119.068V36.8096H122.466V33.6035H123.73V41ZM131.831 33.6035V41H130.56V34.6494H128.044L127.894 37.418C127.812 38.6895 127.597 39.5986 127.251 40.1455C126.909 40.6924 126.365 40.9772 125.617 41H125.111V39.8857L125.474 39.8584C125.884 39.8128 126.178 39.5758 126.355 39.1475C126.533 38.7191 126.647 37.9261 126.697 36.7686L126.834 33.6035H131.831ZM138.428 41C138.355 40.8542 138.296 40.5944 138.25 40.2207C137.662 40.8314 136.96 41.1367 136.145 41.1367C135.415 41.1367 134.816 40.9316 134.347 40.5215C133.882 40.1068 133.649 39.5827 133.649 38.9492C133.649 38.179 133.941 37.582 134.524 37.1582C135.112 36.7298 135.937 36.5156 136.999 36.5156H138.229V35.9346C138.229 35.4925 138.097 35.1416 137.833 34.8818C137.569 34.6175 137.179 34.4854 136.664 34.4854C136.213 34.4854 135.835 34.5993 135.529 34.8271C135.224 35.055 135.071 35.3307 135.071 35.6543H133.8C133.8 35.2852 133.93 34.9297 134.189 34.5879C134.454 34.2415 134.809 33.9681 135.256 33.7676C135.707 33.5671 136.201 33.4668 136.739 33.4668C137.591 33.4668 138.259 33.681 138.742 34.1094C139.225 34.5332 139.476 35.1188 139.494 35.8662V39.2705C139.494 39.9495 139.581 40.4896 139.754 40.8906V41H138.428ZM136.329 40.0361C136.726 40.0361 137.102 39.9336 137.457 39.7285C137.812 39.5234 138.07 39.2568 138.229 38.9287V37.4111H137.238C135.689 37.4111 134.914 37.8646 134.914 38.7715C134.914 39.168 135.046 39.4779 135.311 39.7012C135.575 39.9245 135.914 40.0361 136.329 40.0361ZM146.262 33.6035H147.526V41H146.262V35.6064L142.851 41H141.586V33.6035H142.851V39.0039L146.262 33.6035ZM146.604 30.9102C146.604 31.4616 146.414 31.9059 146.036 32.2432C145.662 32.5758 145.17 32.7422 144.56 32.7422C143.949 32.7422 143.454 32.5736 143.076 32.2363C142.698 31.8991 142.509 31.457 142.509 30.9102H143.541C143.541 31.2292 143.628 31.4798 143.801 31.6621C143.974 31.8398 144.227 31.9287 144.56 31.9287C144.879 31.9287 145.127 31.8398 145.305 31.6621C145.487 31.4844 145.578 31.2337 145.578 30.9102H146.604ZM155.6 41H154.335V37.8418H150.938V41H149.666V33.6035H150.938V36.8096H154.335V33.6035H155.6V41ZM165.676 41C165.603 40.8542 165.544 40.5944 165.498 40.2207C164.91 40.8314 164.208 41.1367 163.393 41.1367C162.663 41.1367 162.064 40.9316 161.595 40.5215C161.13 40.1068 160.897 39.5827 160.897 38.9492C160.897 38.179 161.189 37.582 161.772 37.1582C162.36 36.7298 163.185 36.5156 164.247 36.5156H165.478V35.9346C165.478 35.4925 165.345 35.1416 165.081 34.8818C164.817 34.6175 164.427 34.4854 163.912 34.4854C163.461 34.4854 163.083 34.5993 162.777 34.8271C162.472 35.055 162.319 35.3307 162.319 35.6543H161.048C161.048 35.2852 161.178 34.9297 161.438 34.5879C161.702 34.2415 162.057 33.9681 162.504 33.7676C162.955 33.5671 163.45 33.4668 163.987 33.4668C164.84 33.4668 165.507 33.681 165.99 34.1094C166.473 34.5332 166.724 35.1188 166.742 35.8662V39.2705C166.742 39.9495 166.829 40.4896 167.002 40.8906V41H165.676ZM163.577 40.0361C163.974 40.0361 164.35 39.9336 164.705 39.7285C165.061 39.5234 165.318 39.2568 165.478 38.9287V37.4111H164.486C162.937 37.4111 162.162 37.8646 162.162 38.7715C162.162 39.168 162.294 39.4779 162.559 39.7012C162.823 39.9245 163.162 40.0361 163.577 40.0361ZM174.774 41H173.51V34.6494H170.105V41H168.834V33.6035H174.774V41ZM182.301 34.6289H179.819V41H178.555V34.6289H176.121V33.6035H182.301V34.6289ZM186.054 41.1367C185.051 41.1367 184.235 40.8086 183.606 40.1523C182.978 39.4915 182.663 38.6097 182.663 37.5068V37.2744C182.663 36.5407 182.802 35.8867 183.08 35.3125C183.363 34.7337 183.755 34.2826 184.256 33.959C184.762 33.6309 185.309 33.4668 185.896 33.4668C186.858 33.4668 187.605 33.7835 188.139 34.417C188.672 35.0505 188.938 35.9574 188.938 37.1377V37.6641H183.928C183.946 38.3932 184.158 38.9834 184.563 39.4346C184.974 39.8812 185.493 40.1045 186.122 40.1045C186.569 40.1045 186.947 40.0133 187.257 39.8311C187.567 39.6488 187.838 39.4072 188.07 39.1064L188.843 39.708C188.223 40.6605 187.293 41.1367 186.054 41.1367ZM185.896 34.5059C185.386 34.5059 184.958 34.6927 184.611 35.0664C184.265 35.4355 184.051 35.9551 183.969 36.625H187.674V36.5293C187.637 35.8867 187.464 35.39 187.154 35.0391C186.844 34.6836 186.425 34.5059 185.896 34.5059ZM192.712 37.8486H191.789V41H190.518V33.6035H191.789V36.7344H192.616L195.104 33.6035H196.636L193.71 37.1582L196.882 41H195.275L192.712 37.8486ZM202.535 41C202.462 40.8542 202.403 40.5944 202.357 40.2207C201.77 40.8314 201.068 41.1367 200.252 41.1367C199.523 41.1367 198.924 40.9316 198.454 40.5215C197.989 40.1068 197.757 39.5827 197.757 38.9492C197.757 38.179 198.049 37.582 198.632 37.1582C199.22 36.7298 200.045 36.5156 201.106 36.5156H202.337V35.9346C202.337 35.4925 202.205 35.1416 201.94 34.8818C201.676 34.6175 201.286 34.4854 200.771 34.4854C200.32 34.4854 199.942 34.5993 199.637 34.8271C199.331 35.055 199.179 35.3307 199.179 35.6543H197.907C197.907 35.2852 198.037 34.9297 198.297 34.5879C198.561 34.2415 198.917 33.9681 199.363 33.7676C199.814 33.5671 200.309 33.4668 200.847 33.4668C201.699 33.4668 202.367 33.681 202.85 34.1094C203.333 34.5332 203.583 35.1188 203.602 35.8662V39.2705C203.602 39.9495 203.688 40.4896 203.861 40.8906V41H202.535ZM200.437 40.0361C200.833 40.0361 201.209 39.9336 201.564 39.7285C201.92 39.5234 202.177 39.2568 202.337 38.9287V37.4111H201.346C199.796 37.4111 199.021 37.8646 199.021 38.7715C199.021 39.168 199.154 39.4779 199.418 39.7012C199.682 39.9245 200.022 40.0361 200.437 40.0361Z" fill="#CECECE"/>
</svg>
