<svg width="25" height="25" viewBox="0 0 25 25" fill="none" xmlns="http://www.w3.org/2000/svg">
<circle cx="12.5" cy="12.5" r="12.5" fill="#2FD3AE"/>
<path d="M11.8601 15.1565C10.8523 15.0514 9.94362 14.8032 9.16564 14.1947C9.06911 14.119 8.96944 14.0461 8.88135 13.9615C8.54083 13.6345 8.50652 13.2599 8.77597 12.8739C9.00648 12.5436 9.39342 12.4552 9.79562 12.6449C9.8735 12.6817 9.9477 12.7275 10.0188 12.7768C11.4687 13.7731 13.4604 13.8006 14.9158 12.8216C15.06 12.7111 15.2141 12.6209 15.3927 12.5749C15.74 12.4857 16.064 12.6133 16.2503 12.9172C16.4633 13.2643 16.4606 13.603 16.1982 13.8725C15.7957 14.2855 15.3117 14.5844 14.7739 14.793C14.2654 14.9901 13.7084 15.0894 13.1571 15.1553C13.2403 15.2458 13.2795 15.2904 13.3315 15.3426C14.0801 16.0947 14.8319 16.8437 15.578 17.5981C15.8322 17.8552 15.8853 18.1739 15.7454 18.4729C15.5923 18.7997 15.2498 19.0147 14.9139 18.9917C14.7011 18.977 14.5351 18.871 14.3876 18.7225C13.8227 18.1541 13.2472 17.5961 12.6938 17.0169C12.5327 16.8485 12.4552 16.8803 12.3131 17.0266C11.7448 17.6116 11.1672 18.1877 10.5863 18.7605C10.3254 19.0177 10.015 19.064 9.71243 18.9171C9.39084 18.7612 9.1862 18.4329 9.20199 18.103C9.21288 17.8798 9.32262 17.7094 9.47579 17.5565C10.2166 16.8168 10.9554 16.0751 11.6944 15.3342C11.7433 15.2849 11.7889 15.2326 11.8601 15.1565Z" fill="white"/>
<path d="M12.4739 12.5801C10.676 12.574 9.20173 11.0835 9.21221 9.28279C9.22256 7.46216 10.6978 5.99498 12.5134 6.00001C14.3326 6.00491 15.7929 7.4932 15.7838 9.33276C15.7745 11.1298 14.29 12.5864 12.4739 12.5801ZM14.1079 9.28715C14.1047 8.39303 13.3926 7.68123 12.5003 7.68041C11.6005 7.67946 10.882 8.4042 10.8889 9.30648C10.8956 10.1972 11.6138 10.904 12.5086 10.9007C13.4007 10.8976 14.1109 10.1811 14.1079 9.28715Z" fill="white"/>
</svg>
