<svg width="20" height="20" viewBox="0 0 20 20" fill="none" xmlns="http://www.w3.org/2000/svg">
<g clip-path="url(#clip0_121_2092)">
<path d="M17.7964 10.1171C17.7964 7.16828 16.1342 4.6007 13.6978 3.30098V3.20051C13.6978 1.43574 12.0342 0 9.98924 0C7.94432 0 6.28068 1.43574 6.28068 3.20051V3.30098C3.84428 4.6007 2.18213 7.16828 2.18213 10.1171C2.18213 11.9852 3.07232 13.7091 4.5785 14.7912C4.62295 15.9474 5.04002 17.0701 5.76459 17.9727C6.4283 18.7994 7.32674 19.4162 8.32768 19.7398C8.43514 19.9004 8.61662 20 8.81436 20H16.012C16.176 20 16.3324 19.9314 16.4434 19.8107L16.8826 19.333C17.491 18.6714 17.8231 17.8005 17.8178 16.8807L17.7964 10.1171ZM9.98924 1.17188C11.2065 1.17188 12.226 1.86125 12.47 2.77742C11.716 2.5309 10.9115 2.39703 10.0762 2.39703H9.90225C9.06693 2.39703 8.26244 2.5309 7.50842 2.77742C7.75252 1.86125 8.77193 1.17188 9.98924 1.17188ZM3.354 10.1171C3.354 6.50644 6.29154 3.56887 9.90228 3.56887H10.0762C13.3298 3.56887 16.0363 5.95414 16.54 9.06773C16.3635 9.00754 16.1754 8.97453 15.98 8.97453C15.9767 8.97453 15.9732 8.97457 15.9698 8.97457C15.6017 8.97668 15.2599 9.0943 14.9754 9.29375C14.7451 8.83715 14.4281 8.4243 14.0365 8.08137C13.3065 7.44195 12.3694 7.0898 11.398 7.0898H8.58049C6.37147 7.0898 4.57432 8.88695 4.57432 11.096V13.2336C3.79666 12.3967 3.354 11.2927 3.354 10.1171ZM8.01021 16.1266C8.39951 16.837 9.14357 17.2842 9.96197 17.3043L8.73264 18.6381C7.93049 18.3889 7.209 17.8999 6.67846 17.239C6.06857 16.4793 5.74623 15.5616 5.74623 14.5851V11.096C5.74623 9.5332 7.01768 8.26172 8.58053 8.26172H11.398C12.7771 8.26172 13.9647 9.27125 14.1922 10.6218C14.1831 10.6998 14.1781 10.779 14.1786 10.8595L14.1965 13.9582C14.0797 13.9346 13.9602 13.9228 13.8379 13.9236C13.3493 13.9264 12.8929 14.1287 12.5505 14.4958L11.7855 15.3258C11.5035 15.1789 11.1547 15.2834 11.0012 15.5634C10.8085 15.915 10.4324 16.1333 10.0196 16.1333C9.60674 16.1333 9.23061 15.915 9.03795 15.5634C8.8824 15.2796 8.52627 15.1757 8.24252 15.3312C7.95869 15.4868 7.85471 15.8429 8.01021 16.1266ZM16.0199 18.5397L15.7547 18.8281H10.1512L13.4097 15.2926C13.5275 15.1665 13.6819 15.0964 13.8446 15.0955C14.0071 15.095 14.1626 15.1628 14.2817 15.2876C14.2821 15.288 14.2825 15.2885 14.2829 15.2889C14.5449 15.5647 14.5472 16.0319 14.2877 16.3101C14.286 16.3118 14.2844 16.3136 14.2827 16.3154L13.6601 16.9997C13.4423 17.2391 13.4597 17.6096 13.6991 17.8275C13.8114 17.9296 13.9525 17.98 14.0933 17.98C14.2525 17.98 14.4112 17.9155 14.5269 17.7884L15.1474 17.1064C15.7323 16.4767 15.8062 15.5132 15.3732 14.7979L15.3504 10.8527C15.3501 10.8044 15.3543 10.7573 15.3624 10.7117C15.4195 10.3907 15.6742 10.1462 15.98 10.1464C16.326 10.1464 16.6088 10.4592 16.611 10.8454L16.6459 16.8873C16.6495 17.51 16.4272 18.0968 16.0199 18.5397Z" fill="#9B51E0"/>
</g>
<defs>
<clipPath id="clip0_121_2092">
<rect width="20" height="20" fill="white"/>
</clipPath>
</defs>
</svg>
