<svg width="20" height="20" viewBox="0 0 20 20" fill="none" xmlns="http://www.w3.org/2000/svg">
<g clip-path="url(#clip0_121_2099)">
<path d="M19.9608 14.4447C19.9042 13.9798 19.6561 13.5531 19.2801 13.2739C18.8 12.9176 18.1945 12.8427 17.6653 13.0296C17.2149 12.1749 16.492 11.4674 15.6707 11.091C15.2657 9.38396 13.2209 8.4931 11.6872 9.38646C9.60829 8.21012 6.77412 8.81696 5.37064 10.7429C3.31834 10.4577 1.44637 12.1799 1.56931 14.2505L1.48585 14.2498C0.703662 14.2281 0.0104039 14.9165 0.0268999 15.699V18.5506C0.0268999 19.3497 0.677003 19.9998 1.47612 19.9998H14.6019C15.5495 19.9998 16.4335 19.5769 17.0281 18.8394L19.581 15.7445C19.879 15.3833 20.0174 14.9095 19.9608 14.4447ZM2.73723 14.0869C2.71757 12.6712 4.12469 11.5872 5.48775 11.9574C5.73339 12.0206 5.99185 11.919 6.12843 11.7052C7.1975 9.95131 9.6885 9.41961 11.3834 10.5702C11.594 10.7079 11.8689 10.6959 12.0668 10.5404C13.0006 9.78799 14.4467 10.39 14.571 11.5825C14.597 11.8078 14.7506 11.9979 14.9653 12.0706C15.7031 12.3207 16.3645 12.9663 16.7182 13.7597L15.383 15.2091L15.0997 15.5147C15.2202 14.4732 14.3817 13.5358 13.3324 13.5425H10.8907C10.7305 13.5425 10.5691 13.5068 10.4239 13.4393L9.4135 12.9695C8.92801 12.7438 8.4114 12.6068 7.87809 12.5623C6.76779 12.4695 5.6384 12.8481 4.77905 13.6009L4.01387 14.2712L2.74493 14.2605C2.74009 14.2012 2.73723 14.1428 2.73723 14.0869ZM18.6764 14.9984L16.1213 18.0959C16.1198 18.0978 16.1182 18.0997 16.1167 18.1016C15.7459 18.5627 15.1938 18.8271 14.602 18.8271H1.47612C1.32363 18.8271 1.1996 18.7031 1.1996 18.5506V15.699C1.1996 15.5989 1.25076 15.5332 1.28125 15.5029C1.31155 15.4728 1.37698 15.4225 1.47502 15.4225H1.47694L4.22726 15.4458C4.37033 15.4465 4.51039 15.3953 4.61859 15.3005L5.55174 14.4831C6.17319 13.9387 6.98544 13.6647 7.78049 13.7309C8.17596 13.764 8.55904 13.8656 8.9191 14.033L9.92953 14.5028C10.2285 14.6418 10.5609 14.7153 10.8907 14.7153H13.3324C14.1355 14.7486 14.1349 15.8927 13.3324 15.9257H8.58257C7.80461 15.9567 7.80519 17.0677 8.58257 17.0984H14.975C15.1382 17.0984 15.2941 17.0304 15.405 16.9106L15.9354 16.3383C15.9417 16.332 15.9484 16.3262 15.9545 16.3196L17.8215 14.293C17.8222 14.2923 17.8228 14.2915 17.8235 14.2908L17.8275 14.2865C18.0241 14.0731 18.348 14.0426 18.581 14.2156C18.702 14.3053 18.7785 14.4371 18.7967 14.5866C18.8149 14.736 18.7722 14.8822 18.6764 14.9984Z" fill="#2F80ED"/>
<path d="M4.46563 8.03398C6.39276 8.06548 7.71971 5.83306 6.66514 4.2346L4.90661 1.3212C4.79899 1.14295 4.60394 1.03463 4.39676 1.03791C4.18857 1.04069 3.99746 1.1537 3.89469 1.3348L2.2313 4.26552C1.23412 5.91765 2.58393 8.06662 4.46563 8.03398ZM3.25119 4.8444L4.42021 2.78468L5.6612 4.84061C6.25099 5.72787 5.45918 6.87942 4.46567 6.86128C3.46767 6.88079 2.70221 5.73499 3.25119 4.8444Z" fill="#2F80ED"/>
<path d="M9.21569 7.02364C9.58251 7.02364 9.87991 6.72628 9.87991 6.35943C9.84492 5.47838 8.58634 5.47862 8.55151 6.35943C8.55147 6.72624 8.84883 7.02364 9.21569 7.02364Z" fill="#2F80ED"/>
<path d="M10.8409 3.53195C11.2078 3.53195 11.5052 3.23459 11.5052 2.86773C11.4702 1.98668 10.2116 1.98692 10.1768 2.86773C10.1767 3.23459 10.4741 3.53195 10.8409 3.53195Z" fill="#2F80ED"/>
<path d="M17.621 9.87866C17.2542 9.87866 16.9568 10.176 16.9568 10.5429C16.9918 11.4239 18.2504 11.4237 18.2852 10.5429C18.2852 10.1761 17.9878 9.87866 17.621 9.87866Z" fill="#2F80ED"/>
<path d="M15.4789 5.39746C16.9708 5.39746 18.1846 4.18368 18.1846 2.69174C18.036 -0.897762 12.9213 -0.896745 12.7732 2.69178C12.7732 4.18372 13.987 5.39746 15.4789 5.39746ZM15.4789 1.15872C16.3242 1.15872 17.0119 1.84642 17.0119 2.69174C16.9277 4.72551 14.0298 4.72492 13.9459 2.69174C13.9459 1.84646 14.6336 1.15872 15.4789 1.15872Z" fill="#2F80ED"/>
</g>
<defs>
<clipPath id="clip0_121_2099">
<rect width="20" height="20" fill="white"/>
</clipPath>
</defs>
</svg>
