<svg width="25" height="25" viewBox="0 0 25 25" fill="none" xmlns="http://www.w3.org/2000/svg">
<circle cx="12.5" cy="12.5" r="12.5" fill="#2FD3AE"/>
<path d="M18.7355 9.43094C18.5861 8.87364 18.1477 8.4339 17.5911 8.28385C16.5739 8.00455 12.5045 8 12.5045 8C12.5045 8 8.43578 7.99546 7.41795 8.26242C6.87233 8.41116 6.42155 8.86065 6.27086 9.4173C6.0026 10.4345 6 12.5442 6 12.5442C6 12.5442 5.9974 14.6643 6.26371 15.6711C6.41311 16.2277 6.85155 16.6675 7.40885 16.8175C8.43643 17.0968 12.4948 17.1014 12.4948 17.1014C12.4948 17.1014 16.5641 17.1059 17.5813 16.8396C18.1373 16.6902 18.5777 16.2511 18.729 15.6945C18.998 14.6779 18.9999 12.5689 18.9999 12.5689C18.9999 12.5689 19.0129 10.4481 18.7355 9.43094ZM11.2028 14.4987L11.2061 10.6014L14.5882 12.5533L11.2028 14.4987Z" fill="white"/>
</svg>
