<svg width="60" height="42" viewBox="0 0 60 42" fill="none" xmlns="http://www.w3.org/2000/svg">
<path d="M57.53 4.59519C53.7923 0.14043 47.1272 -0.442813 42.6725 3.29535C30.0196 14.0536 30.2743 13.3836 30 14.3091C29.7229 13.3745 29.9169 13.9997 17.3274 3.29535C12.8627 -0.451133 6.21684 0.129531 2.46989 4.59531C-1.2766 9.05992 -0.695821 15.706 3.76973 19.4528L15.8879 29.6212C16.6278 30.2423 17.7378 30.1511 18.364 29.4046C30.086 15.3528 29.8032 15.9735 30 15.312C30.1927 15.9599 29.8722 15.3028 41.6359 29.4045C41.9354 29.7617 42.3647 29.985 42.8291 30.0257C42.8803 30.0302 42.9314 30.0324 42.9823 30.0324C43.3938 30.0324 43.7943 29.8878 44.112 29.6212L56.2302 19.4528C60.695 15.7066 61.2772 9.06086 57.53 4.59519ZM16.801 25.7984L6.02922 16.7601C3.05266 14.2626 2.66465 9.83195 5.16262 6.8548C7.65895 3.88 12.0893 3.48906 15.0678 5.9882L25.8394 15.0268L16.801 25.7984ZM53.9707 16.7601L43.1989 25.7985L34.1605 15.0268L44.9321 5.9882C47.9097 3.49 52.3398 3.87859 54.8373 6.85492C57.3348 9.83148 56.9477 14.262 53.9707 16.7601Z" fill="#2FD3AE"/>
<path d="M22.9686 34.1448C23.9394 34.1448 24.7263 33.3578 24.7263 32.3871C24.7263 31.4163 23.9394 30.6294 22.9686 30.6294C21.9979 30.6294 21.2109 31.4163 21.2109 32.3871C21.2109 33.3578 21.9979 34.1448 22.9686 34.1448Z" fill="#2FD3AE"/>
<path d="M29.9999 34.1448C30.9706 34.1448 31.7576 33.3578 31.7576 32.3871C31.7576 31.4163 30.9706 30.6294 29.9999 30.6294C29.0291 30.6294 28.2422 31.4163 28.2422 32.3871C28.2422 33.3578 29.0291 34.1448 29.9999 34.1448Z" fill="#2FD3AE"/>
<path d="M37.0311 34.1448C38.0019 34.1448 38.7888 33.3578 38.7888 32.3871C38.7888 31.4163 38.0019 30.6294 37.0311 30.6294C36.0604 30.6294 35.2734 31.4163 35.2734 32.3871C35.2734 33.3578 36.0604 34.1448 37.0311 34.1448Z" fill="#2FD3AE"/>
<path d="M29.9999 27.1138C30.9706 27.1138 31.7576 26.3268 31.7576 25.3561C31.7576 24.3853 30.9706 23.5984 29.9999 23.5984C29.0291 23.5984 28.2422 24.3853 28.2422 25.3561C28.2422 26.3268 29.0291 27.1138 29.9999 27.1138Z" fill="#2FD3AE"/>
<path d="M19.453 41.1753C20.4238 41.1753 21.2107 40.3884 21.2107 39.4176C21.2107 38.4469 20.4238 37.6599 19.453 37.6599C18.4823 37.6599 17.6953 38.4469 17.6953 39.4176C17.6953 40.3884 18.4823 41.1753 19.453 41.1753Z" fill="#2FD3AE"/>
<path d="M26.4843 41.1753C27.455 41.1753 28.242 40.3884 28.242 39.4176C28.242 38.4469 27.455 37.6599 26.4843 37.6599C25.5135 37.6599 24.7266 38.4469 24.7266 39.4176C24.7266 40.3884 25.5135 41.1753 26.4843 41.1753Z" fill="#2FD3AE"/>
<path d="M33.5155 41.1753C34.4863 41.1753 35.2732 40.3884 35.2732 39.4176C35.2732 38.4469 34.4863 37.6599 33.5155 37.6599C32.5448 37.6599 31.7578 38.4469 31.7578 39.4176C31.7578 40.3884 32.5448 41.1753 33.5155 41.1753Z" fill="#2FD3AE"/>
<path d="M40.5468 41.1753C41.5175 41.1753 42.3045 40.3884 42.3045 39.4176C42.3045 38.4469 41.5175 37.6599 40.5468 37.6599C39.576 37.6599 38.7891 38.4469 38.7891 39.4176C38.7891 40.3884 39.576 41.1753 40.5468 41.1753Z" fill="#2FD3AE"/>
</svg>
