<svg width="20" height="20" viewBox="0 0 20 20" fill="none" xmlns="http://www.w3.org/2000/svg">
<path d="M12.9196 7.6702C14.6712 5.91859 14.6712 3.06848 12.9196 1.31684C11.164 -0.438828 8.32211 -0.439063 6.56625 1.31684L1.31781 6.56527C-0.437852 8.3209 -0.438086 11.1628 1.31781 12.9186C3.07344 14.6743 5.91531 14.6745 7.67117 12.9186L12.9196 7.6702ZM7.39492 2.14551C8.69262 0.847852 10.793 0.847695 12.0909 2.14551C13.3885 3.44316 13.3887 5.54359 12.0909 6.84148L9.88101 9.05137L5.18504 4.35539L7.39492 2.14551ZM6.84246 12.09C5.5448 13.3876 3.44437 13.3878 2.14648 12.09C0.848867 10.7923 0.848672 8.69184 2.14648 7.39398L4.35637 5.1841L9.05234 9.88008L6.84246 12.09Z" fill="#2FD3AE"/>
<path d="M18.4576 10.9997C16.4013 8.94345 13.0555 8.94345 10.9992 10.9997C8.94297 13.056 8.94297 16.4018 10.9992 18.4581C13.0554 20.5142 16.4012 20.5144 18.4576 18.4581C20.5138 16.4018 20.5138 13.056 18.4576 10.9997ZM17.6288 17.6294C16.0295 19.2286 13.4272 19.2286 11.8279 17.6294C10.2286 16.03 10.2286 13.4278 11.8279 11.8284C13.427 10.2294 16.0293 10.2289 17.6288 11.8284C19.2281 13.4277 19.2281 16.03 17.6288 17.6294Z" fill="#2FD3AE"/>
<path d="M16.1333 12.4944L12.4871 16.1407C12.2582 16.3695 12.2582 16.7405 12.4871 16.9693C12.7158 17.1982 13.0869 17.1982 13.3157 16.9693L16.962 13.3231C17.1908 13.0942 17.1908 12.7232 16.962 12.4944C16.7332 12.2655 16.3621 12.2655 16.1333 12.4944Z" fill="#2FD3AE"/>
</svg>
