<svg width="14" height="13" viewBox="0 0 14 13" fill="none" xmlns="http://www.w3.org/2000/svg">
<path fill-rule="evenodd" clip-rule="evenodd" d="M6.87458 0.123388C6.95766 0.115446 7.04131 0.115446 7.12439 0.123388C7.63969 0.17265 7.94498 0.56878 8.14829 0.915543C8.35767 1.27266 8.57165 1.78005 8.82725 2.38613L8.84366 2.42506C9.00504 2.80767 9.11168 3.05906 9.21244 3.24684C9.30783 3.42463 9.3782 3.50626 9.44689 3.56097C9.46851 3.57818 9.49087 3.59443 9.51392 3.60966C9.58717 3.65809 9.68655 3.69979 9.88512 3.73558C10.0948 3.77337 10.3669 3.79711 10.7806 3.83235L10.8227 3.83594C11.4781 3.89174 12.0268 3.93845 12.4312 4.02723C12.8238 4.11343 13.2949 4.28137 13.5009 4.75622C13.5342 4.83278 13.56 4.91234 13.5781 4.9938C13.6905 5.4991 13.4081 5.91187 13.1412 6.21238C12.8662 6.52187 12.4498 6.88218 11.9523 7.31257L11.9204 7.34018C11.6064 7.61189 11.4003 7.791 11.2528 7.94485C11.1132 8.09051 11.0573 8.18267 11.0265 8.2649C11.0168 8.29078 11.0083 8.31707 11.0009 8.34369C10.9775 8.42833 10.9685 8.53573 10.9959 8.73564C11.0247 8.94678 11.0862 9.21284 11.1805 9.61723L11.1901 9.65835C11.3396 10.2989 11.4647 10.8352 11.5052 11.2472C11.5446 11.6472 11.5304 12.1472 11.1425 12.4899C11.08 12.5451 11.0123 12.5943 10.9404 12.6367C10.4946 12.8998 10.0147 12.7587 9.64644 12.5977C9.26715 12.4318 8.7958 12.1471 8.23277 11.807L8.19661 11.7852C7.84116 11.5705 7.60712 11.4298 7.41523 11.3371C7.23355 11.2494 7.12864 11.2247 7.04091 11.2208C7.01331 11.2196 6.98567 11.2196 6.95807 11.2208C6.87034 11.2247 6.76542 11.2494 6.58375 11.3371C6.39186 11.4298 6.15782 11.5705 5.80237 11.7852L5.7662 11.807C5.20318 12.1471 4.73183 12.4318 4.35253 12.5977C3.98423 12.7587 3.5044 12.8998 3.05856 12.6367C2.98668 12.5943 2.91901 12.5451 2.85647 12.4899C2.46854 12.1472 2.45439 11.6472 2.49373 11.2472C2.53425 10.8352 2.65937 10.2989 2.80884 9.65836L2.81843 9.61724C2.91277 9.21284 2.97426 8.94678 3.00312 8.73564C3.03045 8.53573 3.0215 8.42833 2.99808 8.34369C2.99071 8.31707 2.98217 8.29078 2.97248 8.2649C2.94168 8.18267 2.88579 8.09051 2.74618 7.94485C2.59872 7.791 2.39259 7.61189 2.07857 7.34018L2.04663 7.31254C1.5492 6.88217 1.13276 6.52186 0.857822 6.21238C0.590856 5.91187 0.308456 5.4991 0.42084 4.9938C0.43896 4.91234 0.464808 4.83278 0.498035 4.75622C0.704121 4.28137 1.1752 4.11343 1.56782 4.02723C1.97216 3.93845 2.52084 3.89174 3.17624 3.83594L3.21834 3.83235C3.63209 3.79711 3.90413 3.77337 4.11386 3.73558C4.31242 3.69979 4.4118 3.65809 4.48506 3.60966C4.50811 3.59443 4.53047 3.57818 4.55208 3.56097C4.62078 3.50626 4.69115 3.42463 4.78654 3.24684C4.8873 3.05906 4.99394 2.80767 5.15531 2.42506L5.17173 2.38614C5.42732 1.78006 5.64131 1.27266 5.85069 0.915543C6.05399 0.56878 6.35929 0.17265 6.87458 0.123388ZM6.99949 1.24326C6.97578 1.26244 6.91652 1.32193 6.82118 1.48455C6.65399 1.7697 6.46823 2.20706 6.19189 2.86225L6.18224 2.88513C6.03313 3.23869 5.90645 3.53908 5.77786 3.77874C5.64114 4.03355 5.4833 4.25753 5.25291 4.44101C5.20536 4.47887 5.15616 4.51462 5.10546 4.54813C4.85977 4.71055 4.59798 4.79145 4.31339 4.84274C4.04573 4.89098 3.72089 4.91863 3.33857 4.95119L3.31381 4.9533C2.6053 5.01364 2.13194 5.05517 1.80908 5.12605C1.62496 5.16648 1.55007 5.20445 1.5245 5.22107C1.53542 5.24955 1.57368 5.32429 1.69887 5.46521C1.91841 5.71234 2.27696 6.02416 2.81469 6.48944L2.83349 6.50571C3.12366 6.75676 3.37019 6.97007 3.55838 7.16642C3.75847 7.37519 3.92271 7.59452 4.02601 7.87032C4.04733 7.92725 4.06612 7.98508 4.08233 8.04366C4.16088 8.32752 4.15692 8.6015 4.11776 8.88801C4.08092 9.15747 4.00685 9.47496 3.91966 9.84862L3.91402 9.87282C3.75247 10.5653 3.64568 11.0283 3.61333 11.3573C3.59488 11.5449 3.60785 11.6279 3.61576 11.6573C3.64621 11.6557 3.72912 11.6424 3.90184 11.5669C4.2047 11.4345 4.61207 11.1898 5.22074 10.8222L5.242 10.8094C5.57045 10.611 5.8495 10.4424 6.0944 10.3241C6.35478 10.1983 6.61413 10.1099 6.90836 10.0969C6.96908 10.0942 7.02989 10.0942 7.09062 10.0969C7.38485 10.1099 7.6442 10.1983 7.90458 10.3241C8.14948 10.4424 8.42855 10.611 8.757 10.8094L8.77824 10.8222C9.38691 11.1898 9.79427 11.4345 10.0971 11.5669C10.2699 11.6424 10.3528 11.6557 10.3832 11.6573C10.3911 11.6279 10.4041 11.5449 10.3856 11.3573C10.3533 11.0283 10.2465 10.5653 10.085 9.87282L10.0793 9.8486C9.99213 9.47494 9.91805 9.15747 9.88122 8.88801C9.84205 8.6015 9.8381 8.32752 9.91664 8.04366C9.93285 7.98508 9.95164 7.92725 9.97296 7.87032C10.0763 7.59452 10.2405 7.37519 10.4406 7.16642C10.6288 6.97007 10.8753 6.75677 11.1655 6.50572L11.1843 6.48944C11.722 6.02416 12.0806 5.71234 12.3001 5.46521C12.4253 5.32429 12.4636 5.24955 12.4745 5.22107C12.4489 5.20445 12.374 5.16648 12.1899 5.12605C11.867 5.05517 11.3937 5.01364 10.6852 4.9533L10.6604 4.95119C10.2781 4.91863 9.95325 4.89098 9.68559 4.84274C9.401 4.79145 9.13921 4.71055 8.89352 4.54813C8.84281 4.51462 8.79362 4.47887 8.74607 4.44101C8.51568 4.25753 8.35784 4.03355 8.22112 3.77874C8.09253 3.53908 7.96584 3.23869 7.81674 2.88514L7.80709 2.86225C7.53075 2.20706 7.34498 1.7697 7.1778 1.48455C7.08246 1.32193 7.0232 1.26244 6.99949 1.24326Z" fill="#F2C94C"/>
</svg>
