<svg width="25" height="25" viewBox="0 0 25 25" fill="none" xmlns="http://www.w3.org/2000/svg">
<circle cx="12.5" cy="12.5" r="12.5" fill="#2FD3AE"/>
<path d="M18.6289 15.6969C18.6289 15.645 18.5771 15.645 18.5771 15.5931C18.3695 15.178 17.9025 14.6591 17.2798 14.0883C16.9685 13.8289 16.8128 13.6213 16.709 13.5176C16.5534 13.31 16.5534 13.1543 16.6053 12.9468C16.6572 12.7911 16.8647 12.5317 17.2279 12.0647C17.4355 11.8052 17.5393 11.6495 17.6949 11.4939C18.4733 10.4561 18.8365 9.78153 18.7327 9.47019L18.6808 9.41831C18.6289 9.36642 18.577 9.31453 18.4733 9.31453C18.3695 9.26264 18.2138 9.26264 18.0582 9.31453H16.0864C16.0345 9.31453 16.0345 9.31453 15.9307 9.31453C15.8788 9.31453 15.8269 9.31453 15.8269 9.31453H15.775H15.7231L15.6712 9.36641C15.6194 9.4183 15.6194 9.4183 15.6194 9.47019C15.4118 10.041 15.1524 10.508 14.8929 11.0269C14.7372 11.2863 14.5816 11.5458 14.4259 11.7533C14.2702 11.9609 14.1665 12.1165 14.0627 12.2203C13.9589 12.3241 13.8551 12.376 13.8032 12.4798C13.7513 12.5317 13.6476 12.5836 13.6476 12.5317C13.5957 12.5317 13.5438 12.5317 13.5438 12.4798C13.4919 12.4279 13.44 12.376 13.3881 12.3241C13.3362 12.2722 13.3362 12.1684 13.2843 12.0647C13.2843 11.9609 13.2843 11.8571 13.2843 11.8052C13.2843 11.7533 13.2843 11.5977 13.2843 11.4939C13.2843 11.3382 13.2843 11.2344 13.2843 11.1825C13.2843 11.0269 13.2843 10.8193 13.2843 10.6118C13.2843 10.4042 13.2843 10.2485 13.2843 10.1448C13.2843 10.041 13.2843 9.88531 13.2843 9.78153C13.2843 9.62586 13.2843 9.52208 13.2843 9.47019C13.2843 9.4183 13.2325 9.31453 13.2325 9.26264C13.1806 9.21075 13.1287 9.15886 13.0768 9.10697C13.0249 9.05508 12.9211 9.05508 12.8692 9.00319C12.6098 8.9513 12.2984 8.89941 11.9352 8.89941C11.105 8.89941 10.5342 8.9513 10.3267 9.05508C10.2229 9.10697 10.1191 9.15886 10.0672 9.26264C9.96343 9.36642 9.96342 9.41831 10.0153 9.41831C10.2748 9.4702 10.4823 9.57397 10.5861 9.72964L10.638 9.83342C10.6899 9.88531 10.6899 9.98909 10.7418 10.1448C10.7936 10.3004 10.7937 10.4561 10.7937 10.6636C10.7937 10.975 10.7937 11.2863 10.7937 11.4939C10.7937 11.7533 10.7418 11.909 10.7418 12.0647C10.7418 12.2203 10.6899 12.3241 10.638 12.376C10.5861 12.4798 10.5861 12.5317 10.5342 12.5317C10.5342 12.5317 10.5342 12.5836 10.4823 12.5836C10.4304 12.5836 10.3785 12.6354 10.2748 12.6354C10.2229 12.6354 10.1191 12.5836 10.0672 12.5317C9.96343 12.4798 9.85965 12.376 9.80776 12.2722C9.70398 12.1684 9.6002 12.0128 9.49642 11.8052C9.39264 11.5977 9.23697 11.3901 9.13319 11.0788L9.02942 10.8712C8.97753 10.7674 8.87375 10.5599 8.76997 10.3004C8.66619 10.041 8.56241 9.83342 8.45863 9.57398C8.40674 9.4702 8.35486 9.4183 8.30297 9.36641H8.25108C8.25108 9.36641 8.19918 9.31453 8.14729 9.31453C8.0954 9.31453 8.04352 9.26264 7.99163 9.26264H6.12361C5.91605 9.26264 5.81228 9.31453 5.76039 9.36641L5.7085 9.41831C5.7085 9.41831 5.7085 9.4702 5.7085 9.52208C5.7085 9.57397 5.7085 9.62586 5.76039 9.72964C6.01984 10.3523 6.33117 10.975 6.64251 11.5977C6.95384 12.1684 7.26518 12.6873 7.47274 13.0506C7.73218 13.4138 7.93974 13.777 8.19919 14.0883C8.45863 14.3997 8.6143 14.6072 8.66619 14.711C8.76996 14.8148 8.82185 14.8667 8.87374 14.9186L9.02942 15.0742C9.1332 15.178 9.28886 15.3337 9.49642 15.4894C9.70398 15.645 9.96342 15.8007 10.2229 15.9564C10.4823 16.112 10.7937 16.2158 11.105 16.3196C11.4682 16.4234 11.7795 16.4753 12.0909 16.4234H12.8692C13.0249 16.4234 13.1287 16.3715 13.2325 16.2677L13.2843 16.2158C13.2843 16.1639 13.3362 16.1639 13.3362 16.112C13.3362 16.0601 13.3362 16.0083 13.3362 15.9045C13.3362 15.6969 13.3362 15.5412 13.3881 15.3856C13.44 15.2299 13.44 15.1261 13.4919 15.0224C13.5438 14.9186 13.5957 14.8667 13.6476 14.8148C13.6995 14.7629 13.7514 14.711 13.7514 14.711H13.8032C13.907 14.6591 14.0627 14.711 14.1665 14.8148C14.3221 14.9186 14.4778 15.0742 14.5816 15.2299C14.6853 15.3856 14.841 15.5412 15.0486 15.7488C15.2561 15.9564 15.4118 16.112 15.5156 16.1639L15.6712 16.2677C15.775 16.3196 15.8788 16.3715 16.0345 16.4234C16.1901 16.4753 16.2939 16.4753 16.3977 16.4753L18.1619 16.4234C18.3176 16.4234 18.4733 16.3715 18.5771 16.3196C18.6808 16.2677 18.7327 16.2158 18.7327 16.112C18.7327 16.0601 18.7327 15.9564 18.7327 15.9045C18.6289 15.8007 18.6289 15.7488 18.6289 15.6969Z" fill="white"/>
</svg>
