<svg width="20" height="20" viewBox="0 0 20 20" fill="none" xmlns="http://www.w3.org/2000/svg">
<g clip-path="url(#clip0_209_2747)">
<path d="M11.6447 18.7219C11.4445 18.6416 11.217 18.7389 11.1368 18.9391C11.0697 19.1065 10.8996 19.2189 10.7136 19.2189H9.28658C9.10056 19.2189 8.93048 19.1065 8.86341 18.9391C8.78314 18.7389 8.55576 18.6418 8.35548 18.7219C8.15525 18.8022 8.05799 19.0296 8.13826 19.2298C8.32588 19.6978 8.77658 20.0001 9.28658 20.0001H10.7136C11.2236 20.0001 11.6743 19.6978 11.8619 19.2298C11.9422 19.0296 11.8449 18.8022 11.6447 18.7219Z" fill="#D96BA0"/>
<path d="M16.2321 16.7095C16.126 16.1624 15.789 15.6888 15.3073 15.4091C15.3949 15.3376 15.4771 15.2584 15.5521 15.1713C15.922 14.7415 16.0858 14.1733 16.0014 13.6126C15.8644 12.7015 15.4766 11.8502 14.8801 11.1507C14.4334 10.627 13.8844 10.205 13.27 9.9084C14.0219 9.10629 14.4832 8.02855 14.4832 6.845C14.4832 4.7968 13.1024 3.06496 11.2228 2.53141C11.4789 2.22574 11.6185 1.84387 11.6185 1.44035C11.6186 0.646133 10.9724 0 10.1782 0C10.1782 0 10.1781 0 10.1781 0C9.85752 0 9.55725 0.104258 9.33268 0.293516C9.08447 0.502656 8.94779 0.796601 8.94775 1.12117C8.94775 1.33687 9.12264 1.5118 9.33838 1.5118C9.55408 1.5118 9.72901 1.33691 9.72901 1.12117C9.72901 1.02824 9.76502 0.950781 9.83611 0.890859C9.92002 0.820156 10.0415 0.781211 10.1781 0.781211H10.1782C10.5416 0.781211 10.8373 1.07684 10.8373 1.44027C10.8373 1.68645 10.7415 1.91785 10.5674 2.09191C10.3933 2.26594 10.162 2.3618 9.91588 2.3618C9.91584 2.3618 9.91584 2.3618 9.9158 2.3618C9.90623 2.3618 9.89686 2.36254 9.88748 2.36324C7.46732 2.42324 5.51697 4.41062 5.51693 6.84496C5.51693 8.02851 5.97818 9.10625 6.7301 9.90836C6.11572 10.2049 5.56674 10.6269 5.12009 11.1507C4.52357 11.8502 4.1358 12.7014 3.99869 13.6125C3.91431 14.1733 4.0781 14.7414 4.44806 15.1712C4.52306 15.2584 4.60525 15.3376 4.69287 15.4091C4.21111 15.6888 3.87404 16.1624 3.76798 16.7094C3.66162 17.2578 3.7981 17.8248 4.14236 18.2647L4.97888 19.3337C5.31685 19.7655 5.83025 19.9978 6.35099 19.9978C6.64662 19.9978 6.94467 19.9229 7.21428 19.7673C7.95885 19.3374 8.27791 18.4119 7.95646 17.6146L7.449 16.3557C7.4151 16.2716 7.37502 16.1909 7.33029 16.1134H10.1954C10.4111 16.1134 10.586 15.9385 10.586 15.7228C10.586 15.5071 10.4111 15.3321 10.1954 15.3321H6.58771V14.5087C6.58771 14.4026 6.67396 14.3164 6.78002 14.3164H13.2201C13.3262 14.3164 13.4124 14.4026 13.4124 14.5087V15.3862C13.0249 15.5986 12.7189 15.9394 12.5511 16.3557L12.0436 17.6145C11.7222 18.4119 12.0412 19.3374 12.7858 19.7673C13.0555 19.9229 13.3534 19.9978 13.6491 19.9978C14.1698 19.9978 14.6833 19.7655 15.0212 19.3337L15.8577 18.2647C16.2021 17.8248 16.3385 17.2579 16.2321 16.7095ZM6.29814 6.845C6.29818 4.80379 7.95889 3.14312 10.0001 3.14309C12.0412 3.14312 13.7019 4.80379 13.702 6.845C13.702 8.88621 12.0413 10.5469 10.0001 10.5469C7.95885 10.5469 6.29814 8.88621 6.29814 6.845ZM6.72451 16.6478L7.23197 17.9067C7.40873 18.3453 7.23318 18.8543 6.82369 19.0907C6.41424 19.3272 5.8856 19.2247 5.59416 18.8523L4.75763 17.7833C4.55283 17.5216 4.47166 17.1845 4.53494 16.8582C4.59822 16.532 4.79959 16.2495 5.0874 16.0834C5.37517 15.9172 5.72045 15.8841 6.03463 15.9923C6.34881 16.1007 6.60025 16.3396 6.72451 16.6478ZM13.2227 12.7539C13.007 12.7539 12.8321 12.9288 12.8321 13.1445V13.5352H7.1706V13.1445C7.1706 12.9288 6.99572 12.7539 6.77998 12.7539C6.56424 12.7539 6.38935 12.9288 6.38935 13.1445V13.6172C6.0465 13.768 5.80642 14.1108 5.80642 14.5087V15.0603C5.5106 15.0307 5.23611 14.8893 5.04013 14.6616C4.81877 14.4044 4.72076 14.0644 4.77123 13.7288C4.99486 12.2423 5.98596 11.0142 7.37732 10.4786C8.11529 11.0127 9.02147 11.3281 10.0001 11.3281C10.9787 11.3281 11.8848 11.0127 12.6228 10.4786C14.0142 11.0142 15.0053 12.2423 15.2289 13.7288C15.2794 14.0644 15.1814 14.4044 14.9599 14.6616C14.764 14.8893 14.4895 15.0307 14.1937 15.0603V14.5087C14.1937 14.1118 13.9548 13.7698 13.6133 13.6184V13.1445C13.6133 12.9288 13.4385 12.7539 13.2227 12.7539ZM15.2425 17.7833L14.406 18.8522C14.1146 19.2246 13.586 19.3271 13.1765 19.0907C12.7669 18.8543 12.5914 18.3452 12.7682 17.9066L13.2757 16.6477C13.3999 16.3395 13.6514 16.1006 13.9656 15.9923C14.0873 15.9504 14.2136 15.9296 14.3394 15.9296C14.5385 15.9296 14.7365 15.9815 14.9128 16.0833C15.2006 16.2495 15.4019 16.5319 15.4653 16.8582C15.5285 17.1844 15.4473 17.5216 15.2425 17.7833Z" fill="#D96BA0"/>
<path d="M12.023 15.4465C11.9503 15.3738 11.8496 15.332 11.7468 15.332C11.6441 15.332 11.5433 15.3738 11.4707 15.4465C11.398 15.5192 11.3562 15.6199 11.3562 15.7227C11.3562 15.8258 11.398 15.9262 11.4707 15.9988C11.5433 16.0718 11.6441 16.1133 11.7468 16.1133C11.8496 16.1133 11.9503 16.0718 12.023 15.9988C12.0957 15.9262 12.1375 15.8254 12.1375 15.7227C12.1375 15.6199 12.0957 15.5191 12.023 15.4465Z" fill="#D96BA0"/>
<path d="M11.0769 8.17896C10.9093 8.0431 10.6634 8.06892 10.5275 8.23646C10.3977 8.39661 10.2054 8.48845 9.99996 8.48845C9.79453 8.48845 9.60219 8.39658 9.47242 8.23646C9.3366 8.06884 9.09062 8.04318 8.92301 8.17896C8.75539 8.31478 8.72965 8.56075 8.86551 8.72837C9.14434 9.07239 9.55785 9.26966 9.99996 9.26966C10.4421 9.26966 10.8556 9.07235 11.1344 8.72837C11.2703 8.56075 11.2445 8.31478 11.0769 8.17896Z" fill="#D96BA0"/>
<path d="M9.01301 6.56885C8.65867 6.21452 8.08211 6.21452 7.7277 6.56885C7.57516 6.72139 7.57512 6.96869 7.7277 7.12127C7.88024 7.27385 8.12758 7.27385 8.28012 7.12131C8.32985 7.07158 8.41082 7.07158 8.46059 7.12131C8.53688 7.19756 8.63684 7.23572 8.7368 7.23572C8.83676 7.23572 8.93676 7.19756 9.01301 7.12131C9.16555 6.96877 9.16555 6.72143 9.01301 6.56885Z" fill="#D96BA0"/>
<path d="M12.2723 6.5687C11.9179 6.2144 11.3413 6.2144 10.987 6.5687C10.8344 6.72124 10.8344 6.96858 10.987 7.12116C11.0632 7.19745 11.1632 7.23557 11.2632 7.23557C11.3631 7.23557 11.4631 7.19741 11.5394 7.12116C11.5891 7.07147 11.6701 7.07139 11.7199 7.12116C11.8724 7.27373 12.1197 7.2737 12.2723 7.12112C12.4248 6.96858 12.4248 6.72128 12.2723 6.5687Z" fill="#D96BA0"/>
</g>
<defs>
<clipPath id="clip0_209_2747">
<rect width="20" height="20" fill="white"/>
</clipPath>
</defs>
</svg>
