<svg width="11" height="13" viewBox="0 0 11 13" fill="none" xmlns="http://www.w3.org/2000/svg">
<path d="M2.36161 13V10.822H0.849609V9.562H2.36161V8.41H0.849609V6.97H2.36161V0.219999H6.78961C7.60561 0.219999 8.30161 0.423999 8.87761 0.831999C9.45361 1.228 9.89161 1.738 10.1916 2.362C10.5036 2.986 10.6596 3.634 10.6596 4.306C10.6596 5.002 10.5156 5.668 10.2276 6.304C9.93961 6.928 9.51361 7.438 8.94961 7.834C8.39761 8.218 7.71361 8.41 6.89761 8.41H3.98161V9.562H6.80761V10.822H3.98161V13H2.36161ZM3.98161 6.97H6.80761C7.37161 6.97 7.81561 6.85 8.13961 6.61C8.46361 6.37 8.69161 6.046 8.82361 5.638C8.95561 5.23 9.02161 4.786 9.02161 4.306C9.02161 3.55 8.83561 2.92 8.46361 2.416C8.09161 1.912 7.49761 1.66 6.68161 1.66H3.98161V6.97Z" fill="white"/>
</svg>
