<svg width="14" height="14" viewBox="0 0 14 14" fill="none" xmlns="http://www.w3.org/2000/svg">
<path d="M3.5248 5.494C2.9728 5.494 2.4688 5.374 2.0128 5.134C1.5688 4.882 1.2148 4.552 0.950805 4.144C0.686805 3.724 0.554805 3.262 0.554805 2.758C0.554805 2.254 0.686805 1.798 0.950805 1.39C1.2148 0.982 1.5688 0.657999 2.0128 0.417999C2.4688 0.165999 2.9728 0.0399995 3.5248 0.0399995C4.0768 0.0399995 4.5748 0.165999 5.01881 0.417999C5.4748 0.657999 5.8348 0.982 6.09881 1.39C6.3628 1.798 6.4948 2.254 6.4948 2.758C6.4948 3.262 6.3628 3.724 6.09881 4.144C5.8348 4.552 5.4748 4.882 5.01881 5.134C4.5748 5.374 4.0768 5.494 3.5248 5.494ZM1.5808 12.154L6.63881 6.232L11.3188 0.075999L12.4168 1.048L7.4848 6.88L2.6608 13.126L1.5808 12.154ZM3.5248 4.288C3.8728 4.288 4.1728 4.138 4.4248 3.838C4.67681 3.526 4.80281 3.166 4.80281 2.758C4.80281 2.35 4.67681 1.996 4.4248 1.696C4.1728 1.396 3.8728 1.246 3.5248 1.246C3.1768 1.246 2.8768 1.396 2.6248 1.696C2.3728 1.996 2.2468 2.35 2.2468 2.758C2.2468 3.178 2.3728 3.538 2.6248 3.838C2.8768 4.138 3.1768 4.288 3.5248 4.288ZM10.4728 13.18C9.92081 13.18 9.42281 13.06 8.97881 12.82C8.53481 12.568 8.17481 12.238 7.89881 11.83C7.63481 11.422 7.50281 10.966 7.50281 10.462C7.50281 9.958 7.63481 9.502 7.89881 9.094C8.17481 8.674 8.53481 8.344 8.97881 8.104C9.42281 7.852 9.92081 7.726 10.4728 7.726C11.0248 7.726 11.5228 7.852 11.9668 8.104C12.4228 8.344 12.7828 8.674 13.0468 9.094C13.3108 9.502 13.4428 9.958 13.4428 10.462C13.4428 10.966 13.3108 11.422 13.0468 11.83C12.7828 12.238 12.4228 12.568 11.9668 12.82C11.5228 13.06 11.0248 13.18 10.4728 13.18ZM10.4728 11.974C10.8328 11.974 11.1328 11.824 11.3728 11.524C11.6248 11.224 11.7508 10.87 11.7508 10.462C11.7508 10.042 11.6248 9.682 11.3728 9.382C11.1208 9.082 10.8208 8.932 10.4728 8.932C10.1248 8.932 9.82481 9.088 9.5728 9.4C9.32081 9.7 9.19481 10.054 9.19481 10.462C9.19481 10.87 9.32081 11.224 9.5728 11.524C9.82481 11.824 10.1248 11.974 10.4728 11.974Z" fill="white"/>
</svg>
