<svg width="20" height="20" viewBox="0 0 20 20" fill="none" xmlns="http://www.w3.org/2000/svg">
<path d="M18.863 2.51631L17.2051 0.858375C16.6515 0.304843 15.9156 0 15.1327 0C14.3498 0 13.6139 0.304843 13.0603 0.858414C12.9262 0.992528 12.8068 1.13833 12.7019 1.2937C12.5988 1.28592 12.4947 1.2819 12.3896 1.2819H7.70035C7.56619 1.2819 7.4336 1.28858 7.30273 1.30124C7.19672 1.14305 7.07565 0.994717 6.93931 0.858414C5.79665 -0.284289 3.9373 -0.284367 2.79456 0.858414L1.13666 2.51631C0.804504 2.84847 0.621582 3.29005 0.621582 3.75976C0.621582 4.22947 0.804504 4.67105 1.13666 5.0032L1.96561 5.83215C2.41098 6.27752 2.98448 6.56349 3.59721 6.65688V9.51149C2.87248 10.2519 2.42489 11.2645 2.42489 12.3799V14.7246C2.42489 16.3406 3.73965 17.6554 5.3557 17.6554H7.17315C7.44544 18.9915 8.62961 20 10.045 20C11.4604 20 12.6445 18.9915 12.9168 17.6554H14.7343C16.3503 17.6554 17.6651 16.3406 17.6651 14.7246V12.3799C17.6651 11.2645 17.2175 10.2519 16.4928 9.51149V6.64258C17.0728 6.53742 17.6062 6.25997 18.034 5.83215L18.863 5.0032C19.1951 4.67108 19.3781 4.22947 19.3781 3.75976C19.3781 3.29005 19.1951 2.84847 18.863 2.51631ZM12.3896 2.45422C14.0057 2.45422 15.3204 3.76898 15.3204 5.38503V8.6732C14.7872 8.4192 14.1909 8.27676 13.562 8.27676H6.52802C5.89907 8.27676 5.30283 8.4192 4.76954 8.6732V5.38503C4.76954 3.76898 6.0843 2.45422 7.70035 2.45422H12.3896ZM2.79456 5.0032L1.96561 4.17425C1.73705 3.94569 1.73705 3.57383 1.96561 3.34526L3.62351 1.68736C4.28916 1.02172 5.35996 1.00245 6.04921 1.62918C4.60666 2.26583 3.59721 3.70966 3.59721 5.38503V5.46189C3.29655 5.38401 3.01851 5.22716 2.79456 5.0032ZM10.045 18.8277C9.25285 18.8277 8.58162 18.3011 8.36232 17.5797C9.04492 17.4214 9.63702 17.0243 10.045 16.4812C10.453 17.0243 11.0451 17.4214 11.7277 17.5797C11.5084 18.3011 10.8371 18.8277 10.045 18.8277ZM10.045 12.9661C9.72178 12.9661 9.45883 12.7031 9.45883 12.3799V11.7937H10.6312V12.3799C10.6312 12.7031 10.3682 12.9661 10.045 12.9661ZM16.4928 14.7245C16.4928 15.6942 15.7039 16.483 14.7343 16.483H12.3896C11.42 16.483 10.6312 15.6942 10.6312 14.7245V14.0376C11.3134 13.7956 11.8035 13.1441 11.8035 12.3799V11.2076C11.8035 10.8839 11.541 10.6214 11.2173 10.6214H8.87267C8.54895 10.6214 8.28651 10.8839 8.28651 11.2076V12.3799C8.28651 13.1441 8.77658 13.7956 9.45883 14.0376V14.7245C9.45883 15.6942 8.66997 16.483 7.70035 16.483H5.3557C4.38607 16.483 3.59721 15.6942 3.59721 14.7245V12.3799C3.59721 10.7638 4.91197 9.44909 6.52802 9.44909H13.562C15.178 9.44909 16.4928 10.7638 16.4928 12.3799V14.7245ZM18.0341 4.17425L17.2051 5.0032C17.0015 5.2068 16.7583 5.35361 16.4928 5.43728V5.38503C16.4928 3.68637 15.4552 2.22554 13.9805 1.60292C14.3003 1.32465 14.7047 1.17232 15.1327 1.17232C15.6024 1.17232 16.044 1.35525 16.3761 1.68736L18.0341 3.34526C18.2626 3.57383 18.2626 3.94569 18.0341 4.17425Z" fill="#C56C1E"/>
<path d="M7.70042 7.10444C8.02413 7.10444 8.28658 6.84199 8.28658 6.51828V5.34596C8.28658 5.02224 8.02413 4.7598 7.70042 4.7598C7.3767 4.7598 7.11426 5.02224 7.11426 5.34596V6.51828C7.11426 6.84199 7.3767 7.10444 7.70042 7.10444Z" fill="#C56C1E"/>
<path d="M12.3894 7.10444C12.7131 7.10444 12.9756 6.84199 12.9756 6.51828V5.34596C12.9756 5.02224 12.7131 4.7598 12.3894 4.7598C12.0657 4.7598 11.8032 5.02224 11.8032 5.34596V6.51828C11.8032 6.84199 12.0657 7.10444 12.3894 7.10444Z" fill="#C56C1E"/>
<path d="M5.35569 15.3106C5.67942 15.3106 5.94185 15.0481 5.94185 14.7244C5.94185 14.4007 5.67942 14.1382 5.35569 14.1382C5.03196 14.1382 4.76953 14.4007 4.76953 14.7244C4.76953 15.0481 5.03196 15.3106 5.35569 15.3106Z" fill="#C56C1E"/>
<path d="M7.70042 15.3106C8.02414 15.3106 8.28658 15.0481 8.28658 14.7244C8.28658 14.4007 8.02414 14.1382 7.70042 14.1382C7.37669 14.1382 7.11426 14.4007 7.11426 14.7244C7.11426 15.0481 7.37669 15.3106 7.70042 15.3106Z" fill="#C56C1E"/>
<path d="M6.52805 12.9661C6.85178 12.9661 7.11421 12.7036 7.11421 12.3799C7.11421 12.0562 6.85178 11.7937 6.52805 11.7937C6.20433 11.7937 5.94189 12.0562 5.94189 12.3799C5.94189 12.7036 6.20433 12.9661 6.52805 12.9661Z" fill="#C56C1E"/>
<path d="M13.5618 12.9661C13.8855 12.9661 14.1479 12.7036 14.1479 12.3799C14.1479 12.0562 13.8855 11.7937 13.5618 11.7937C13.238 11.7937 12.9756 12.0562 12.9756 12.3799C12.9756 12.7036 13.238 12.9661 13.5618 12.9661Z" fill="#C56C1E"/>
<path d="M12.3894 15.3106C12.7131 15.3106 12.9756 15.0481 12.9756 14.7244C12.9756 14.4007 12.7131 14.1382 12.3894 14.1382C12.0657 14.1382 11.8032 14.4007 11.8032 14.7244C11.8032 15.0481 12.0657 15.3106 12.3894 15.3106Z" fill="#C56C1E"/>
<path d="M14.7341 15.3106C15.0578 15.3106 15.3203 15.0481 15.3203 14.7244C15.3203 14.4007 15.0578 14.1382 14.7341 14.1382C14.4104 14.1382 14.1479 14.4007 14.1479 14.7244C14.1479 15.0481 14.4104 15.3106 14.7341 15.3106Z" fill="#C56C1E"/>
</svg>
