<svg width="20" height="20" viewBox="0 0 20 20" fill="none" xmlns="http://www.w3.org/2000/svg">
<path d="M17.0711 2.92891C15.1823 1.0402 12.6711 0 10 0C7.32891 0 4.8177 1.0402 2.92891 2.92891C1.0402 4.8177 0 7.32891 0 10C0 12.6711 1.0402 15.1823 2.92891 17.0711C4.8177 18.9598 7.32891 20 10 20C12.6711 20 15.1823 18.9598 17.0711 17.0711C18.9598 15.1823 20 12.6711 20 10C20 7.32891 18.9598 4.8177 17.0711 2.92891ZM10 18.8281C5.13215 18.8281 1.17188 14.8679 1.17188 10C1.17188 5.13215 5.13215 1.17188 10 1.17188C14.8679 1.17188 18.8281 5.13215 18.8281 10C18.8281 14.8679 14.8679 18.8281 10 18.8281Z" fill="#71C476"/>
<path d="M17.0312 9.41406H15.2407C15.1811 8.87684 15.0404 8.36379 14.8312 7.88727L16.3822 6.9918C16.6624 6.83 16.7584 6.47168 16.5966 6.19141C16.4348 5.91113 16.0765 5.81508 15.7963 5.97695L14.2438 6.87328C13.9293 6.44758 13.5524 6.07074 13.1267 5.75625L14.023 4.20371C14.1848 3.92344 14.0888 3.56508 13.8086 3.40332C13.5283 3.24141 13.17 3.33754 13.0082 3.61777L12.1127 5.16879C11.6362 4.95961 11.1232 4.81895 10.5859 4.7593V2.96875C10.5859 2.64516 10.3236 2.38281 10 2.38281C9.67641 2.38281 9.41406 2.64516 9.41406 2.96875V4.7593C8.87684 4.81895 8.36379 4.95961 7.88727 5.16879L6.9918 3.61777C6.83 3.3375 6.47168 3.24141 6.19141 3.40332C5.91117 3.56512 5.81516 3.92344 5.97695 4.20371L6.87328 5.75625C6.44758 6.07074 6.0707 6.44758 5.75625 6.87328L4.20371 5.97691C3.9234 5.815 3.56508 5.91113 3.40332 6.19137C3.24152 6.47164 3.33754 6.83 3.61777 6.99176L5.16879 7.88723C4.95961 8.36371 4.81895 8.8768 4.75926 9.41398H2.96875C2.64516 9.41398 2.38281 9.67633 2.38281 9.99992C2.38281 10.3235 2.64516 10.5859 2.96875 10.5859H4.7593C4.81895 11.1231 4.95961 11.6361 5.16883 12.1127L3.61781 13.0082C3.33758 13.17 3.24156 13.5283 3.40336 13.8086C3.51188 13.9966 3.70883 14.1017 3.91133 14.1017C4.0107 14.1017 4.11148 14.0764 4.20375 14.023L5.75625 13.1267C6.07074 13.5524 6.44758 13.9293 6.87328 14.2438L5.97695 15.7963C5.81516 16.0766 5.91117 16.4349 6.19141 16.5967C6.28371 16.65 6.38441 16.6753 6.48383 16.6753C6.68633 16.6753 6.88332 16.5702 6.9918 16.3822L7.88727 14.8312C8.36379 15.0404 8.87684 15.1811 9.41402 15.2407V17.0312C9.41402 17.3548 9.67637 17.6172 9.99996 17.6172C10.3236 17.6172 10.5859 17.3548 10.5859 17.0312V15.2407C11.1231 15.1811 11.6362 15.0404 12.1127 14.8312L13.0082 16.3822C13.1167 16.5702 13.3136 16.6753 13.5161 16.6753C13.6155 16.6753 13.7163 16.65 13.8086 16.5967C14.0888 16.4349 14.1848 16.0766 14.023 15.7963L13.1267 14.2438C13.5524 13.9293 13.9293 13.5524 14.2437 13.1267L15.7963 14.0231C15.8885 14.0764 15.9893 14.1017 16.0887 14.1017C16.2912 14.1017 16.4882 13.9966 16.5966 13.8086C16.7584 13.5284 16.6624 13.17 16.3822 13.0082L14.8312 12.1128C15.0404 11.6363 15.181 11.1232 15.2407 10.586H17.0312C17.3548 10.586 17.6172 10.3237 17.6172 10.0001C17.6172 9.67649 17.3548 9.41406 17.0312 9.41406ZM10 14.1016C7.7384 14.1016 5.89844 12.2616 5.89844 10C5.89844 7.7384 7.7384 5.89844 10 5.89844C12.2616 5.89844 14.1016 7.7384 14.1016 10C14.1016 12.2616 12.2616 14.1016 10 14.1016Z" fill="#71C476"/>
<path d="M10 7.85156C8.81535 7.85156 7.85156 8.81535 7.85156 10C7.85156 11.1846 8.81535 12.1484 10 12.1484C11.1846 12.1484 12.1484 11.1846 12.1484 10C12.1484 8.81535 11.1846 7.85156 10 7.85156ZM10 10.9766C9.46152 10.9766 9.02344 10.5385 9.02344 10C9.02344 9.46152 9.46152 9.02344 10 9.02344C10.5385 9.02344 10.9766 9.46152 10.9766 10C10.9766 10.5385 10.5385 10.9766 10 10.9766Z" fill="#71C476"/>
</svg>
