<svg width="20" height="20" viewBox="0 0 20 20" fill="none" xmlns="http://www.w3.org/2000/svg">
<g clip-path="url(#clip0_3630_4211)">
<path d="M17.0312 4.14062H16.4033C16.1181 2.15559 14.4064 0.625 12.3438 0.625H7.65625C5.59355 0.625 3.88191 2.15559 3.59672 4.14062H2.92969C1.31426 4.14062 0 5.45488 0 7.07031V16.4453C0 18.0607 1.31426 19.375 2.92969 19.375H17.0312C18.6682 19.375 20 18.0783 20 16.4844V7.07031C20 5.45086 18.651 4.14062 17.0312 4.14062ZM7.65625 1.79688H12.3438C13.7586 1.79688 14.9423 2.805 15.2145 4.14062H4.78551C5.05773 2.805 6.24145 1.79688 7.65625 1.79688ZM18.8281 16.4844C18.8281 17.4321 18.022 18.2031 17.0312 18.2031H2.92969C1.96043 18.2031 1.17188 17.4146 1.17188 16.4453V7.07031C1.17188 6.10105 1.96043 5.3125 2.92969 5.3125H17.0312C18.0053 5.3125 18.8281 6.1175 18.8281 7.07031V16.4844Z" fill="white"/>
<path d="M13.5156 10H11.7578V8.24219C11.7578 7.91859 11.4955 7.65625 11.1719 7.65625H8.82812C8.50453 7.65625 8.24219 7.91859 8.24219 8.24219V10H6.48438C6.16078 10 5.89844 10.2623 5.89844 10.5859V12.9297C5.89844 13.2533 6.16078 13.5156 6.48438 13.5156H8.24219V15.2734C8.24219 15.597 8.50453 15.8594 8.82812 15.8594H11.1719C11.4955 15.8594 11.7578 15.597 11.7578 15.2734V13.5156H13.5156C13.8392 13.5156 14.1016 13.2533 14.1016 12.9297V10.5859C14.1016 10.2623 13.8392 10 13.5156 10ZM12.9297 12.3438H11.1719C10.8483 12.3438 10.5859 12.6061 10.5859 12.9297V14.6875H9.41406V12.9297C9.41406 12.6061 9.15172 12.3438 8.82812 12.3438H7.07031V11.1719H8.82812C9.15172 11.1719 9.41406 10.9095 9.41406 10.5859V8.82812H10.5859V10.5859C10.5859 10.9095 10.8483 11.1719 11.1719 11.1719H12.9297V12.3438Z" fill="white"/>
</g>
<defs>
<clipPath id="clip0_3630_4211">
<rect width="20" height="20" fill="white"/>
</clipPath>
</defs>
</svg>
