 <svg width="20" height="20" viewBox="0 0 20 20" fill="none" xmlns="http://www.w3.org/2000/svg">
<path d="M19.961 14.4448C19.9044 13.9799 19.6563 13.5532 19.2803 13.274C18.8003 12.9177 18.1947 12.8428 17.6656 13.0297C17.2151 12.175 16.4923 11.4675 15.6709 11.0911C15.266 9.38406 13.2211 8.4932 11.6874 9.38656C9.60853 8.21022 6.77436 8.81706 5.37088 10.743C3.31859 10.4578 1.44661 12.18 1.56955 14.2506L1.48609 14.2499C0.703906 14.2282 0.0106481 14.9166 0.027144 15.6991V18.5507C0.027144 19.3498 0.677247 19.9999 1.47636 19.9999H14.6022C15.5497 19.9999 16.4338 19.577 17.0284 18.8395L19.5812 15.7446C19.8793 15.3834 20.0177 14.9096 19.961 14.4448ZM2.73748 14.087C2.71782 12.6713 4.12493 11.5873 5.48799 11.9575C5.73364 12.0207 5.9921 11.9191 6.12868 11.7053C7.19775 9.95141 9.68875 9.41971 11.3836 10.5703C11.5943 10.708 11.8692 10.696 12.067 10.5405C13.0009 9.78809 14.447 10.3901 14.5713 11.5826C14.5973 11.8079 14.7508 11.998 14.9655 12.0707C15.7033 12.3208 16.3647 12.9664 16.7185 13.7598L15.3832 15.2092L15.0999 15.5148C15.2205 14.4732 14.3819 13.5359 13.3326 13.5426H10.8909C10.7308 13.5426 10.5693 13.5069 10.4242 13.4394L9.41375 12.9696C8.92825 12.7439 8.41164 12.6069 7.87834 12.5624C6.76803 12.4696 5.63865 12.8482 4.7793 13.601L4.01411 14.2713L2.74518 14.2606C2.74033 14.2013 2.73748 14.1429 2.73748 14.087ZM18.6766 14.9985L16.1215 18.096C16.12 18.0979 16.1185 18.0998 16.117 18.1017C15.7461 18.5628 15.194 18.8272 14.6022 18.8272H1.47636C1.32387 18.8272 1.19984 18.7032 1.19984 18.5507V15.6991C1.19984 15.599 1.25101 15.5333 1.2815 15.503C1.31179 15.4729 1.37723 15.4226 1.47527 15.4226H1.47718L4.2275 15.4459C4.37057 15.4466 4.51063 15.3954 4.61883 15.3006L5.55198 14.4832C6.17343 13.9388 6.98568 13.6648 7.78073 13.731C8.1762 13.7641 8.55928 13.8657 8.91934 14.0331L9.92977 14.5029C10.2288 14.6419 10.5612 14.7154 10.8909 14.7154H13.3326C14.1357 14.7487 14.1351 15.8928 13.3326 15.9258H8.58282C7.80485 15.9568 7.80544 17.0678 8.58282 17.0985H14.9752C15.1385 17.0985 15.2943 17.0305 15.4053 16.9107L15.9357 16.3384C15.942 16.3321 15.9486 16.3263 15.9548 16.3197L17.8217 14.2931C17.8224 14.2924 17.8231 14.2916 17.8238 14.2909L17.8277 14.2866C18.0243 14.0732 18.3482 14.0427 18.5813 14.2157C18.7022 14.3054 18.7788 14.4372 18.797 14.5866C18.8152 14.7361 18.7724 14.8823 18.6766 14.9985Z" fill="#2F80ED"/>
<path d="M4.46563 8.03406C6.39276 8.06557 7.71971 5.83315 6.66514 4.23469L4.90661 1.32128C4.79899 1.14303 4.60394 1.03471 4.39676 1.038C4.18857 1.04077 3.99746 1.15378 3.89469 1.33489L2.2313 4.26561C1.23412 5.91774 2.58393 8.0667 4.46563 8.03406ZM3.25119 4.84449L4.42021 2.78477L5.6612 4.8407C6.25099 5.72796 5.45918 6.8795 4.46567 6.86137C3.46767 6.88087 2.70221 5.73507 3.25119 4.84449Z" fill="#2F80ED"/>
<path d="M9.21594 7.02368C9.58276 7.02368 9.88015 6.72632 9.88015 6.35946C9.84517 5.47842 8.58659 5.47865 8.55176 6.35946C8.55172 6.72628 8.84908 7.02368 9.21594 7.02368Z" fill="#2F80ED"/>
<path d="M10.8414 3.53191C11.2082 3.53191 11.5056 3.23455 11.5056 2.86769C11.4707 1.98664 10.2121 1.98688 10.1772 2.86769C10.1772 3.23455 10.4746 3.53191 10.8414 3.53191Z" fill="#2F80ED"/>
<path d="M17.6212 9.87868C17.2544 9.87868 16.957 10.176 16.957 10.5429C16.992 11.424 18.2506 11.4237 18.2854 10.5429C18.2855 10.1761 17.9881 9.87868 17.6212 9.87868Z" fill="#2F80ED"/>
<path d="M15.4792 5.39745C16.9711 5.39745 18.1849 4.18367 18.1849 2.69173C18.0362 -0.897769 12.9215 -0.896753 12.7734 2.69177C12.7734 4.18371 13.9872 5.39745 15.4792 5.39745ZM15.4792 1.15871C16.3245 1.15871 17.0122 1.84642 17.0122 2.69173C16.928 4.7255 14.03 4.72491 13.9461 2.69173C13.9461 1.84645 14.6338 1.15871 15.4792 1.15871Z" fill="#2F80ED"/>
</svg>
