<svg width="25" height="25" viewBox="0 0 25 25" fill="none" xmlns="http://www.w3.org/2000/svg">
<circle cx="12.5" cy="12.5" r="12.5" fill="#2FD3AE"/>
<g clip-path="url(#clip0_3701_696)">
<path d="M15.0224 7H9.97759C8.33572 7 7 8.33572 7 9.97759V15.0225C7 16.6643 8.33572 18 9.97759 18H15.0225C16.6643 18 18 16.6643 18 15.0225V9.97759C18 8.33572 16.6643 7 15.0224 7V7ZM12.5 15.5077C10.8415 15.5077 9.49227 14.1585 9.49227 12.5C9.49227 10.8415 10.8415 9.49227 12.5 9.49227C14.1585 9.49227 15.5077 10.8415 15.5077 12.5C15.5077 14.1585 14.1585 15.5077 12.5 15.5077ZM15.5796 10.2016C15.0895 10.2016 14.6909 9.80295 14.6909 9.31284C14.6909 8.82273 15.0895 8.42401 15.5796 8.42401C16.0697 8.42401 16.4685 8.82273 16.4685 9.31284C16.4685 9.80295 16.0697 10.2016 15.5796 10.2016Z" fill="white"/>
<path d="M12.54 10.54C11.4373 10.54 10.54 11.4372 10.54 12.54C10.54 13.6428 11.4373 14.54 12.54 14.54C13.6429 14.54 14.54 13.6428 14.54 12.54C14.54 11.4372 13.6429 10.54 12.54 10.54Z" fill="white"/>
<path d="M15.5798 9.06897C15.4454 9.06897 15.3359 9.17841 15.3359 9.31285C15.3359 9.4473 15.4454 9.55673 15.5798 9.55673C15.7143 9.55673 15.8238 9.44738 15.8238 9.31285C15.8238 9.17832 15.7143 9.06897 15.5798 9.06897Z" fill="white"/>
</g>
<defs>
<clipPath id="clip0_3701_696">
<rect width="11" height="11" fill="white" transform="translate(7 7)"/>
</clipPath>
</defs>
</svg>
