<svg width="25" height="25" viewBox="0 0 25 25" fill="none" xmlns="http://www.w3.org/2000/svg">
<circle cx="12.5" cy="12.5" r="12.5" fill="#2FD3AE"/>
<path d="M18.6289 15.697C18.6289 15.6451 18.5771 15.6451 18.5771 15.5933C18.3695 15.1781 17.9025 14.6593 17.2798 14.0885C16.9685 13.829 16.8128 13.6215 16.709 13.5177C16.5534 13.3101 16.5534 13.1545 16.6053 12.9469C16.6572 12.7912 16.8647 12.5318 17.2279 12.0648C17.4355 11.8053 17.5393 11.6497 17.6949 11.494C18.4733 10.4562 18.8365 9.78165 18.7327 9.47031L18.6808 9.41843C18.6289 9.36654 18.577 9.31465 18.4733 9.31465C18.3695 9.26276 18.2138 9.26276 18.0582 9.31465H16.0864C16.0345 9.31465 16.0345 9.31465 15.9307 9.31465C15.8788 9.31465 15.8269 9.31465 15.8269 9.31465H15.775H15.7231L15.6712 9.36654C15.6194 9.41843 15.6194 9.41842 15.6194 9.47031C15.4118 10.0411 15.1524 10.5081 14.8929 11.027C14.7372 11.2864 14.5816 11.5459 14.4259 11.7534C14.2702 11.961 14.1665 12.1167 14.0627 12.2205C13.9589 12.3242 13.8551 12.3761 13.8032 12.4799C13.7513 12.5318 13.6476 12.5837 13.6476 12.5318C13.5957 12.5318 13.5438 12.5318 13.5438 12.4799C13.4919 12.428 13.44 12.3761 13.3881 12.3242C13.3362 12.2723 13.3362 12.1686 13.2843 12.0648C13.2843 11.961 13.2843 11.8572 13.2843 11.8053C13.2843 11.7534 13.2843 11.5978 13.2843 11.494C13.2843 11.3383 13.2843 11.2346 13.2843 11.1827C13.2843 11.027 13.2843 10.8194 13.2843 10.6119C13.2843 10.4043 13.2843 10.2487 13.2843 10.1449C13.2843 10.0411 13.2843 9.88543 13.2843 9.78165C13.2843 9.62599 13.2843 9.5222 13.2843 9.47031C13.2843 9.41842 13.2325 9.31465 13.2325 9.26276C13.1806 9.21087 13.1287 9.15898 13.0768 9.10709C13.0249 9.0552 12.9211 9.0552 12.8692 9.00331C12.6098 8.95142 12.2984 8.89954 11.9352 8.89954C11.105 8.89954 10.5342 8.95143 10.3267 9.05521C10.2229 9.1071 10.1191 9.15898 10.0672 9.26276C9.96343 9.36654 9.96342 9.41843 10.0153 9.41843C10.2748 9.47032 10.4823 9.57409 10.5861 9.72976L10.638 9.83355C10.6899 9.88543 10.6899 9.98921 10.7418 10.1449C10.7936 10.3005 10.7937 10.4562 10.7937 10.6638C10.7937 10.9751 10.7937 11.2864 10.7937 11.494C10.7937 11.7534 10.7418 11.9091 10.7418 12.0648C10.7418 12.2204 10.6899 12.3242 10.638 12.3761C10.5861 12.4799 10.5861 12.5318 10.5342 12.5318C10.5342 12.5318 10.5342 12.5837 10.4823 12.5837C10.4304 12.5837 10.3785 12.6356 10.2748 12.6356C10.2229 12.6356 10.1191 12.5837 10.0672 12.5318C9.96343 12.4799 9.85965 12.3761 9.80776 12.2723C9.70398 12.1686 9.6002 12.0129 9.49642 11.8053C9.39264 11.5978 9.23697 11.3902 9.13319 11.0789L9.02942 10.8713C8.97753 10.7676 8.87375 10.56 8.76997 10.3005C8.66619 10.0411 8.56241 9.83355 8.45863 9.5741C8.40674 9.47032 8.35486 9.41843 8.30297 9.36654H8.25108C8.25108 9.36654 8.19918 9.31465 8.14729 9.31465C8.0954 9.31465 8.04352 9.26276 7.99163 9.26276H6.12361C5.91605 9.26276 5.81228 9.31465 5.76039 9.36654L5.7085 9.41843C5.7085 9.41843 5.7085 9.47032 5.7085 9.52221C5.7085 9.5741 5.7085 9.62598 5.76039 9.72976C6.01984 10.3524 6.33117 10.9751 6.64251 11.5978C6.95384 12.1686 7.26518 12.6875 7.47274 13.0507C7.73218 13.4139 7.93974 13.7771 8.19919 14.0885C8.45863 14.3998 8.6143 14.6074 8.66619 14.7111C8.76996 14.8149 8.82185 14.8668 8.87374 14.9187L9.02942 15.0744C9.1332 15.1781 9.28886 15.3338 9.49642 15.4895C9.70398 15.6451 9.96342 15.8008 10.2229 15.9565C10.4823 16.1121 10.7937 16.2159 11.105 16.3197C11.4682 16.4235 11.7795 16.4754 12.0909 16.4235H12.8692C13.0249 16.4235 13.1287 16.3716 13.2325 16.2678L13.2843 16.2159C13.2843 16.164 13.3362 16.164 13.3362 16.1121C13.3362 16.0603 13.3362 16.0084 13.3362 15.9046C13.3362 15.697 13.3362 15.5414 13.3881 15.3857C13.44 15.23 13.44 15.1263 13.4919 15.0225C13.5438 14.9187 13.5957 14.8668 13.6476 14.8149C13.6995 14.763 13.7514 14.7111 13.7514 14.7111H13.8032C13.907 14.6593 14.0627 14.7111 14.1665 14.8149C14.3221 14.9187 14.4778 15.0744 14.5816 15.23C14.6853 15.3857 14.841 15.5414 15.0486 15.7489C15.2561 15.9565 15.4118 16.1122 15.5156 16.164L15.6712 16.2678C15.775 16.3197 15.8788 16.3716 16.0345 16.4235C16.1901 16.4754 16.2939 16.4754 16.3977 16.4754L18.1619 16.4235C18.3176 16.4235 18.4733 16.3716 18.5771 16.3197C18.6808 16.2678 18.7327 16.2159 18.7327 16.1121C18.7327 16.0603 18.7327 15.9565 18.7327 15.9046C18.6289 15.8008 18.6289 15.7489 18.6289 15.697Z" fill="white"/>
</svg>
