<svg width="50" height="50" viewBox="0 0 50 50" fill="none" xmlns="http://www.w3.org/2000/svg">
<path d="M26.2232 14.3349C19.6575 14.3349 14.3349 19.6575 14.3349 26.2232L14.3349 39.3062C14.3349 45.2122 19.1226 50 25.0287 50C30.9347 50 35.7225 45.2122 35.7225 39.3062L35.7225 37.0204C35.7225 36.3036 36.3036 35.7225 37.0204 35.7225L39.3062 35.7225C45.2122 35.7225 50 30.9347 50 25.0287C50 19.1226 45.2122 14.3349 39.3062 14.3349L26.2232 14.3349Z" fill="#2FD3AE"/>
<path fill-rule="evenodd" clip-rule="evenodd" d="M24.9713 0C30.8774 0 35.6651 4.78778 35.6651 10.6938V29.7209C35.6651 33.0038 33.0038 35.6651 29.7209 35.6651H10.6938C4.78778 35.6651 0 30.8774 0 24.9713C0 19.0653 4.78778 14.2775 10.6938 14.2775H12.9796C13.6964 14.2775 14.2775 13.6964 14.2775 12.9796V10.6938C14.2775 4.78778 19.0653 0 24.9713 0ZM29.8738 12.4427C27.0454 9.20172 25.1518 8.03865 21.1009 7.39679C21.1009 7.39679 24.2546 4.3578 27.6949 6.59404C31.1353 8.83027 29.8738 12.4427 29.8738 12.4427Z" fill="#011D71"/>
</svg>
