<svg width="18" height="18" viewBox="0 0 18 18" fill="none" xmlns="http://www.w3.org/2000/svg">
<path d="M-7.99636e-07 6.93746C-7.64685e-07 7.3882 0.179261 7.80821 0.48825 8.11797C0.137988 8.50121 -0.0405013 9.01498 0.00826013 9.54971C0.0960116 10.503 0.954772 11.25 1.96425 11.25L6.597 11.25C6.3675 11.9467 6.00001 13.224 6.00001 14.25C6.00001 15.8767 7.38225 17.2499 8.25001 17.2499C9.02851 17.2499 9.58577 16.8112 9.60901 16.7932C9.69827 16.7219 9.75002 16.6139 9.75002 16.5L9.75002 13.9567L11.9108 9.27746L12 9.23172L12 9.37498C12 9.58198 12.168 9.74999 12.375 9.74999L16.125 9.74999C17.1592 9.74996 18 8.9092 18 7.87497L18 1.87496C18 0.840696 17.1592 -3.04347e-05 16.125 -3.03328e-05L13.875 -3.0111e-05C13.0643 -3.00311e-05 12.3713 0.51747 12.1103 1.23972C11.4862 0.918709 10.6463 0.749959 10.125 0.749959L3.24074 0.749959C2.42399 0.74996 1.70923 1.30047 1.54125 2.05946C1.45501 2.45096 1.50525 2.84471 1.67625 3.18671C1.12275 3.46497 0.749988 4.03721 0.749988 4.68746C0.749988 4.95296 0.810739 5.20721 0.925489 5.43671C0.371987 5.71571 -8.50056e-07 6.28721 -7.99636e-07 6.93746ZM1.58175 6.01197C1.72649 5.99471 1.84876 5.89648 1.89524 5.75772C1.94098 5.61896 1.90272 5.46673 1.79624 5.36622C1.60573 5.18696 1.49997 4.94547 1.49997 4.68746C1.49997 4.21422 1.85773 3.81671 2.33096 3.76197C2.4757 3.74471 2.59798 3.64648 2.64445 3.50772C2.69019 3.36896 2.65194 3.21673 2.54545 3.11622C2.29869 2.88373 2.19969 2.55748 2.27394 2.22146C2.36619 1.80296 2.7727 1.49995 3.2407 1.49995L10.125 1.49995C10.734 1.49995 11.7555 1.7857 12.1095 2.14046C12.2168 2.24695 12.3788 2.27845 12.5183 2.22146C12.6585 2.1637 12.75 2.02645 12.75 1.87496C12.75 1.2547 13.2547 0.749959 13.875 0.749958L16.125 0.749958C16.7453 0.749958 17.25 1.2547 17.25 1.87496L17.25 7.87497C17.25 8.49523 16.7453 8.99997 16.125 8.99997L12.75 8.99997L12.75 8.62496C12.75 8.4952 12.6825 8.37447 12.5715 8.30546C12.462 8.23947 12.324 8.23272 12.207 8.28971L11.457 8.66472C11.3813 8.70223 11.3205 8.76523 11.2845 8.84247L9.03452 13.7175C9.01202 13.767 9.00004 13.821 9.00004 13.875L9.00004 16.2967C8.84401 16.383 8.57324 16.5 8.25001 16.5C7.839 16.5 6.75 15.4785 6.75 14.25C6.75 12.9299 7.46849 11.0272 7.47524 11.0084C7.51873 10.8937 7.50375 10.7639 7.434 10.6619C7.36351 10.5607 7.24799 10.4999 7.12501 10.4999L1.96425 10.4999C1.33875 10.4999 0.80775 10.0522 0.755262 9.4807C0.715499 9.0532 0.921022 8.64669 1.28925 8.41944C1.404 8.34895 1.47224 8.22144 1.467 8.0857C1.46176 7.94996 1.38375 7.82846 1.26376 7.7662C0.946511 7.60494 0.750024 7.28695 0.750024 6.93746C0.749988 6.46422 1.10774 6.06671 1.58175 6.01197Z" fill="#D9D9D9"/>
<path d="M12.375 9.00007C12.582 9.00007 12.75 8.83206 12.75 8.62506L12.75 1.87504C12.75 1.66804 12.582 1.50003 12.375 1.50003C12.168 1.50003 12 1.66804 12 1.87504L12 8.62506C12 8.83206 12.168 9.00007 12.375 9.00007Z" fill="#D9D9D9"/>
</svg>
