<svg width="29" height="29" viewBox="0 0 29 29" fill="none" xmlns="http://www.w3.org/2000/svg">
<circle cx="14.5" cy="14.5" r="14" stroke="#E0E0E0"/>
<g clip-path="url(#clip0_3630_4271)">
<path d="M17.0224 9H11.9776C10.3357 9 9 10.3357 9 11.9776V17.0225C9 18.6643 10.3357 20 11.9776 20H17.0225C18.6643 20 20 18.6643 20 17.0225V11.9776C20 10.3357 18.6643 9 17.0224 9V9ZM14.5 17.5077C12.8415 17.5077 11.4923 16.1585 11.4923 14.5C11.4923 12.8415 12.8415 11.4923 14.5 11.4923C16.1585 11.4923 17.5077 12.8415 17.5077 14.5C17.5077 16.1585 16.1585 17.5077 14.5 17.5077ZM17.5796 12.2016C17.0895 12.2016 16.6909 11.803 16.6909 11.3128C16.6909 10.8227 17.0895 10.424 17.5796 10.424C18.0697 10.424 18.4685 10.8227 18.4685 11.3128C18.4685 11.803 18.0697 12.2016 17.5796 12.2016Z" fill="#2FD3AE"/>
<path d="M14.54 12.54C13.4373 12.54 12.54 13.4372 12.54 14.54C12.54 15.6428 13.4373 16.54 14.54 16.54C15.6429 16.54 16.54 15.6428 16.54 14.54C16.54 13.4372 15.6429 12.54 14.54 12.54Z" fill="#2FD3AE"/>
<path d="M17.5796 11.069C17.4451 11.069 17.3357 11.1784 17.3357 11.3129C17.3357 11.4473 17.4451 11.5567 17.5796 11.5567C17.7141 11.5567 17.8235 11.4474 17.8235 11.3129C17.8235 11.1783 17.7141 11.069 17.5796 11.069Z" fill="#2FD3AE"/>
</g>
<defs>
<clipPath id="clip0_3630_4271">
<rect width="11" height="11" fill="white" transform="translate(9 9)"/>
</clipPath>
</defs>
</svg>
