<svg width="20" height="20" viewBox="0 0 20 20" fill="none" xmlns="http://www.w3.org/2000/svg">
<path d="M6.44531 8.10395C6.12258 7.81453 5.71012 7.65625 5.27344 7.65625C4.80402 7.65625 4.36262 7.83914 4.03059 8.17121C3.34527 8.85652 3.34527 9.97164 4.03059 10.657L6.03102 12.6574C6.14543 12.7718 6.29539 12.829 6.44531 12.829C6.59523 12.829 6.74523 12.7718 6.85961 12.6574L8.86004 10.657C9.54535 9.97164 9.54535 8.85652 8.86004 8.17121C8.52801 7.83914 8.0866 7.65625 7.61719 7.65625C7.18051 7.65625 6.76805 7.81453 6.44531 8.10395ZM8.03141 9.82828L6.44531 11.4144L4.85922 9.82828C4.63012 9.59914 4.63012 9.22895 4.85922 8.9998C4.97344 8.88563 5.12344 8.82852 5.27344 8.82852C5.42344 8.82852 5.57348 8.88563 5.68766 8.9998L6.03098 9.34313C6.25977 9.57195 6.63078 9.57195 6.85961 9.34313L7.20293 8.9998C7.43137 8.77141 7.80297 8.77141 8.03141 8.9998C8.26051 9.22895 8.26055 9.59914 8.03141 9.82828Z" fill="white"/>
<path d="M8.78906 0H4.10156C3.77797 0 3.51562 0.262344 3.51562 0.585938V4.78551C2.18 5.05773 1.17188 6.24145 1.17188 7.65625V9.41406H0.585938C0.262344 9.41406 0 9.67641 0 10C0 10.3236 0.262344 10.5859 0.585938 10.5859H1.17188V12.3438C1.17188 13.7586 2.18 14.9423 3.51562 15.2145V19.4141C3.51562 19.7377 3.77797 20 4.10156 20H8.78906C9.11266 20 9.375 19.7377 9.375 19.4141V15.2145C10.7106 14.9423 11.7188 13.7586 11.7188 12.3438V7.65625C11.7188 6.24145 10.7106 5.05773 9.375 4.78551V0.585938C9.375 0.262344 9.11266 0 8.78906 0ZM8.20312 1.17188V4.72656H4.6875V1.17188H8.20312ZM4.6875 18.8281V15.2734H8.20312V18.8281H4.6875ZM10.5469 7.65625V12.3438C10.5469 13.313 9.75832 14.1016 8.78906 14.1016H4.10156C3.1323 14.1016 2.34375 13.313 2.34375 12.3438V7.65625C2.34375 6.68699 3.1323 5.89844 4.10156 5.89844H8.78906C9.75832 5.89844 10.5469 6.68699 10.5469 7.65625Z" fill="white"/>
<path d="M19.4141 9.41407H18.2031C17.9812 9.41407 17.7783 9.53946 17.679 9.73798L17.2155 10.665L16.4278 7.51415C16.3683 7.2763 16.167 7.1006 15.9232 7.07384C15.6796 7.04716 15.4449 7.17493 15.3352 7.39427L14.3254 9.41407H13.4766C13.153 9.41407 12.8906 9.67641 12.8906 10C12.8906 10.3236 13.153 10.5859 13.4766 10.5859H14.6875C14.9095 10.5859 15.1123 10.4606 15.2116 10.262L15.6751 9.33501L16.4629 12.4859C16.5282 12.7472 16.7629 12.9297 17.0315 12.9297C17.2515 12.9297 17.4554 12.8057 17.5554 12.6058L18.5653 10.5859H19.4141C19.7377 10.5859 20 10.3236 20 10C20 9.67641 19.7377 9.41407 19.4141 9.41407Z" fill="white"/>
</svg>
