<svg width="20" height="20" viewBox="0 0 20 20" fill="none" xmlns="http://www.w3.org/2000/svg">
<path d="M18.2422 2.38281H1.75781C0.788555 2.38281 0 3.17137 0 4.14062V15.8594C0 16.8286 0.788555 17.6172 1.75781 17.6172H18.2422C19.2114 17.6172 20 16.8286 20 15.8594V4.14062C20 3.17137 19.2114 2.38281 18.2422 2.38281ZM18.8281 15.8594C18.8281 16.1825 18.5653 16.4453 18.2422 16.4453H1.75781C1.43473 16.4453 1.17188 16.1825 1.17188 15.8594V4.14062C1.17188 3.81754 1.43473 3.55469 1.75781 3.55469H18.2422C18.5653 3.55469 18.8281 3.81754 18.8281 4.14062V15.8594Z" fill="#BB6BD9"/>
<path d="M4.10156 8.24219C5.07082 8.24219 5.85938 7.45363 5.85938 6.48438C5.85938 5.51512 5.07082 4.72656 4.10156 4.72656C3.1323 4.72656 2.34375 5.51512 2.34375 6.48438C2.34375 7.45363 3.1323 8.24219 4.10156 8.24219ZM4.10156 5.89844C4.42465 5.89844 4.6875 6.16129 4.6875 6.48438C4.6875 6.80746 4.42465 7.07031 4.10156 7.07031C3.77848 7.07031 3.51562 6.80746 3.51562 6.48438C3.51562 6.16129 3.77848 5.89844 4.10156 5.89844Z" fill="#BB6BD9"/>
<path d="M4.10156 11.7578C3.1323 11.7578 2.34375 12.5464 2.34375 13.5156C2.34375 14.4849 3.1323 15.2734 4.10156 15.2734C5.07082 15.2734 5.85938 14.4849 5.85938 13.5156C5.85938 12.5464 5.07082 11.7578 4.10156 11.7578ZM4.10156 14.1016C3.77848 14.1016 3.51562 13.8387 3.51562 13.5156C3.51562 13.1925 3.77848 12.9297 4.10156 12.9297C4.42465 12.9297 4.6875 13.1925 4.6875 13.5156C4.6875 13.8387 4.42465 14.1016 4.10156 14.1016Z" fill="#BB6BD9"/>
<path d="M10 11.7578C9.03074 11.7578 8.24219 12.5464 8.24219 13.5156C8.24219 14.4849 9.03074 15.2734 10 15.2734C10.9693 15.2734 11.7578 14.4849 11.7578 13.5156C11.7578 12.5464 10.9693 11.7578 10 11.7578ZM10 14.1016C9.67691 14.1016 9.41406 13.8387 9.41406 13.5156C9.41406 13.1925 9.67691 12.9297 10 12.9297C10.3231 12.9297 10.5859 13.1925 10.5859 13.5156C10.5859 13.8387 10.3231 14.1016 10 14.1016Z" fill="#BB6BD9"/>
<path d="M10 8.24219C10.9693 8.24219 11.7578 7.45363 11.7578 6.48438C11.7578 5.51512 10.9693 4.72656 10 4.72656C9.03074 4.72656 8.24219 5.51512 8.24219 6.48438C8.24219 7.45363 9.03074 8.24219 10 8.24219ZM10 5.89844C10.3231 5.89844 10.5859 6.16129 10.5859 6.48438C10.5859 6.80746 10.3231 7.07031 10 7.07031C9.67691 7.07031 9.41406 6.80746 9.41406 6.48438C9.41406 6.16129 9.67691 5.89844 10 5.89844Z" fill="#BB6BD9"/>
<path d="M15.8984 4.72656C14.9292 4.72656 14.1406 5.51512 14.1406 6.48438C14.1406 7.45363 14.9292 8.24219 15.8984 8.24219C16.8677 8.24219 17.6562 7.45363 17.6562 6.48438C17.6562 5.51512 16.8677 4.72656 15.8984 4.72656ZM15.8984 7.07031C15.5754 7.07031 15.3125 6.80746 15.3125 6.48438C15.3125 6.16129 15.5754 5.89844 15.8984 5.89844C16.2215 5.89844 16.4844 6.16129 16.4844 6.48438C16.4844 6.80746 16.2215 7.07031 15.8984 7.07031Z" fill="#BB6BD9"/>
<path d="M15.8984 11.7578C14.9292 11.7578 14.1406 12.5464 14.1406 13.5156C14.1406 14.4849 14.9292 15.2734 15.8984 15.2734C16.8677 15.2734 17.6562 14.4849 17.6562 13.5156C17.6562 12.5464 16.8677 11.7578 15.8984 11.7578ZM15.8984 14.1016C15.5754 14.1016 15.3125 13.8387 15.3125 13.5156C15.3125 13.1925 15.5754 12.9297 15.8984 12.9297C16.2215 12.9297 16.4844 13.1925 16.4844 13.5156C16.4844 13.8387 16.2215 14.1016 15.8984 14.1016Z" fill="#BB6BD9"/>
<path d="M17.0703 9.41406H2.92969C2.60609 9.41406 2.34375 9.67641 2.34375 10C2.34375 10.3236 2.60609 10.5859 2.92969 10.5859H17.0703C17.3939 10.5859 17.6562 10.3236 17.6562 10C17.6562 9.67641 17.3939 9.41406 17.0703 9.41406Z" fill="#BB6BD9"/>
</svg>
