<svg width="20" height="20" viewBox="0 0 20 20" fill="none" xmlns="http://www.w3.org/2000/svg">
<g clip-path="url(#clip0_3630_4173)">
<path d="M19.9608 14.4449C19.9042 13.98 19.6561 13.5533 19.2801 13.2742C18.8 12.9179 18.1944 12.843 17.6653 13.0298C17.2149 12.1751 16.492 11.4677 15.6707 11.0913C15.2657 9.3842 13.2209 8.49334 11.6872 9.3867C9.60829 8.21037 6.77412 8.8172 5.37064 10.7432C3.31834 10.458 1.44637 12.1801 1.56931 14.2508L1.48585 14.2501C0.703662 14.2283 0.0104039 14.9168 0.0268999 15.6993V18.5508C0.0268999 19.3499 0.677003 20 1.47612 20H14.6019C15.5495 20 16.4335 19.5772 17.0281 18.8396L19.581 15.7448C19.879 15.3836 20.0174 14.9098 19.9608 14.4449ZM2.73723 14.0871C2.71757 12.6715 4.12469 11.5874 5.48775 11.9576C5.73339 12.0209 5.99185 11.9192 6.12843 11.7054C7.1975 9.95155 9.6885 9.41985 11.3834 10.5705C11.594 10.7082 11.8689 10.6962 12.0668 10.5406C13.0006 9.78823 14.4467 10.3902 14.571 11.5828C14.597 11.808 14.7506 11.9981 14.9653 12.0709C15.7031 12.321 16.3645 12.9666 16.7182 13.7599L15.383 15.2093L15.0997 15.515C15.2202 14.4734 14.3817 13.5361 13.3324 13.5427H10.8907C10.7305 13.5427 10.5691 13.5071 10.4239 13.4395L9.4135 12.9698C8.92801 12.7441 8.4114 12.607 7.87809 12.5625C6.76779 12.4697 5.6384 12.8484 4.77905 13.6011L4.01387 14.2714L2.74493 14.2607C2.74009 14.2014 2.73723 14.143 2.73723 14.0871ZM18.6764 14.9986L16.1213 18.0962C16.1198 18.0981 16.1182 18.0999 16.1167 18.1018C15.7459 18.5629 15.1938 18.8274 14.602 18.8274H1.47612C1.32363 18.8274 1.19959 18.7034 1.19959 18.5509V15.6993C1.19959 15.5991 1.25076 15.5334 1.28125 15.5031C1.31155 15.473 1.37698 15.4228 1.47502 15.4228H1.47694L4.22726 15.446C4.37033 15.4467 4.51039 15.3955 4.61859 15.3008L5.55174 14.4833C6.17319 13.939 6.98544 13.6649 7.78049 13.7312C8.17596 13.7642 8.55904 13.8659 8.9191 14.0332L9.92953 14.503C10.2285 14.642 10.5609 14.7155 10.8907 14.7155H13.3324C14.1355 14.7489 14.1349 15.8929 13.3324 15.926H8.58257C7.8046 15.957 7.80519 17.068 8.58257 17.0987H14.975C15.1382 17.0987 15.2941 17.0306 15.405 16.9109L15.9354 16.3386C15.9417 16.3323 15.9484 16.3265 15.9545 16.3198L17.8215 14.2933C17.8222 14.2925 17.8228 14.2918 17.8235 14.291L17.8275 14.2868C18.0241 14.0734 18.348 14.0428 18.581 14.2158C18.702 14.3056 18.7785 14.4373 18.7967 14.5868C18.8149 14.7362 18.7722 14.8824 18.6764 14.9986Z" fill="white"/>
<path d="M4.46563 8.03407C6.39276 8.06558 7.71971 5.83316 6.66514 4.23469L4.90661 1.32129C4.79899 1.14304 4.60393 1.03472 4.39676 1.03801C4.18857 1.04078 3.99746 1.15379 3.89469 1.33489L2.2313 4.26561C1.23412 5.91775 2.58393 8.06671 4.46563 8.03407ZM3.25119 4.8445L4.42021 2.78477L5.6612 4.8407C6.25098 5.72796 5.45918 6.87951 4.46567 6.86137C3.46767 6.88088 2.70221 5.73508 3.25119 4.8445Z" fill="white"/>
<path d="M9.21569 7.02355C9.58251 7.02355 9.87991 6.72619 9.87991 6.35933C9.84492 5.47829 8.58634 5.47852 8.55151 6.35933C8.55147 6.72615 8.84883 7.02355 9.21569 7.02355Z" fill="white"/>
<path d="M10.8409 3.53192C11.2078 3.53192 11.5052 3.23456 11.5052 2.8677C11.4702 1.98665 10.2116 1.98689 10.1768 2.8677C10.1767 3.23456 10.4741 3.53192 10.8409 3.53192Z" fill="white"/>
<path d="M17.621 9.87869C17.2542 9.87869 16.9568 10.1761 16.9568 10.5429C16.9918 11.424 18.2504 11.4237 18.2852 10.5429C18.2852 10.1761 17.9878 9.87869 17.621 9.87869Z" fill="white"/>
<path d="M15.4789 5.39746C16.9708 5.39746 18.1846 4.18368 18.1846 2.69174C18.036 -0.897762 12.9213 -0.896745 12.7732 2.69178C12.7732 4.18372 13.987 5.39746 15.4789 5.39746ZM15.4789 1.15872C16.3242 1.15872 17.0119 1.84642 17.0119 2.69174C16.9277 4.72551 14.0298 4.72492 13.9459 2.69174C13.9459 1.84646 14.6336 1.15872 15.4789 1.15872Z" fill="white"/>
</g>
<defs>
<clipPath id="clip0_3630_4173">
<rect width="20" height="20" fill="white"/>
</clipPath>
</defs>
</svg>
