<svg width="20" height="20" viewBox="0 0 20 20" fill="none" xmlns="http://www.w3.org/2000/svg">
<g clip-path="url(#clip0_3630_4190)">
<path d="M11.6445 18.7218C11.4443 18.6415 11.2168 18.7387 11.1365 18.939C11.0695 19.1063 10.8994 19.2188 10.7134 19.2188H9.28633C9.10032 19.2188 8.93024 19.1063 8.86317 18.939C8.7829 18.7387 8.55551 18.6417 8.35524 18.7218C8.15501 18.8021 8.05774 19.0295 8.13801 19.2297C8.32563 19.6977 8.77633 20 9.28633 20H10.7134C11.2234 20 11.6741 19.6977 11.8616 19.2297C11.942 19.0295 11.8447 18.8021 11.6445 18.7218Z" fill="white"/>
<path d="M16.2319 16.7095C16.1258 16.1624 15.7888 15.6888 15.307 15.4091C15.3946 15.3376 15.4768 15.2584 15.5518 15.1713C15.9218 14.7415 16.0856 14.1733 16.0012 13.6126C15.8641 12.7015 15.4763 11.8502 14.8798 11.1507C14.4332 10.627 13.8842 10.205 13.2698 9.9084C14.0217 9.10629 14.4829 8.02855 14.4829 6.845C14.4829 4.7968 13.1022 3.06496 11.2226 2.53141C11.4786 2.22574 11.6183 1.84387 11.6183 1.44035C11.6183 0.646133 10.9722 0 10.178 0C10.1779 0 10.1779 0 10.1779 0C9.85728 0 9.557 0.104258 9.33243 0.293516C9.08423 0.502656 8.94755 0.796601 8.94751 1.12117C8.94751 1.33687 9.12239 1.5118 9.33814 1.5118C9.55384 1.5118 9.72876 1.33691 9.72876 1.12117C9.72876 1.02824 9.76478 0.950781 9.83587 0.890859C9.91978 0.820156 10.0412 0.781211 10.1779 0.781211H10.1779C10.5414 0.781211 10.8371 1.07684 10.8371 1.44027C10.8371 1.68645 10.7412 1.91785 10.5672 2.09191C10.3931 2.26594 10.1617 2.3618 9.91564 2.3618C9.9156 2.3618 9.9156 2.3618 9.91556 2.3618C9.90599 2.3618 9.89661 2.36254 9.88724 2.36324C7.46708 2.42324 5.51673 4.41062 5.51669 6.84496C5.51669 8.02851 5.97794 9.10625 6.72985 9.90836C6.11548 10.2049 5.56649 10.6269 5.11985 11.1507C4.52333 11.8502 4.13555 12.7014 3.99844 13.6125C3.91407 14.1733 4.07786 14.7414 4.44782 15.1712C4.52282 15.2584 4.60501 15.3376 4.69262 15.4091C4.21087 15.6888 3.8738 16.1624 3.76774 16.7094C3.66137 17.2578 3.79786 17.8248 4.14212 18.2647L4.97864 19.3337C5.31661 19.7655 5.83001 19.9978 6.35075 19.9978C6.64638 19.9978 6.94442 19.9229 7.21403 19.7673C7.9586 19.3374 8.27767 18.4119 7.95622 17.6146L7.44876 16.3557C7.41485 16.2716 7.37477 16.1909 7.33005 16.1134H10.1951C10.4109 16.1134 10.5858 15.9385 10.5858 15.7228C10.5858 15.5071 10.4109 15.3321 10.1951 15.3321H6.58747V14.5087C6.58747 14.4026 6.67372 14.3164 6.77977 14.3164H13.2199C13.3259 14.3164 13.4122 14.4026 13.4122 14.5087V15.3862C13.0246 15.5986 12.7186 15.9394 12.5508 16.3557L12.0434 17.6145C11.7219 18.4119 12.041 19.3374 12.7856 19.7673C13.0552 19.9229 13.3531 19.9978 13.6488 19.9978C14.1695 19.9978 14.683 19.7655 15.021 19.3337L15.8575 18.2647C16.2018 17.8248 16.3383 17.2579 16.2319 16.7095ZM6.2979 6.845C6.29794 4.80379 7.95864 3.14312 9.99981 3.14309C12.041 3.14312 13.7017 4.80379 13.7017 6.845C13.7017 8.88621 12.0411 10.5469 9.99981 10.5469C7.9586 10.5469 6.2979 8.88621 6.2979 6.845ZM6.72427 16.6478L7.23173 17.9067C7.40848 18.3453 7.23294 18.8543 6.82345 19.0907C6.41399 19.3272 5.88536 19.2247 5.59391 18.8523L4.75739 17.7833C4.55258 17.5216 4.47141 17.1845 4.53469 16.8582C4.59798 16.532 4.79934 16.2495 5.08715 16.0834C5.37493 15.9172 5.7202 15.8841 6.03438 15.9923C6.34856 16.1007 6.60001 16.3396 6.72427 16.6478ZM13.2225 12.7539C13.0067 12.7539 12.8318 12.9288 12.8318 13.1445V13.5352H7.17036V13.1445C7.17036 12.9288 6.99548 12.7539 6.77973 12.7539C6.56399 12.7539 6.38911 12.9288 6.38911 13.1445V13.6172C6.04626 13.768 5.80618 14.1108 5.80618 14.5087V15.0603C5.51036 15.0307 5.23587 14.8893 5.03989 14.6616C4.81852 14.4044 4.72051 14.0644 4.77098 13.7288C4.99462 12.2423 5.98571 11.0142 7.37708 10.4786C8.11505 11.0127 9.02122 11.3281 9.99981 11.3281C10.9784 11.3281 11.8846 11.0127 12.6226 10.4786C14.0139 11.0142 15.005 12.2423 15.2286 13.7288C15.2791 14.0644 15.1811 14.4044 14.9597 14.6616C14.7638 14.8893 14.4892 15.0307 14.1934 15.0603V14.5087C14.1934 14.1118 13.9545 13.7698 13.6131 13.6184V13.1445C13.6131 12.9288 13.4382 12.7539 13.2225 12.7539ZM15.2422 17.7833L14.4058 18.8522C14.1143 19.2246 13.5858 19.3271 13.1762 19.0907C12.7667 18.8543 12.5912 18.3452 12.768 17.9066L13.2754 16.6477C13.3997 16.3395 13.6511 16.1006 13.9653 15.9923C14.087 15.9504 14.2133 15.9296 14.3392 15.9296C14.5383 15.9296 14.7362 15.9815 14.9126 16.0833C15.2004 16.2495 15.4017 16.5319 15.465 16.8582C15.5282 17.1844 15.447 17.5216 15.2422 17.7833Z" fill="white"/>
<path d="M12.0232 15.4465C11.9506 15.3738 11.8498 15.332 11.7471 15.332C11.6443 15.332 11.5436 15.3738 11.4709 15.4465C11.3982 15.5192 11.3564 15.6199 11.3564 15.7227C11.3564 15.8258 11.3982 15.9262 11.4709 15.9988C11.5436 16.0718 11.6443 16.1133 11.7471 16.1133C11.8498 16.1133 11.9506 16.0718 12.0232 15.9988C12.0959 15.9262 12.1377 15.8254 12.1377 15.7227C12.1377 15.6199 12.0959 15.5191 12.0232 15.4465Z" fill="white"/>
<path d="M11.0769 8.17896C10.9093 8.0431 10.6634 8.06892 10.5275 8.23646C10.3977 8.39661 10.2054 8.48845 9.99996 8.48845C9.79453 8.48845 9.60219 8.39658 9.47242 8.23646C9.3366 8.06884 9.09063 8.04318 8.92301 8.17896C8.75539 8.31478 8.72965 8.56075 8.86551 8.72837C9.14434 9.07239 9.55785 9.26966 9.99996 9.26966C10.4421 9.26966 10.8556 9.07235 11.1344 8.72837C11.2703 8.56075 11.2445 8.31478 11.0769 8.17896Z" fill="white"/>
<path d="M9.01301 6.56876C8.65867 6.21443 8.08211 6.21443 7.7277 6.56876C7.57516 6.7213 7.57512 6.9686 7.7277 7.12118C7.88024 7.27376 8.12758 7.27376 8.28012 7.12122C8.32985 7.07149 8.41082 7.07149 8.46059 7.12122C8.53688 7.19747 8.63684 7.23563 8.7368 7.23563C8.83676 7.23563 8.93676 7.19747 9.01301 7.12122C9.16555 6.96868 9.16555 6.72134 9.01301 6.56876Z" fill="white"/>
<path d="M12.2723 6.5687C11.9179 6.2144 11.3413 6.2144 10.987 6.5687C10.8344 6.72124 10.8344 6.96858 10.987 7.12116C11.0632 7.19745 11.1632 7.23557 11.2632 7.23557C11.3631 7.23557 11.4631 7.19741 11.5394 7.12116C11.5891 7.07147 11.6701 7.07139 11.7199 7.12116C11.8724 7.27373 12.1197 7.2737 12.2723 7.12112C12.4248 6.96858 12.4248 6.72128 12.2723 6.5687Z" fill="white"/>
</g>
<defs>
<clipPath id="clip0_3630_4190">
<rect width="20" height="20" fill="white"/>
</clipPath>
</defs>
</svg>
