<svg width="50" height="50" viewBox="0 0 50 50" fill="none" xmlns="http://www.w3.org/2000/svg">
<rect x="0.5" y="0.5" width="49" height="49" rx="24.5" fill="white" stroke="#E0E0E0"/>
<g clip-path="url(#clip0_3630_4305)">
<path d="M28.55 26C29.3 26 29.96 25.59 30.3 24.97L33.88 18.48C34.25 17.82 33.77 17 33.01 17H18.21L17.27 15H14V17H16L19.6 24.59L18.25 27.03C17.52 28.37 18.48 30 20 30H32V28H20L21.1 26H28.55ZM19.16 19H31.31L28.55 24H21.53L19.16 19ZM20 31C18.9 31 18.01 31.9 18.01 33C18.01 34.1 18.9 35 20 35C21.1 35 22 34.1 22 33C22 31.9 21.1 31 20 31ZM30 31C28.9 31 28.01 31.9 28.01 33C28.01 34.1 28.9 35 30 35C31.1 35 32 34.1 32 33C32 31.9 31.1 31 30 31Z" fill="#2FD3AE"/>
</g>
<defs>
<clipPath id="clip0_3630_4305">
<rect width="24" height="24" fill="white" transform="translate(13 13)"/>
</clipPath>
</defs>
</svg>
