<svg width="25" height="25" viewBox="0 0 25 25" fill="none" xmlns="http://www.w3.org/2000/svg">
<circle cx="12.5" cy="12.5" r="12.5" fill="#2FD3AE"/>
<path d="M11.8603 15.1564C10.8525 15.0513 9.94386 14.8031 9.16588 14.1946C9.06935 14.1189 8.96969 14.0459 8.8816 13.9614C8.54108 13.6343 8.50677 13.2598 8.77621 12.8738C9.00672 12.5435 9.39367 12.4551 9.79586 12.6448C9.87374 12.6815 9.94794 12.7274 10.019 12.7767C11.4689 13.7729 13.4607 13.8004 14.916 12.8215C15.0602 12.711 15.2143 12.6208 15.393 12.5748C15.7403 12.4856 16.0642 12.6132 16.2506 12.9171C16.4635 13.2641 16.4608 13.6029 16.1984 13.8723C15.796 14.2854 15.312 14.5843 14.7742 14.7929C14.2656 14.99 13.7086 15.0893 13.1573 15.1552C13.2405 15.2457 13.2797 15.2902 13.3317 15.3425C14.0803 16.0946 14.8322 16.8436 15.5783 17.598C15.8325 17.8551 15.8856 18.1738 15.7456 18.4728C15.5926 18.7996 15.25 19.0146 14.9141 18.9915C14.7013 18.9768 14.5353 18.8709 14.3879 18.7224C13.823 18.1539 13.2475 17.596 12.694 17.0168C12.5329 16.8484 12.4555 16.8802 12.3133 17.0265C11.745 17.6115 11.1675 18.1876 10.5865 18.7604C10.3256 19.0176 10.0152 19.0638 9.71267 18.9169C9.39108 18.761 9.18644 18.4328 9.20224 18.1029C9.21313 17.8797 9.32287 17.7093 9.47604 17.5564C10.2168 16.8166 10.9556 16.075 11.6946 15.3341C11.7435 15.2848 11.7891 15.2325 11.8603 15.1564Z" fill="white"/>
<path d="M12.4741 12.5801C10.6762 12.574 9.20197 11.0835 9.21246 9.28279C9.22281 7.46216 10.698 5.99498 12.5136 6.00001C14.3329 6.00491 15.7931 7.4932 15.784 9.33276C15.7748 11.1298 14.2903 12.5864 12.4741 12.5801ZM14.1081 9.28715C14.105 8.39303 13.3929 7.68123 12.5005 7.68041C11.6007 7.67946 10.8822 8.4042 10.8892 9.30648C10.8959 10.1972 11.6141 10.904 12.5089 10.9007C13.4009 10.8976 14.1111 10.1811 14.1081 9.28715Z" fill="white"/>
</svg>
