<svg width="50" height="50" viewBox="0 0 50 50" fill="none" xmlns="http://www.w3.org/2000/svg">
<rect x="0.5" y="0.5" width="49" height="49" rx="24.5" fill="white" stroke="#E0E0E0"/>
<g clip-path="url(#clip0_3630_4300)">
<path d="M29.5001 27H28.7101L28.4301 26.73C29.6301 25.33 30.2501 23.42 29.9101 21.39C29.4401 18.61 27.1201 16.39 24.3201 16.05C20.0901 15.53 16.5301 19.09 17.0501 23.32C17.3901 26.12 19.6101 28.44 22.3901 28.91C24.4201 29.25 26.3301 28.63 27.7301 27.43L28.0001 27.71V28.5L32.2501 32.75C32.6601 33.16 33.3301 33.16 33.7401 32.75C34.1501 32.34 34.1501 31.67 33.7401 31.26L29.5001 27ZM23.5001 27C21.0101 27 19.0001 24.99 19.0001 22.5C19.0001 20.01 21.0101 18 23.5001 18C25.9901 18 28.0001 20.01 28.0001 22.5C28.0001 24.99 25.9901 27 23.5001 27Z" fill="#2FD3AE"/>
</g>
<defs>
<clipPath id="clip0_3630_4300">
<rect width="24" height="24" fill="white" transform="translate(14 13)"/>
</clipPath>
</defs>
</svg>
