<svg width="25" height="25" viewBox="0 0 25 25" fill="none" xmlns="http://www.w3.org/2000/svg">
<circle cx="12.5" cy="12.5" r="12.5" fill="#2FD3AE"/>
<path d="M10.2352 17.3809C14.8345 17.3809 17.3497 13.5706 17.3497 10.2665C17.3497 10.1583 17.3474 10.0505 17.3426 9.94331C17.8308 9.59032 18.2551 9.14984 18.5899 8.64846C18.1419 8.84769 17.6597 8.98162 17.154 9.04222C17.6702 8.73254 18.0665 8.24286 18.2535 7.65912C17.7703 7.94555 17.2353 8.15364 16.6657 8.26604C16.2094 7.78002 15.5597 7.47607 14.8404 7.47607C13.4596 7.47607 12.3398 8.59584 12.3398 9.97618C12.3398 10.1725 12.3618 10.3633 12.4046 10.5463C10.3265 10.4418 8.48358 9.44685 7.25044 7.93385C7.03579 8.30331 6.91192 8.73261 6.91192 9.19068C6.91192 10.0581 7.35337 10.8241 8.02461 11.272C7.61438 11.2594 7.22905 11.1468 6.89217 10.9593C6.8918 10.9698 6.8918 10.98 6.8918 10.9912C6.8918 12.2022 7.75368 13.2133 8.89797 13.4424C8.68779 13.4996 8.46666 13.5304 8.23859 13.5304C8.07775 13.5304 7.92093 13.5146 7.76859 13.4853C8.08692 14.4788 9.01007 15.2018 10.1045 15.222C9.24865 15.8928 8.17054 16.2924 6.99882 16.2924C6.79729 16.2924 6.59806 16.2808 6.40234 16.2577C7.509 16.9671 8.82307 17.381 10.2353 17.381" fill="white"/>
</svg>
