<svg width="20" height="20" viewBox="0 0 20 20" fill="none" xmlns="http://www.w3.org/2000/svg">
<path d="M17.0703 14.1406C15.4549 14.1406 14.1406 15.4549 14.1406 17.0703C14.1406 18.6845 15.4562 20 17.0703 20C18.6857 20 20 18.6857 20 17.0703C20 15.4577 18.6859 14.1406 17.0703 14.1406ZM17.0703 15.3125C17.3414 15.3125 17.5982 15.3743 17.8277 15.4843L15.4843 17.8277C15.3743 17.5982 15.3125 17.3413 15.3125 17.0703C15.3125 16.1011 16.1011 15.3125 17.0703 15.3125ZM17.0703 18.8281C16.7993 18.8281 16.5424 18.7664 16.3129 18.6563L18.6563 16.3129C18.7664 16.5424 18.8281 16.7993 18.8281 17.0703C18.8281 18.0396 18.0396 18.8281 17.0703 18.8281Z" fill="#F2994A"/>
<path d="M1.75781 20H11.1719C12.143 20 12.9688 19.215 12.9688 18.2422V8.86719C12.9688 7.97191 12.7029 7.08012 12.2203 6.35617C12.2192 6.35445 11.1089 4.72656 11.1089 4.72656H11.1719C11.4955 4.72656 11.7578 4.46422 11.7578 4.14062V0.585938C11.7578 0.262344 11.4955 0 11.1719 0H1.79688C1.47328 0 1.21094 0.262344 1.21094 0.585938V4.14062C1.21094 4.46422 1.47328 4.72656 1.79688 4.72656H1.85988C1.85988 4.72656 0.749609 6.35445 0.748477 6.35617C0.26582 7.08012 0 7.97191 0 8.86719V18.2422C0 19.2114 0.788555 20 1.75781 20ZM11.7969 9.45312V16.4844H1.17188V9.45312H11.7969ZM11.1719 18.8281H1.75781C1.43473 18.8281 1.17188 18.5653 1.17188 18.2422V17.6562H11.7969V18.2422C11.7969 18.5543 11.5048 18.8281 11.1719 18.8281ZM10.5859 3.55469C10.1628 3.55469 9.8318 3.55469 9.41406 3.55469V1.17188H10.5859V3.55469ZM7.07031 3.55469V1.17188H8.24219V3.55469H7.07031ZM4.72656 3.55469V1.17188H5.89844V3.55469H4.72656ZM2.38281 1.17188H3.55469V3.55469C3.13734 3.55469 2.80699 3.55469 2.38281 3.55469V1.17188ZM3.27836 4.72656H9.69043L11.247 7.00867C11.4925 7.37793 11.6641 7.82219 11.7447 8.28125H1.22406C1.30461 7.82223 1.47621 7.37793 1.72184 7.00867L3.27836 4.72656Z" fill="#F2994A"/>
<path d="M6.48438 15.3125C8.74328 15.3125 10.5859 13.4745 10.5859 11.2109C10.5859 10.8873 10.3236 10.625 10 10.625C9.26832 10.625 3.70625 10.625 2.96875 10.625C2.64516 10.625 2.38281 10.8873 2.38281 11.2109C2.38281 13.4428 4.18836 15.3125 6.48438 15.3125ZM4.87008 13.6539L6.48438 12.0396L8.09867 13.6539C7.63543 13.9611 7.08063 14.1406 6.48438 14.1406C5.88812 14.1406 5.33332 13.9611 4.87008 13.6539ZM8.9277 12.8256L7.89895 11.7965H9.3552C9.27906 12.1704 9.13152 12.5182 8.9277 12.8256ZM5.0698 11.7969L4.04105 12.8256C3.83723 12.5182 3.68969 12.1704 3.61355 11.7969H5.0698Z" fill="#F2994A"/>
</svg>
