<svg width="29" height="29" viewBox="0 0 29 29" fill="none" xmlns="http://www.w3.org/2000/svg">
<circle cx="14.5" cy="14.5" r="14" stroke="#E0E0E0"/>
<path d="M20.6289 17.6971C20.6289 17.6452 20.5771 17.6452 20.5771 17.5933C20.3695 17.1782 19.9025 16.6593 19.2798 16.0885C18.9685 15.8291 18.8128 15.6215 18.709 15.5177C18.5534 15.3102 18.5534 15.1545 18.6053 14.9469C18.6572 14.7913 18.8647 14.5318 19.2279 14.0648C19.4355 13.8054 19.5393 13.6497 19.6949 13.494C20.4733 12.4562 20.8365 11.7817 20.7327 11.4703L20.6808 11.4185C20.6289 11.3666 20.577 11.3147 20.4733 11.3147C20.3695 11.2628 20.2138 11.2628 20.0582 11.3147H18.0864C18.0345 11.3147 18.0345 11.3147 17.9307 11.3147C17.8788 11.3147 17.8269 11.3147 17.8269 11.3147H17.775H17.7231L17.6712 11.3666C17.6194 11.4185 17.6194 11.4185 17.6194 11.4703C17.4118 12.0411 17.1524 12.5081 16.8929 13.027C16.7372 13.2865 16.5816 13.5459 16.4259 13.7535C16.2702 13.961 16.1665 14.1167 16.0627 14.2205C15.9589 14.3243 15.8551 14.3761 15.8032 14.4799C15.7513 14.5318 15.6476 14.5837 15.6476 14.5318C15.5957 14.5318 15.5438 14.5318 15.5438 14.4799C15.4919 14.428 15.44 14.3761 15.3881 14.3243C15.3362 14.2724 15.3362 14.1686 15.2843 14.0648C15.2843 13.961 15.2843 13.8573 15.2843 13.8054C15.2843 13.7535 15.2843 13.5978 15.2843 13.494C15.2843 13.3384 15.2843 13.2346 15.2843 13.1827C15.2843 13.027 15.2843 12.8195 15.2843 12.6119C15.2843 12.4044 15.2843 12.2487 15.2843 12.1449C15.2843 12.0411 15.2843 11.8855 15.2843 11.7817C15.2843 11.626 15.2843 11.5222 15.2843 11.4703C15.2843 11.4185 15.2325 11.3147 15.2325 11.2628C15.1806 11.2109 15.1287 11.159 15.0768 11.1071C15.0249 11.0552 14.9211 11.0552 14.8692 11.0033C14.6098 10.9515 14.2984 10.8996 13.9352 10.8996C13.105 10.8996 12.5342 10.9515 12.3267 11.0552C12.2229 11.1071 12.1191 11.159 12.0672 11.2628C11.9634 11.3666 11.9634 11.4185 12.0153 11.4185C12.2748 11.4703 12.4823 11.5741 12.5861 11.7298L12.638 11.8336C12.6899 11.8855 12.6899 11.9892 12.7418 12.1449C12.7936 12.3006 12.7937 12.4562 12.7937 12.6638C12.7937 12.9751 12.7937 13.2865 12.7937 13.494C12.7937 13.7535 12.7418 13.9091 12.7418 14.0648C12.7418 14.2205 12.6899 14.3243 12.638 14.3762C12.5861 14.4799 12.5861 14.5318 12.5342 14.5318C12.5342 14.5318 12.5342 14.5837 12.4823 14.5837C12.4304 14.5837 12.3785 14.6356 12.2748 14.6356C12.2229 14.6356 12.1191 14.5837 12.0672 14.5318C11.9634 14.4799 11.8596 14.3762 11.8078 14.2724C11.704 14.1686 11.6002 14.0129 11.4964 13.8054C11.3926 13.5978 11.237 13.3903 11.1332 13.0789L11.0294 12.8714C10.9775 12.7676 10.8737 12.56 10.77 12.3006C10.6662 12.0411 10.5624 11.8336 10.4586 11.5741C10.4067 11.4704 10.3549 11.4185 10.303 11.3666H10.2511C10.2511 11.3666 10.1992 11.3147 10.1473 11.3147C10.0954 11.3147 10.0435 11.2628 9.99163 11.2628H8.12361C7.91605 11.2628 7.81228 11.3147 7.76039 11.3666L7.7085 11.4185C7.7085 11.4185 7.7085 11.4703 7.7085 11.5222C7.7085 11.5741 7.7085 11.626 7.76039 11.7298C8.01984 12.3525 8.33117 12.9751 8.64251 13.5978C8.95384 14.1686 9.26518 14.6875 9.47274 15.0507C9.73218 15.4139 9.93974 15.7772 10.1992 16.0885C10.4586 16.3998 10.6143 16.6074 10.6662 16.7112C10.77 16.8149 10.8219 16.8668 10.8737 16.9187L11.0294 17.0744C11.1332 17.1782 11.2889 17.3338 11.4964 17.4895C11.704 17.6452 11.9634 17.8008 12.2229 17.9565C12.4823 18.1122 12.7937 18.216 13.105 18.3197C13.4682 18.4235 13.7795 18.4754 14.0909 18.4235H14.8692C15.0249 18.4235 15.1287 18.3716 15.2325 18.2678L15.2843 18.216C15.2843 18.1641 15.3362 18.1641 15.3362 18.1122C15.3362 18.0603 15.3362 18.0084 15.3362 17.9046C15.3362 17.6971 15.3362 17.5414 15.3881 17.3857C15.44 17.2301 15.44 17.1263 15.4919 17.0225C15.5438 16.9187 15.5957 16.8668 15.6476 16.8149C15.6995 16.7631 15.7514 16.7112 15.7514 16.7112H15.8032C15.907 16.6593 16.0627 16.7112 16.1665 16.8149C16.3221 16.9187 16.4778 17.0744 16.5816 17.2301C16.6853 17.3857 16.841 17.5414 17.0486 17.749C17.2561 17.9565 17.4118 18.1122 17.5156 18.1641L17.6712 18.2678C17.775 18.3197 17.8788 18.3716 18.0345 18.4235C18.1901 18.4754 18.2939 18.4754 18.3977 18.4754L20.1619 18.4235C20.3176 18.4235 20.4733 18.3716 20.5771 18.3197C20.6808 18.2679 20.7327 18.216 20.7327 18.1122C20.7327 18.0603 20.7327 17.9565 20.7327 17.9046C20.6289 17.8008 20.6289 17.749 20.6289 17.6971Z" fill="#2FD3AE"/>
</svg>
