<svg width="29" height="29" viewBox="0 0 29 29" fill="none" xmlns="http://www.w3.org/2000/svg">
<circle cx="14.5" cy="14.5" r="14" stroke="#E0E0E0"/>
<path d="M20.7355 11.4309C20.5861 10.8736 20.1477 10.4339 19.5911 10.2839C18.5739 10.0046 14.5045 10 14.5045 10C14.5045 10 10.4358 9.99546 9.41795 10.2624C8.87233 10.4112 8.42155 10.8606 8.27086 11.4173C8.0026 12.4345 8 14.5442 8 14.5442C8 14.5442 7.9974 16.6643 8.26371 17.6711C8.41311 18.2277 8.85155 18.6675 9.40885 18.8175C10.4364 19.0968 14.4948 19.1014 14.4948 19.1014C14.4948 19.1014 18.5641 19.1059 19.5813 18.8396C20.1373 18.6902 20.5777 18.2511 20.729 17.6945C20.998 16.6779 20.9999 14.5689 20.9999 14.5689C20.9999 14.5689 21.0129 12.4481 20.7355 11.4309ZM13.2028 16.4987L13.2061 12.6014L16.5882 14.5533L13.2028 16.4987Z" fill="#2FD3AE"/>
</svg>
