<svg width="14" height="14" viewBox="0 0 14 14" fill="none" xmlns="http://www.w3.org/2000/svg">
<path fill-rule="evenodd" clip-rule="evenodd" d="M5.33325 5.33341C6.39026 5.33341 7.28311 4.63058 7.56996 3.66675H13.6666V2.33341H7.56996C7.28311 1.36958 6.39026 0.666748 5.33325 0.666748C4.04459 0.666748 2.99992 1.71142 2.99992 3.00008C2.99992 4.28875 4.04459 5.33341 5.33325 5.33341ZM6.33325 3.00008C6.33325 3.55237 5.88554 4.00008 5.33325 4.00008C4.78097 4.00008 4.33325 3.55237 4.33325 3.00008C4.33325 2.4478 4.78097 2.00008 5.33325 2.00008C5.88554 2.00008 6.33325 2.4478 6.33325 3.00008Z" fill="white"/>
<path fill-rule="evenodd" clip-rule="evenodd" d="M9.99992 9.33341C11.0569 9.33341 11.9498 8.63058 12.2366 7.66675H13.6666V6.33341H12.2366C11.9498 5.36958 11.0569 4.66675 9.99992 4.66675C8.71125 4.66675 7.66659 5.71142 7.66659 7.00008C7.66659 8.28875 8.71125 9.33341 9.99992 9.33341ZM9.99992 8.00008C10.5522 8.00008 10.9999 7.55237 10.9999 7.00008C10.9999 6.4478 10.5522 6.00008 9.99992 6.00008C9.44763 6.00008 8.99992 6.4478 8.99992 7.00008C8.99992 7.55237 9.44763 8.00008 9.99992 8.00008Z" fill="white"/>
<path fill-rule="evenodd" clip-rule="evenodd" d="M3.99992 13.3334C5.28858 13.3334 6.33325 12.2887 6.33325 11.0001C6.33325 9.71142 5.28858 8.66675 3.99992 8.66675C2.94291 8.66675 2.05006 9.36958 1.76321 10.3334H0.333252V11.6667H1.76321C2.05006 12.6306 2.94291 13.3334 3.99992 13.3334ZM3.99992 12.0001C4.5522 12.0001 4.99992 11.5524 4.99992 11.0001C4.99992 10.4478 4.5522 10.0001 3.99992 10.0001C3.44763 10.0001 2.99992 10.4478 2.99992 11.0001C2.99992 11.5524 3.44763 12.0001 3.99992 12.0001Z" fill="white"/>
<path d="M6.99992 10.3334H13.6666V11.6667H6.99992V10.3334Z" fill="white"/>
<path d="M6.99992 6.33341H0.333252V7.66675H6.99992V6.33341Z" fill="white"/>
<path d="M2.33325 2.33341H0.333252V3.66675H2.33325V2.33341Z" fill="white"/>
</svg>
