<svg width="43" height="40" viewBox="0 0 43 40" fill="none" xmlns="http://www.w3.org/2000/svg">
<path d="M40.368 17.2355H38.2005C38.077 16.7892 37.8114 16.3952 37.4438 16.113C37.0762 15.8308 36.6265 15.6759 36.1629 15.6715H33.8491V10.0217C33.8517 9.91606 33.8261 9.81158 33.775 9.71902C33.7238 9.62647 33.6489 9.54916 33.558 9.49504L17.2358 0.0815158C17.1438 0.0281246 17.0393 0 16.9329 0C16.8265 0 16.722 0.0281246 16.63 0.0815158L0.302818 9.49504C0.210434 9.54851 0.1338 9.62536 0.0806366 9.71783C0.0274738 9.8103 -0.000338458 9.91512 3.10858e-06 10.0217V28.8489C5.82474e-06 28.9556 0.0281518 29.0605 0.0816122 29.153C0.135073 29.2454 0.211964 29.3222 0.304558 29.3756L16.6334 38.7891C16.726 38.8425 16.831 38.8706 16.938 38.8706C17.0476 38.8707 17.1555 38.8426 17.2512 38.7891L25.8437 33.8403V37.4178C25.8428 37.7584 25.9096 38.0958 26.0401 38.4104C26.1707 38.7251 26.3625 39.0108 26.6044 39.2509C26.8463 39.4911 27.1335 39.6809 27.4494 39.8095C27.7653 39.938 28.1036 40.0028 28.4447 39.9999H40.368C40.71 40.0031 41.0492 39.9387 41.3662 39.8104C41.6831 39.6822 41.9715 39.4926 42.2148 39.2526C42.4581 39.0126 42.6515 38.727 42.7838 38.4121C42.9161 38.0972 42.9848 37.7593 42.9858 37.4178V19.8579C42.9854 19.164 42.7097 18.4985 42.2191 18.007C41.7285 17.5155 41.0629 17.2381 40.368 17.2355ZM36.1845 16.8879C36.419 16.8879 36.6439 16.9809 36.8097 17.1465C36.9755 17.3121 37.0687 17.5366 37.0687 17.7708V17.8297C37.0687 18.0638 36.9755 18.2884 36.8097 18.454C36.6439 18.6195 36.419 18.7125 36.1845 18.7125H32.6449C32.4104 18.7125 32.1855 18.6195 32.0197 18.454C31.8539 18.2884 31.7607 18.0638 31.7607 17.8297V17.7708C31.7607 17.5366 31.8539 17.3121 32.0197 17.1465C32.1855 16.9809 32.4104 16.8879 32.6449 16.8879H36.1845ZM16.938 1.31053L23.7229 5.22202L8.61334 13.9326L1.82846 10.0211L16.938 1.31053ZM16.359 37.2089L1.21822 28.4977V11.0739L16.359 19.7851V37.2089ZM16.938 18.7317L9.83156 14.6348L24.9411 5.92433L32.0479 10.0211L16.938 18.7317ZM25.8437 19.8579V32.4358L17.5772 37.2089V19.7851L32.6309 11.0739V15.6715H32.6498C32.1861 15.6758 31.7365 15.8308 31.3688 16.113C31.0012 16.3952 30.7356 16.7892 30.6121 17.2355H28.4447C27.7515 17.2388 27.088 17.517 26.6002 18.0088C26.1125 18.5006 25.8403 19.1657 25.8437 19.8579ZM41.7675 37.4178C41.7667 37.5996 41.7297 37.7794 41.6587 37.9468C41.5877 38.1142 41.484 38.2658 41.3538 38.3929C41.2236 38.52 41.0694 38.6199 40.9002 38.687C40.7309 38.754 40.55 38.7868 40.368 38.7835H28.4447C28.2635 38.7865 28.0836 38.7534 27.9154 38.686C27.7472 38.6187 27.5943 38.5184 27.4654 38.3912C27.3366 38.264 27.2346 38.1123 27.1653 37.9452C27.096 37.778 27.0608 37.5987 27.0619 37.4178V19.8579C27.0601 19.6749 27.0944 19.4933 27.1629 19.3235C27.2314 19.1537 27.3328 18.9991 27.4613 18.8685C27.5897 18.738 27.7427 18.6339 27.9114 18.5624C28.0801 18.4909 28.2614 18.4534 28.4447 18.4519H30.6359C30.7665 18.8824 31.0334 19.259 31.3965 19.5253C31.7595 19.7916 32.1993 19.9333 32.6498 19.929H36.1629C36.6133 19.9333 37.0531 19.7917 37.4162 19.5254C37.7792 19.259 38.0461 18.8824 38.1767 18.4519H40.368C40.7399 18.4542 41.0958 18.6034 41.358 18.8668C41.6203 19.1302 41.7675 19.4865 41.7675 19.8579V37.4178Z" fill="#27AE60"/>
</svg>
