<svg width="18" height="18" viewBox="0 0 18 18" fill="none" xmlns="http://www.w3.org/2000/svg">
<path d="M18 10.5624C18 10.1117 17.8207 9.69168 17.5117 9.38192C17.862 8.99868 18.0405 8.48491 17.9917 7.95018C17.904 6.99692 17.0452 6.24992 16.0357 6.24992H11.403C11.6325 5.55316 12 4.27593 12 3.24993C12 1.62318 10.6178 0.249947 9.74999 0.249947C8.97149 0.249947 8.41423 0.688697 8.39099 0.706697C8.30173 0.777958 8.24998 0.885958 8.24998 0.999935V3.54317L6.08924 8.22243L5.99998 8.26817V8.12491C5.99998 7.91791 5.83196 7.7499 5.62496 7.7499H1.87499C0.840762 7.74993 0 8.5907 0 9.62492V15.6249C0 16.6592 0.840762 17.4999 1.87499 17.4999H4.12499C4.93573 17.4999 5.62873 16.9824 5.88973 16.2602C6.51375 16.5812 7.35374 16.7499 7.875 16.7499H14.7593C15.576 16.7499 16.2908 16.1994 16.4587 15.4404C16.545 15.0489 16.4948 14.6552 16.3237 14.3132C16.8773 14.0349 17.25 13.4627 17.25 12.8124C17.25 12.5469 17.1893 12.2927 17.0745 12.0632C17.628 11.7842 18 11.2127 18 10.5624ZM16.4182 11.4879C16.2735 11.5052 16.1512 11.6034 16.1048 11.7422C16.059 11.8809 16.0973 12.0332 16.2038 12.1337C16.3943 12.3129 16.5 12.5544 16.5 12.8124C16.5 13.2857 16.1423 13.6832 15.669 13.7379C15.5243 13.7552 15.402 13.8534 15.3555 13.9922C15.3098 14.1309 15.3481 14.2832 15.4545 14.3837C15.7013 14.6162 15.8003 14.9424 15.7261 15.2784C15.6338 15.6969 15.2273 15.9999 14.7593 15.9999H7.875C7.26599 15.9999 6.24449 15.7142 5.8905 15.3594C5.78324 15.2529 5.62124 15.2214 5.48174 15.2784C5.3415 15.3362 5.24999 15.4734 5.24999 15.6249C5.24999 16.2452 4.74525 16.7499 4.12499 16.7499H1.87499C1.25473 16.7499 0.749988 16.2452 0.749988 15.6249V9.62492C0.749988 9.00466 1.25473 8.49992 1.87499 8.49992H5.24999V8.87494C5.24999 9.0047 5.31749 9.12542 5.42848 9.19444C5.53799 9.26042 5.67598 9.26717 5.79298 9.21019L6.54296 8.83517C6.61873 8.79766 6.67948 8.73466 6.71548 8.65742L8.96548 3.78241C8.98798 3.73291 8.99996 3.67891 8.99996 3.62491V1.20317C9.15599 1.11693 9.42676 0.999935 9.74999 0.999935C10.161 0.999935 11.25 2.02143 11.25 3.24993C11.25 4.56995 10.5315 6.47267 10.5248 6.49145C10.4813 6.6062 10.4963 6.73596 10.566 6.83795C10.6365 6.9392 10.752 6.99995 10.875 6.99995H16.0357C16.6612 6.99995 17.1922 7.4477 17.2447 8.0192C17.2845 8.4467 17.079 8.85321 16.7108 9.08046C16.596 9.15095 16.5278 9.27846 16.533 9.4142C16.5382 9.54993 16.6163 9.67144 16.7362 9.7337C17.0535 9.89496 17.25 10.2129 17.25 10.5624C17.25 11.0357 16.8923 11.4332 16.4182 11.4879Z" fill="#2FD3AE"/>
<path d="M5.62501 8.49995C5.41801 8.49995 5.25 8.66796 5.25 8.87496V15.625C5.25 15.832 5.41801 16 5.62501 16C5.83201 16 6.00002 15.832 6.00002 15.625V8.87496C6.00002 8.66796 5.83201 8.49995 5.62501 8.49995Z" fill="#2FD3AE"/>
</svg>
