<svg width="18" height="18" viewBox="0 0 18 18" fill="none" xmlns="http://www.w3.org/2000/svg">
<path d="M-7.99636e-07 6.93751C-7.64685e-07 7.38825 0.179261 7.80826 0.48825 8.11803C0.137988 8.50126 -0.0405013 9.01504 0.00826013 9.54976C0.0960116 10.503 0.954772 11.25 1.96425 11.25L6.597 11.25C6.3675 11.9468 6.00001 13.224 6.00001 14.25C6.00001 15.8768 7.38225 17.25 8.25001 17.25C9.02851 17.25 9.58577 16.8113 9.60901 16.7933C9.69827 16.722 9.75002 16.614 9.75002 16.5L9.75002 13.9568L11.9108 9.27751L12 9.23177L12 9.37504C12 9.58204 12.168 9.75005 12.375 9.75005L16.125 9.75005C17.1592 9.75001 18 8.90925 18 7.87502L18 1.87501C18 0.84075 17.1592 2.29711e-05 16.125 2.3073e-05L13.875 2.32948e-05C13.0643 2.33747e-05 12.3713 0.517523 12.1103 1.23977C11.4862 0.918763 10.6463 0.750012 10.125 0.750012L3.24074 0.750013C2.42399 0.750013 1.70923 1.30052 1.54125 2.05951C1.45501 2.45101 1.50525 2.84476 1.67625 3.18676C1.12275 3.46503 0.749988 4.03726 0.749988 4.68751C0.749988 4.95301 0.810739 5.20726 0.925489 5.43676C0.371987 5.71576 -8.50056e-07 6.28726 -7.99636e-07 6.93751ZM1.58175 6.01202C1.72649 5.99476 1.84876 5.89654 1.89524 5.75777C1.94098 5.61901 1.90272 5.46679 1.79624 5.36628C1.60573 5.18701 1.49997 4.94552 1.49997 4.68751C1.49997 4.21428 1.85773 3.81676 2.33096 3.76202C2.4757 3.74476 2.59798 3.64654 2.64445 3.50777C2.69019 3.36901 2.65194 3.21679 2.54545 3.11628C2.29869 2.88379 2.19969 2.55754 2.27394 2.22151C2.36619 1.80301 2.7727 1.5 3.2407 1.5L10.125 1.5C10.734 1.5 11.7555 1.78575 12.1095 2.14051C12.2168 2.247 12.3788 2.2785 12.5183 2.22151C12.6585 2.16375 12.75 2.0265 12.75 1.87501C12.75 1.25475 13.2547 0.750012 13.875 0.750012L16.125 0.750012C16.7453 0.750012 17.25 1.25475 17.25 1.87501L17.25 7.87502C17.25 8.49529 16.7453 9.00002 16.125 9.00002L12.75 9.00002L12.75 8.62501C12.75 8.49525 12.6825 8.37452 12.5715 8.30551C12.462 8.23952 12.324 8.23277 12.207 8.28976L11.457 8.66477C11.3813 8.70229 11.3205 8.76529 11.2845 8.84252L9.03452 13.7175C9.01202 13.767 9.00004 13.821 9.00004 13.875L9.00004 16.2968C8.84401 16.383 8.57324 16.5 8.25001 16.5C7.839 16.5 6.75 15.4785 6.75 14.25C6.75 12.93 7.46849 11.0273 7.47524 11.0085C7.51873 10.8938 7.50375 10.764 7.434 10.662C7.36351 10.5608 7.24799 10.5 7.12501 10.5L1.96425 10.5C1.33875 10.5 0.80775 10.0523 0.755262 9.48075C0.715499 9.05325 0.921022 8.64674 1.28925 8.41949C1.404 8.349 1.47224 8.22149 1.467 8.08575C1.46176 7.95001 1.38375 7.82851 1.26376 7.76625C0.946511 7.60499 0.750024 7.287 0.750024 6.93751C0.749988 6.46428 1.10774 6.06676 1.58175 6.01202Z" fill="#D9D9D9"/>
</svg>
