<svg width="50" height="50" viewBox="0 0 50 50" fill="none" xmlns="http://www.w3.org/2000/svg">
<rect width="50" height="50" rx="25" fill="#2FD3AE"/>
<g clip-path="url(#clip0_211_4583)">
<path d="M27.9585 25.8334C28.5835 25.8334 29.1335 25.4917 29.4168 24.975L32.4002 19.5667C32.7085 19.0167 32.3085 18.3334 31.6752 18.3334H19.3418L18.5585 16.6667H15.8335V18.3334H17.5002L20.5002 24.6584L19.3752 26.6917C18.7668 27.8084 19.5668 29.1667 20.8335 29.1667H30.8335V27.5H20.8335L21.7502 25.8334H27.9585ZM20.1335 20H30.2585L27.9585 24.1667H22.1085L20.1335 20ZM20.8335 30C19.9168 30 19.1752 30.75 19.1752 31.6667C19.1752 32.5834 19.9168 33.3334 20.8335 33.3334C21.7502 33.3334 22.5002 32.5834 22.5002 31.6667C22.5002 30.75 21.7502 30 20.8335 30ZM29.1668 30C28.2502 30 27.5085 30.75 27.5085 31.6667C27.5085 32.5834 28.2502 33.3334 29.1668 33.3334C30.0835 33.3334 30.8335 32.5834 30.8335 31.6667C30.8335 30.75 30.0835 30 29.1668 30Z" fill="white"/>
</g>
<defs>
<clipPath id="clip0_211_4583">
<rect width="20" height="20" fill="white" transform="translate(15 15)"/>
</clipPath>
</defs>
</svg>
