<svg width="32" height="40" viewBox="0 0 32 40" fill="none" xmlns="http://www.w3.org/2000/svg">
<path d="M30.7972 8.0989L15.7412 0.0881401C15.5178 -0.0308936 15.2501 -0.0292231 15.0284 0.0923167L0.389001 8.10308C0.148908 8.23464 0 8.48608 0 8.75964V19.2238C0.00878392 27.8255 5.11264 35.6074 13.0056 39.0535L15.0376 39.9377C15.2275 40.0204 15.4438 40.0208 15.6341 39.9386L17.9237 38.9512C25.9631 35.5798 31.1933 27.7228 31.1941 19.0162V8.75964C31.1941 8.48315 31.0414 8.2288 30.7972 8.0989ZM29.695 19.0162C29.6933 27.1226 24.8224 34.4371 17.3369 37.5742L17.3319 37.5767L15.3379 38.4362L13.6054 37.6815C6.25831 34.4739 1.50706 27.2308 1.4987 19.2238V9.20278L15.3936 1.59882L29.695 9.20821V19.0162Z" fill="#BB6BD9"/>
<path d="M9.86336 18.7384C9.59441 18.4239 9.12134 18.3867 8.80637 18.6553C8.49141 18.9234 8.45418 19.3962 8.72313 19.7103L12.6826 24.3401C12.9469 24.6491 13.41 24.6913 13.7253 24.4349L22.9467 16.9437C23.268 16.6831 23.3165 16.2116 23.0551 15.8908C22.7941 15.5705 22.3218 15.5216 22.0006 15.7826L13.3472 22.8118L9.86336 18.7384Z" fill="#BB6BD9"/>
</svg>
