<svg width="41" height="40" viewBox="0 0 41 40" fill="none" xmlns="http://www.w3.org/2000/svg">
<path d="M39.3148 21.262L37.6404 20.7264C37.426 20.6578 37.257 20.4869 37.1884 20.2692C36.8355 19.1489 36.303 18.0972 35.6057 17.1431C35.2878 16.7082 34.9344 16.293 34.5483 15.8977C34.7953 14.8157 34.9296 13.5911 34.9122 12.5332C34.8873 11.0197 34.5844 10.1321 33.9863 9.81926C33.6641 9.65058 32.6837 9.13815 27.3773 11.5636C27.2516 11.621 27.1343 11.6918 27.0256 11.7727C26.6679 11.6768 26.3022 11.588 25.9343 11.5082C25.89 11.4986 25.8444 11.4901 25.7997 11.4807C26.2297 10.5427 26.4808 9.52398 26.528 8.47234C26.5427 8.14454 26.2886 7.86697 25.9603 7.85238C25.6329 7.83612 25.354 8.09137 25.3394 8.41917C25.2619 10.1483 24.5435 11.7753 23.3167 13.0003C22.5838 13.7322 21.7255 14.2639 20.8109 14.5987C19.2246 14.3764 17.6089 14.3764 16.0226 14.5987C15.1078 14.2639 14.2497 13.7322 13.5167 13.0003C12.2079 11.6934 11.487 9.95582 11.487 8.10756C11.487 6.25921 12.2079 4.52168 13.5167 3.21479C14.8255 1.90781 16.5658 1.18804 18.4167 1.18804C20.2676 1.18804 22.0079 1.90781 23.3167 3.21479C23.8427 3.73997 24.2773 4.33929 24.6086 4.99592C24.7563 5.28897 25.1141 5.40695 25.4075 5.25931C25.701 5.11183 25.819 4.75462 25.6713 4.46165C25.283 3.69166 24.7739 2.98958 24.1581 2.37464C22.6246 0.843336 20.5856 0 18.4168 0C16.2481 0 14.2091 0.843336 12.6755 2.37464C11.1419 3.90602 10.2973 5.94194 10.2973 8.10748C10.2973 10.273 11.1419 12.309 12.6755 13.8403C13.1179 14.282 13.5991 14.6619 14.1081 14.9801C14.1083 14.9801 14.1085 14.98 14.1086 14.98C13.7387 15.076 13.3717 15.1838 13.0086 15.305C12.697 15.409 12.5289 15.7455 12.6331 16.0567C12.7372 16.3678 13.0743 16.5357 13.3859 16.4318C16.6301 15.3488 20.2035 15.3488 23.4478 16.4318C23.5103 16.4527 23.5739 16.4626 23.6364 16.4626C23.8853 16.4626 24.1173 16.3054 24.2005 16.0567C24.3047 15.7456 24.1366 15.409 23.825 15.305C23.462 15.1838 23.0949 15.0759 22.725 14.98C22.7252 14.98 22.7253 14.9801 22.7255 14.9801C23.2346 14.6619 23.7158 14.282 24.1581 13.8403C24.5495 13.4495 24.8949 13.0228 25.1949 12.5693C25.3589 12.6011 25.5217 12.6344 25.682 12.6692C25.8957 12.7155 26.1084 12.7652 26.3191 12.8175C26.3125 12.8433 26.3057 12.869 26.3002 12.8953C26.0101 14.27 26.0289 15.4858 26.3562 16.5089C26.6503 17.4284 27.1811 18.1734 27.9337 18.7232C28.8208 19.3711 29.8917 19.651 30.8618 19.651C31.5919 19.651 32.265 19.4924 32.7593 19.2128C33.3185 18.8966 33.787 18.2302 34.1578 17.2298C34.3292 17.4295 34.4917 17.6342 34.6448 17.8437C35.2657 18.693 35.7397 19.629 36.0536 20.6257C36.238 21.211 36.6956 21.6716 37.2777 21.8579L38.952 22.3935C39.3913 22.534 39.6865 22.9378 39.6865 23.3984V26.1706C39.6865 26.6312 39.3913 27.035 38.952 27.1755L36.2544 28.0383C35.8228 28.1765 35.4576 28.4726 35.226 28.8723C34.1661 30.7012 32.4999 32.2147 30.2732 33.3707C30.0159 33.5043 29.8377 33.7434 29.7841 34.0267L28.9201 38.5948C28.8962 38.7207 28.7858 38.812 28.6575 38.812H25.8483C25.72 38.812 25.6096 38.7206 25.5858 38.5948L25.1072 36.0702C25.013 35.5735 24.5465 35.2435 24.0443 35.3195C22.8342 35.5022 21.5873 35.5948 20.3385 35.5948C19.4093 35.5948 18.4921 35.543 17.6121 35.4409C17.1255 35.385 16.6722 35.7163 16.5812 36.196L16.1265 38.5948C16.1026 38.7207 15.9922 38.812 15.8639 38.812H13.0547C12.9264 38.812 12.816 38.7206 12.7918 38.5929L11.9599 34.2784C11.9063 34.0004 11.7315 33.7641 11.4799 33.6299C7.68422 31.6066 5.67794 28.2262 5.67794 23.8545C5.67794 21.6457 6.1619 19.6925 7.11634 18.049C8.00699 16.5153 9.30784 15.2473 10.9827 14.2799C11.2671 14.1156 11.3643 13.7522 11.1998 13.4682C11.0353 13.1842 10.6714 13.0874 10.387 13.2514C7.13933 15.1274 5.18056 18.0214 4.64127 21.6972V21.6972C4.58402 21.692 4.5267 21.687 4.46962 21.6811C4.48 21.2845 4.40814 20.8844 4.25167 20.496C3.90654 19.6393 3.19759 19.021 2.44546 18.9208C1.85275 18.8416 1.28871 19.0928 0.897277 19.6093C0.329723 20.3581 0.422253 20.9508 0.599728 21.316C0.899353 21.9325 1.66953 22.3685 2.94763 22.6427C2.9125 22.6952 2.87386 22.748 2.83154 22.801C2.07637 23.7467 1.18668 23.9558 0.608989 23.9755C0.270804 23.9869 0 24.258 0 24.5959V24.5988C0 24.9321 0.263379 25.2039 0.596854 25.2192C0.639566 25.2212 0.684195 25.2222 0.730659 25.2222C1.46164 25.2222 2.63483 24.953 3.76195 23.5417C3.93991 23.319 4.08489 23.084 4.19634 22.8412C4.30859 22.8539 4.41645 22.8647 4.51976 22.8743C4.51976 22.874 4.51976 22.8739 4.51984 22.8736C4.49956 23.1955 4.4883 23.5221 4.4883 23.8545C4.4883 26.328 5.07885 28.5334 6.24342 30.4097C7.31721 32.1396 8.85461 33.556 10.8144 34.6212L11.6232 38.8156C11.7532 39.5018 12.3553 39.9999 13.0547 39.9999H15.8639C16.5633 39.9999 17.1654 39.5018 17.2954 38.8156L17.7066 36.6467C18.5605 36.737 19.4446 36.7827 20.3384 36.7827C21.5647 36.7827 22.7895 36.6974 23.9832 36.5291L24.4166 38.8158C24.5468 39.502 25.1488 40 25.8482 40H28.6574C29.3568 40 29.9589 39.5019 30.089 38.8155L30.9302 34.3679C33.3068 33.1131 35.0981 31.4647 36.2556 29.4673C36.339 29.3233 36.4675 29.2177 36.6173 29.1698L39.3148 28.307C40.2486 28.0081 40.876 27.1496 40.876 26.1705V23.3983C40.876 22.4192 40.2486 21.5607 39.3148 21.262ZM33.6332 14.2024C33.4042 16.1576 32.79 17.83 32.1729 18.179C31.4714 18.5758 29.852 18.6524 28.6361 17.7643C27.4187 16.8751 27.0135 15.2761 27.4642 13.1401C27.4642 13.1401 27.4642 13.1401 27.4642 13.1401C27.5095 12.9255 27.6621 12.74 27.8725 12.6438C30.8507 11.2826 32.5677 10.8373 33.2056 10.8373C33.3019 10.8373 33.3736 10.8475 33.4213 10.8661C33.613 11.07 33.8643 12.2292 33.6332 14.2024ZM1.67025 20.7973C1.6087 20.6705 1.754 20.4477 1.84613 20.3261C1.99215 20.1335 2.12667 20.0941 2.2283 20.0941C2.24978 20.0941 2.26982 20.0959 2.28818 20.0983C2.5617 20.1348 2.94491 20.4353 3.14793 20.9392C3.19576 21.0578 3.25787 21.2543 3.2724 21.4994C2.44889 21.329 1.80908 21.0834 1.67025 20.7973Z" fill="#F2994A"/>
</svg>
