<svg width="180" height="45" viewBox="0 0 180 45" fill="none" xmlns="http://www.w3.org/2000/svg">
<g opacity="0.8">
<path d="M58.7699 22.05C60.2999 21.69 61.2899 20.61 61.2899 19.44C61.2899 17.55 59.0399 16.74 56.9699 16.74H51.0299L50.9399 16.83C51.0299 18.09 51.1199 21.15 51.1199 22.23C51.1199 23.31 51.1199 26.73 50.9399 28.26V28.35H56.3399C59.0399 28.35 61.8299 27.54 61.8299 25.2C61.8299 23.76 60.7499 22.59 58.7699 22.05ZM55.4399 27.09H54.0899C53.9999 25.2 53.9999 22.95 53.9999 22.23C53.9999 21.42 54.0899 19.62 54.0899 18.09C54.3599 18 54.7199 18 55.1699 18C57.4199 18 58.2299 18.45 58.2299 19.71C58.2299 20.07 58.1399 20.34 57.9599 20.61C57.5099 21.15 56.6999 21.42 55.6199 21.33H55.5299L54.8999 22.95H55.5299C56.7899 22.95 57.8699 23.31 58.4099 24.03C58.6799 24.3 58.7699 24.75 58.7699 25.11C58.7699 26.37 57.5999 27.09 55.4399 27.09ZM74.3399 16.65H71.7299L71.8199 19.62C71.9099 21.06 71.9099 22.59 71.9999 24.03C71.8199 23.58 71.6399 23.31 70.8299 22.14C70.8299 22.14 68.1299 17.91 67.1399 16.65H64.0799V16.74C64.1699 18 64.2599 21.06 64.2599 22.14C64.2599 23.22 64.2599 26.64 64.0799 28.17V28.26H66.7799V28.17C66.5999 25.38 66.5999 22.5 66.5999 19.71C66.6899 20.07 66.7799 20.34 67.2299 20.97C67.2299 21.06 71.9999 27.9 72.1799 28.26V28.35H74.3399V28.26C74.1599 26.73 74.1599 23.31 74.1599 22.23C74.1599 21.15 74.2499 18 74.3399 16.83V16.65ZM82.6199 16.74H77.4899V16.83C77.5799 18.09 77.6699 21.15 77.6699 22.23C77.6699 23.31 77.6699 26.73 77.4899 28.26V28.35H80.7299V28.26C80.6399 27.18 80.5499 25.11 80.5499 23.58H81.6299C85.8599 23.58 87.9299 22.41 87.9299 20.07C87.9299 17.37 85.0499 16.74 82.6199 16.74ZM81.3599 22.14H80.7299H80.4599V20.7V18.27C80.7299 18.09 81.0899 18.09 81.4499 18.09C82.9799 18.09 84.0599 18.36 84.5099 18.99C84.7799 19.26 84.8699 19.62 84.8699 20.07C84.8699 21.78 82.9799 22.14 81.3599 22.14ZM99.0899 16.74H93.9599V16.83H94.0499C94.1399 18.09 94.2299 21.15 94.2299 22.23C94.2299 23.31 94.2299 26.73 94.0499 28.26V28.35H97.2899V28.26C97.1999 27.18 97.1099 25.11 97.1099 23.58H98.0999C102.33 23.58 104.49 22.41 104.49 20.07C104.49 17.37 101.52 16.74 99.0899 16.74ZM98.0999 22.14H97.47H97.1999V20.7V18.27C97.3799 18.09 97.7399 18.09 98.0999 18.09C99.6299 18.09 100.71 18.36 101.16 18.99C101.43 19.26 101.52 19.62 101.52 20.07C101.52 21.78 99.6299 22.14 98.0999 22.14ZM116.19 28.35L111.06 16.74H108.9V16.65C108.27 18.36 104.31 26.82 103.77 28.17L103.68 28.35H106.47V28.26C106.74 27.45 107.01 26.55 107.37 25.56H111.96C112.41 26.82 112.86 27.72 112.95 28.26V28.35H116.19ZM111.06 24.03H109.62H107.91C108.54 22.59 109.17 21.24 109.62 20.07C109.89 20.61 110.52 22.14 111.33 24.03H111.06ZM117.54 16.83C117.63 18.09 117.72 21.15 117.72 22.23C117.72 23.31 117.72 26.73 117.54 28.26V28.35H120.78V28.26C120.6 26.73 120.6 23.31 120.6 22.23C120.6 21.42 120.6 19.62 120.69 18.18C120.96 18.18 121.32 18.09 121.59 18.09C123.12 18.09 124.2 18.36 124.65 18.99C124.92 19.26 125.01 19.62 125.01 20.07C125.01 21.42 123.75 22.14 122.58 22.14H121.59L121.68 22.32C122.85 24.03 124.56 26.91 125.28 28.35V28.44H128.79L128.7 28.26C128.52 28.08 126.27 24.75 125.37 23.31L125.28 23.22C127.08 22.68 127.89 21.69 127.89 20.16C127.89 17.46 125.01 16.83 122.49 16.83H117.45H117.54ZM133.47 16.65H130.41V16.74C130.5 18 130.59 21.06 130.59 22.14C130.59 23.13 130.59 26.64 130.41 28.17V28.26H133.65V28.17C133.56 26.64 133.47 23.22 133.47 22.14C133.47 21.06 133.56 17.91 133.65 16.74L133.47 16.65ZM144.36 22.05C145.89 21.69 146.88 20.61 146.88 19.44C146.88 17.55 144.63 16.74 142.56 16.74H136.62L136.53 16.83C136.62 18.09 136.71 21.15 136.71 22.23C136.71 23.31 136.71 26.73 136.53 28.26V28.35H141.93C144.54 28.35 147.42 27.54 147.42 25.2C147.42 23.76 146.34 22.59 144.36 22.05ZM140.85 27.09H139.5C139.41 25.38 139.41 23.04 139.41 22.32C139.41 21.51 139.41 19.71 139.5 18.18C139.86 18 140.31 18 140.67 18C142.92 18 143.73 18.45 143.73 19.71C143.73 20.07 143.64 20.34 143.46 20.61C143.01 21.15 142.2 21.42 141.12 21.33H141.03L140.4 22.95H141.03C142.29 22.95 143.37 23.31 143.91 24.03C144.18 24.3 144.27 24.75 144.27 25.11C144.27 26.37 143.1 27.09 140.85 27.09ZM160.56 28.35L155.34 16.65H153.18V16.74C152.55 18.54 148.41 27.45 148.05 28.17L147.96 28.35H150.75V28.26C151.02 27.45 151.29 26.55 151.65 25.56H156.24C156.78 26.82 157.14 27.72 157.32 28.26V28.35H160.56ZM155.43 24.03H153.99H152.28C152.91 22.59 153.45 21.24 153.99 20.07C154.26 20.61 154.89 22.14 155.7 24.03H155.43ZM161.46 19.71C161.46 21.78 163.53 22.59 165.33 23.31C166.77 23.85 168.21 24.48 168.21 25.47C168.21 25.74 168.12 26.01 168.03 26.19C167.67 26.55 167.04 26.73 165.87 26.73C164.79 26.73 163.53 26.37 162.18 25.74L161.64 25.47V27.9L162 27.99H162.18C162.9 28.17 164.16 28.44 165.51 28.44C168.93 28.44 171 27.09 171 24.84C171 22.68 168.93 21.87 167.04 21.15C165.69 20.61 164.25 20.07 164.25 19.17C164.25 18.9 164.25 18.18 166.05 18.18C167.4 18.18 168.66 18.72 169.38 18.99L170.01 19.26V16.74L169.38 16.65C168.75 16.56 167.58 16.29 166.5 16.29C163.44 16.29 161.46 17.64 161.46 19.71Z" fill="#1A171B"/>
<path d="M9 5.76001H42.57V39.33H9V5.76001Z" fill="url(#paint0_linear_121_1847)"/>
<path d="M41.85 7.65005C41.85 6.93005 41.31 6.30005 40.68 6.30005H11.61C10.98 6.30005 10.53 6.93005 10.44 7.65005C10.44 7.65005 9.63 12.06 9.63 21.42C9.63 30.78 10.44 36.99 10.44 36.99C10.53 37.71 10.98 38.34 11.61 38.34H40.68C41.31 38.34 41.85 37.8 41.85 36.99C41.85 36.99 41.49 29.88 41.49 22.77C41.49 15.84 41.85 7.65005 41.85 7.65005Z" fill="url(#paint1_linear_121_1847)"/>
<path d="M27.99 9.71988C28.89 10.1699 32.58 12.0599 33.03 12.7799C31.14 13.0499 27.54 13.9499 25.56 14.9399L25.47 15.2099C27.63 14.6699 30.69 14.4899 32.67 14.3999C31.95 15.5699 31.41 16.1099 30.24 17.3699L30.06 17.6399C32.31 16.2899 32.94 16.1999 35.01 14.9399C35.73 16.1099 36 18.8099 36 20.8799C36.63 19.5299 37.53 14.4899 37.17 13.5899C38.52 12.6899 38.79 11.8799 38.79 11.8799C37.53 11.9699 36.9 12.0599 36.18 12.2399C34.56 11.2499 30.87 9.98988 28.08 9.62988L27.99 9.71988Z" fill="url(#paint2_linear_121_1847)"/>
<path d="M14.22 25.4701C14.04 27.1801 13.95 28.3501 14.22 29.7901C13.59 29.8801 12.87 29.9701 12.33 30.1501L12.24 30.4201C13.05 30.9601 13.86 31.3201 14.85 31.8601C15.39 33.0301 15.93 33.7501 16.74 34.6501L16.83 34.3801C16.65 33.7501 16.47 33.2101 16.56 32.4901C17.64 32.8501 18.54 33.0301 19.8 33.0301L19.89 32.7601C18.81 32.3101 17.73 32.0401 16.74 31.1401C17.01 30.4201 17.37 29.7001 17.82 28.9801L17.91 28.7101C17.01 28.8901 16.02 29.2501 15.3 29.3401C14.67 28.1701 14.4 26.6401 14.04 25.1101L14.22 25.4701Z" fill="url(#paint3_linear_121_1847)"/>
<path d="M19.8 17.7301C19.8 17.7301 19.17 17.6401 17.91 17.7301C16.92 17.8201 15.48 17.9101 14.76 18.0901L14.67 18.3601C15.84 18.4501 17.37 18.7201 17.91 19.2601C17.91 19.2601 16.11 20.8801 14.49 24.2101C14.49 24.2101 17.64 21.2401 18.9 20.6101C18.9 20.6101 19.53 22.9501 20.07 24.1201L20.16 23.8501C20.34 23.1301 20.7 20.9701 21.24 19.7101C21.24 19.7101 21.42 19.6201 22.41 19.4401C23.4 19.3501 24.84 19.2601 27.54 19.8001L27.63 19.5301C27 19.1701 24.57 18.0901 22.05 17.7301H22.14C22.5 16.7401 22.95 15.8401 22.95 15.8401C22.41 16.2001 20.79 16.9201 19.8 17.7301Z" fill="url(#paint4_linear_121_1847)"/>
<path d="M26.37 32.22C26.37 31.77 26.28 31.41 26.28 30.87C25.74 31.59 25.29 32.22 24.66 32.85C24.03 33.03 23.31 33.03 22.68 33.03H21.96L21.87 33.3C22.5 33.66 23.04 33.84 23.76 33.93C23.22 34.47 22.5 34.74 22.05 35.1L21.96 35.37C22.95 35.1 24.39 34.74 25.38 34.11C25.92 34.11 26.37 34.11 26.82 34.02L26.91 33.75C26.82 33.48 26.64 33.3 26.55 33.03C27.45 32.31 28.26 31.59 28.98 30.78L29.07 30.51C28.26 31.05 27.27 31.77 26.37 32.22Z" fill="url(#paint5_linear_121_1847)"/>
<path d="M35.19 14.58C33.12 15.84 32.49 15.93 30.24 17.28C31.59 15.84 32.04 15.3 32.85 14.13C30.78 14.22 27.72 14.49 25.65 14.94C27.54 13.95 31.23 12.87 33.21 12.6C32.76 11.97 29.07 9.99004 28.17 9.54004C31.14 9.81004 34.65 10.89 36.36 11.88C36.99 11.61 37.62 11.61 38.88 11.52C38.52 12.15 38.52 12.33 37.26 13.23C37.62 14.13 36.72 19.17 36.09 20.52C36.18 18.45 35.91 15.75 35.19 14.58ZM19.98 32.67C18.81 32.22 18 31.77 16.92 30.78C17.19 30.06 17.55 29.34 18 28.62C17.01 28.8 16.29 28.89 15.48 29.07C14.85 27.9 14.49 26.73 14.13 25.11C13.95 26.82 13.86 28.08 14.13 29.43C13.5 29.7 12.87 29.88 12.24 30.06C13.14 30.6 13.86 30.96 14.85 31.5C15.39 32.67 15.84 33.39 16.74 34.29C16.56 33.57 16.47 32.94 16.56 32.22C17.82 32.49 18.72 32.67 19.98 32.67ZM23.13 15.93C22.77 16.47 22.32 17.28 22.23 17.73C25.38 18.18 27.81 19.71 27.81 19.71C25.11 19.17 23.67 19.26 22.68 19.35C21.69 19.44 21.51 19.62 21.51 19.62C20.79 21.24 20.34 23.94 20.34 23.94C19.8 22.77 19.17 20.43 19.17 20.43C17.82 21.15 14.76 24.12 14.76 24.12C16.47 20.7 18.18 19.17 18.18 19.17C17.55 18.54 16.02 18.27 14.94 18.27C15.57 18 17.01 17.73 18.18 17.64H20.07C20.97 16.65 22.59 16.02 23.13 15.93ZM26.37 30.6C25.83 31.32 25.38 31.95 24.75 32.58C23.76 32.85 22.86 33.03 21.87 33.03C22.5 33.39 23.04 33.57 23.76 33.66C23.13 34.29 22.59 34.65 21.87 35.1C22.95 34.83 24.3 34.47 25.29 33.75C25.83 33.75 26.28 33.75 26.73 33.66C26.64 33.3 26.55 33.12 26.46 32.76C27.45 32.04 28.17 31.32 28.89 30.51C28.08 31.14 27.27 31.5 26.28 32.04C26.37 31.5 26.37 31.14 26.37 30.6Z" fill="white"/>
</g>
<defs>
<linearGradient id="paint0_linear_121_1847" x1="25.785" y1="4.2913" x2="25.785" y2="40.5706" gradientUnits="userSpaceOnUse">
<stop stop-color="#007448"/>
<stop offset="0.6" stop-color="#8CC8AA"/>
<stop offset="1" stop-color="#00915A"/>
</linearGradient>
<linearGradient id="paint1_linear_121_1847" x1="25.701" y1="-2.81605" x2="25.701" y2="38.3728" gradientUnits="userSpaceOnUse">
<stop stop-color="#00915A"/>
<stop offset="0.3" stop-color="#8CC8AA"/>
<stop offset="0.55" stop-color="#00915A"/>
<stop offset="0.8352" stop-color="#007448"/>
<stop offset="0.8909" stop-color="#007D50"/>
<stop offset="0.9815" stop-color="#009567"/>
<stop offset="1" stop-color="#009B6C"/>
</linearGradient>
<linearGradient id="paint2_linear_121_1847" x1="32.1213" y1="7.12365" x2="32.1213" y2="35.3817" gradientUnits="userSpaceOnUse">
<stop stop-color="#00A578"/>
<stop offset="1" stop-color="#00915A"/>
</linearGradient>
<linearGradient id="paint3_linear_121_1847" x1="16.1337" y1="9.27443" x2="16.1337" y2="36.5868" gradientUnits="userSpaceOnUse">
<stop stop-color="#00A578"/>
<stop offset="1" stop-color="#00915A"/>
</linearGradient>
<linearGradient id="paint4_linear_121_1847" x1="21.1271" y1="8.43516" x2="21.1271" y2="35.8655" gradientUnits="userSpaceOnUse">
<stop stop-color="#00A578"/>
<stop offset="1" stop-color="#00915A"/>
</linearGradient>
<linearGradient id="paint5_linear_121_1847" x1="25.4493" y1="9.27435" x2="25.4493" y2="36.5867" gradientUnits="userSpaceOnUse">
<stop stop-color="#00A578"/>
<stop offset="1" stop-color="#00915A"/>
</linearGradient>
</defs>
</svg>
