<svg width="180" height="45" viewBox="0 0 180 45" fill="none" xmlns="http://www.w3.org/2000/svg">
<g opacity="0.8">
<path d="M22.5 24.777C22.5 29.025 24.885 33.3 30.213 33.3C35.541 33.3 37.926 29.025 37.926 24.777C37.926 21.879 36.945 18.54 35.316 15.849C33.732 13.248 31.824 11.7 30.213 11.7C28.602 11.7 26.694 13.248 25.119 15.849C23.481 18.549 22.5 21.879 22.5 24.777ZM77.274 18.063H71.874V12.861H88.461V18.072H83.061V32.148H77.274V18.063ZM100.8 18.063H109.287V12.861H100.8C93.006 12.861 88.839 16.74 88.839 22.5C88.839 28.269 93.006 32.139 100.8 32.139H109.287V26.928H100.8C97.191 26.928 94.815 25.641 94.815 22.491C94.815 19.35 97.191 18.063 100.8 18.063ZM57.015 24.372L60.102 12.861H70.326V32.148H64.539V16.443L60.336 32.139H53.703L49.5 16.452V32.139H43.713V12.861H53.937L57.015 24.372ZM123.696 18.45H121.653V20.34H123.696C124.209 20.34 124.524 20.07 124.524 19.584V19.233C124.515 18.729 124.254 18.45 123.696 18.45ZM124.209 22.5H118.926V12.861H126.693V15.165H121.644V16.425H124.2C126.342 16.425 127.377 17.487 127.377 19.359C127.386 21.33 126.351 22.5 124.209 22.5ZM133.668 18.558H131.517L132.597 14.994L133.668 18.558ZM137.808 22.5L134.829 12.861H130.779L127.8 22.5H130.347L130.896 20.655H134.307L134.865 22.5H137.808ZM144.693 22.5V18.765H141.579V22.5H138.789V12.861H141.579V16.398H144.693V12.861H147.492V22.5H144.693ZM152.451 16.389H151.965V12.861H149.175V22.5H151.965V18.765H152.37L154.953 22.5H158.184L154.692 17.451L157.905 12.852H154.953L152.451 16.389Z" fill="#E30600"/>
</g>
</svg>
