<svg width="180" height="45" viewBox="0 0 180 45" fill="none" xmlns="http://www.w3.org/2000/svg">
<g opacity="0.8">
<path d="M13.5 22.311C13.5023 18.304 15.0952 14.4619 17.9285 11.6285C20.7619 8.79515 24.604 7.20234 28.611 7.19995V12.672C26.6995 12.6756 24.8321 13.2463 23.2452 14.312C21.6583 15.3777 20.4234 16.8903 19.6969 18.6584C18.9704 20.4264 18.7849 22.3704 19.1639 24.2439C19.543 26.1174 20.4695 27.8363 21.8262 29.1829C23.1828 30.5295 24.9087 31.4432 26.785 31.8082C28.6613 32.1732 30.6037 31.9733 32.3662 31.2336C34.1288 30.4938 35.6323 29.2476 36.6861 27.6528C37.7399 26.0581 38.2967 24.1865 38.286 22.275H43.758C43.758 26.2874 42.1641 30.1356 39.3268 32.9728C36.4896 35.81 32.6415 37.404 28.629 37.404C24.6165 37.404 20.7684 35.81 17.9311 32.9728C15.0939 30.1356 13.5 26.2874 13.5 22.275" fill="#016438"/>
<path d="M33.3001 13.8149C33.3037 13.0564 33.5316 12.3159 33.9553 11.6867C34.3789 11.0575 34.9793 10.5677 35.6807 10.2791C36.3822 9.99046 37.1534 9.91585 37.8972 10.0647C38.6409 10.2136 39.324 10.5792 39.8604 11.1156C40.3968 11.652 40.7624 12.3351 40.9113 13.0788C41.0601 13.8226 40.9856 14.5938 40.697 15.2952C40.4083 15.9968 39.9186 16.5971 39.2893 17.0208C38.6601 17.4444 37.9196 17.6723 37.1611 17.6759C36.6537 17.6771 36.1511 17.5781 35.6821 17.3844C35.2132 17.1908 34.787 16.9065 34.4283 16.5477C34.0696 16.1889 33.7852 15.7629 33.5916 15.2939C33.398 14.8249 33.2989 14.3223 33.3001 13.8149Z" fill="#016438"/>
<path d="M21.951 22.311C21.951 20.9866 22.3438 19.6921 23.0796 18.5909C23.8153 17.4897 24.8611 16.6314 26.0847 16.1247C27.3081 15.6179 28.6545 15.4853 29.9534 15.7437C31.2523 16.002 32.4454 16.6397 33.3819 17.5762C34.3183 18.5126 34.9561 19.7058 35.2144 21.0046C35.4727 22.3035 35.3402 23.6499 34.8334 24.8735C34.3266 26.0969 33.4684 27.1427 32.3672 27.8785C31.2661 28.6142 29.9714 29.007 28.6471 29.007C26.8719 29.0046 25.1702 28.2983 23.9149 27.0431C22.6597 25.7879 21.9535 24.0861 21.951 22.311Z" fill="#4FAE2E"/>
<path d="M151.389 17.6401L150.93 19.9351C149.823 24.9121 149.4 26.5501 148.5 31.5001L148.266 31.6891L145.242 31.7611L145.089 31.5721L146.313 26.4421L146.655 24.7591H140.184C139.725 26.7481 139.383 28.5481 138.807 31.4911L138.573 31.6801L135.549 31.7521L135.396 31.5631L136.62 26.4331L137.115 24.2191C137.724 21.7481 138.196 19.2452 138.528 16.7221L138.717 16.5331C139.773 16.4089 140.82 16.2317 141.858 16.0021L142.011 16.1911L141.705 17.6851L141.3 19.9711L140.805 22.1491H147.312C147.735 20.2411 147.888 19.2061 148.266 16.7491L148.455 16.5601C149.511 16.4391 150.559 16.2618 151.596 16.0291L151.749 16.2181L151.443 17.6311L151.389 17.6401ZM114.939 24.3001C115.144 23.4598 115.259 22.5999 115.281 21.7351C115.281 18.7111 113.328 18.2161 112.221 18.2161C107.514 18.2161 106.938 25.4791 106.938 26.5951C106.938 28.9711 108.351 30.0421 109.998 30.0421C113.175 30.0421 114.363 26.7571 114.93 24.3091L114.939 24.3001ZM118.026 25.2631C117.378 27.8281 115.542 32.2651 109.926 32.2651C105.948 32.2651 103.77 30.1951 103.77 26.1451C103.774 25.5703 103.812 24.9961 103.887 24.4261C103.892 24.2707 103.917 24.1166 103.959 23.9671C105.03 17.2171 107.937 10.8001 114.363 10.8001C115.62 10.7887 116.874 10.6591 118.107 10.4131L117.684 13.1131C116.315 13.4126 114.918 13.5664 113.517 13.5721C112.974 13.5601 112.435 13.6557 111.93 13.8534C111.425 14.0512 110.964 14.3471 110.574 14.7241C110.285 15.0132 110.029 15.333 109.809 15.6781C109.639 15.9287 109.497 16.1973 109.386 16.4791C110.304 16.1933 111.26 16.0507 112.221 16.0561C116.127 16.0561 118.458 18.2341 118.458 22.0951C118.447 23.1673 118.305 24.2343 118.035 25.2721L118.026 25.2631ZM156.519 22.5001C157.248 21.8881 157.626 21.5101 158.625 20.5471C159.624 19.5841 162.225 16.9471 162.684 16.4161L163.026 16.2271H166.428L166.509 16.4971C166.203 16.7671 166.05 16.8751 164.862 17.8741C164.403 18.2611 164.097 18.5581 163.521 19.0621L159.66 22.6621L164.286 31.4191L164.097 31.6441L160.803 31.7251L160.569 31.5361C159.804 29.7361 159.57 29.2771 158.508 27.0991L156.447 22.8871C155.799 25.7941 155.376 27.6301 154.647 31.4551L154.458 31.6441L151.434 31.7251L151.281 31.5361L152.505 26.4151L152.964 24.2011C153.573 21.7301 154.045 19.2272 154.377 16.7041L154.566 16.5151C155.622 16.3941 156.67 16.2168 157.707 15.9841L157.86 16.1731L157.554 17.6671L157.095 19.9621L156.519 22.5001ZM130.239 27.9001C129.932 28.1878 129.597 28.444 129.24 28.6651C128.452 29.1257 127.553 29.3622 126.639 29.3491C123.939 29.3491 123.156 27.0541 123.156 25.6411C123.197 24.449 123.504 23.2813 124.054 22.2226C124.603 21.1639 125.382 20.2411 126.333 19.5211C127.742 18.6411 129.38 18.2022 131.04 18.2611H132.381L130.239 27.9001ZM135.9 16.2631L135.747 16.0291H131.652C128.898 16.0291 125.073 16.2181 122.283 19.4761C120.819 21.2917 119.984 23.5346 119.907 25.8661C119.907 29.5741 122.391 31.7161 125.415 31.7161C127.008 31.7712 128.562 31.225 129.771 30.1861L129.6 31.3381L129.753 31.5631L132.543 31.4821L132.777 31.2931C133.389 27.6931 133.578 26.6221 134.577 22.0321L135.9 16.2631Z" fill="#4FAE2E"/>
<path d="M57.294 32.1751C54.045 32.1751 49.419 31.1401 51.102 23.6791C51.75 20.8891 53.667 14.9221 61.659 14.9221C69.426 14.9221 68.274 21.2761 67.779 23.5261C66.321 29.8441 62.46 32.1751 57.294 32.1751ZM58.329 28.8451C60.588 28.8451 61.659 26.4691 62.343 23.4451C62.838 21.3031 63.342 18.1711 60.624 18.1711C58.293 18.1711 57.258 20.4301 56.574 23.4451C55.962 26.2891 55.8 28.8541 58.329 28.8541V28.8451ZM76.23 31.7971H71.253L71.1 31.6441C71.406 30.6541 72.099 27.9721 72.819 24.6781C73.431 22.0411 73.926 19.7011 74.16 18.6391C72.9 18.6391 70.983 18.6391 70.029 18.7201L69.876 18.4861C70.11 17.6851 70.488 16.2631 70.677 15.4261L70.947 15.2731C71.784 15.2731 74.961 15.3541 77.49 15.3541C80.586 15.3541 83.574 15.2731 84.222 15.2371L84.456 15.3901C84.222 16.1191 83.808 17.6491 83.619 18.4501L83.313 18.6391H79.371C79.218 19.3231 78.723 21.3391 77.913 24.8761C77.301 27.5761 76.806 29.9971 76.536 31.5721L76.266 31.8421L76.23 31.7971ZM93.6 19.0171H90.963C90.81 19.7011 90.198 22.2661 89.622 24.7591C88.974 27.7021 88.362 30.4201 88.128 31.5631L87.822 31.7521H82.773L82.584 31.5631C82.89 30.3031 83.727 26.7841 84.501 23.3371C85.275 19.8901 85.959 16.4161 86.184 15.4531L86.4 15.3001C88.083 15.3001 89.766 15.3811 93.933 15.3811C97.227 15.3811 100.359 15.2641 102.033 15.2641L102.186 15.4531C101.952 16.2991 101.034 20.3131 100.125 24.2911C99.396 27.5041 98.748 30.7171 98.559 31.5991L98.325 31.7881H93.24L93.087 31.5631C93.357 30.4921 93.987 27.9631 94.653 24.8311C95.184 22.4551 95.724 19.9351 95.949 19.0171H93.537H93.6Z" fill="#016438"/>
</g>
</svg>
