<svg width="180" height="45" viewBox="0 0 180 45" fill="none" xmlns="http://www.w3.org/2000/svg">
<g opacity="0.8">
<path d="M125.34 11.7454H117.997C117.496 11.7454 117.068 12.1107 116.99 12.6068L114.021 31.4349C113.963 31.8065 114.249 32.1425 114.625 32.1425H118.393C118.744 32.1425 119.044 31.8871 119.098 31.5395L119.94 26.2019C120.019 25.7059 120.446 25.3406 120.948 25.3406H123.272C128.108 25.3406 130.9 22.9998 131.63 18.3608C131.957 16.3319 131.642 14.7376 130.693 13.6215C129.648 12.3942 127.797 11.7454 125.34 11.7454ZM126.188 18.6218C125.787 21.2576 123.774 21.2576 121.827 21.2576H120.719L121.496 16.3365C121.543 16.0388 121.8 15.8198 122.1 15.8198H122.609C123.934 15.8198 125.186 15.8198 125.831 16.5748C126.218 17.0269 126.334 17.6965 126.188 18.6218Z" fill="#009CDE"/>
<path d="M147.288 18.5377H143.772C143.471 18.5377 143.214 18.7568 143.167 19.0545L143.013 20.0376L142.767 19.6815C142.005 18.5763 140.308 18.207 138.613 18.207C134.729 18.207 131.411 21.1508 130.765 25.2792C130.429 27.3388 130.906 29.3074 132.074 30.6812C133.147 31.9435 134.678 32.4689 136.502 32.4689C139.633 32.4689 141.37 30.4571 141.37 30.4571L141.213 31.4346C141.154 31.8062 141.441 32.1425 141.817 32.1425H144.984C145.486 32.1425 145.913 31.7775 145.992 31.2818L147.892 19.2453C147.951 18.8733 147.664 18.5377 147.288 18.5377ZM142.388 25.3815C142.048 27.3903 140.454 28.739 138.419 28.739C137.399 28.739 136.583 28.4111 136.058 27.79C135.538 27.1745 135.342 26.2973 135.508 25.3205C135.824 23.3295 137.444 21.9372 139.448 21.9372C140.446 21.9372 141.257 22.2682 141.792 22.8951C142.33 23.5265 142.542 24.4093 142.388 25.3815Z" fill="#009CDE"/>
<path d="M151.432 12.2625L148.418 31.4353C148.36 31.8065 148.647 32.1425 149.023 32.1425H152.054C152.556 32.1425 152.983 31.7775 153.062 31.2815L156.033 12.4532C156.092 12.0817 155.805 11.7457 155.429 11.7457H152.037C151.735 11.7454 151.479 11.9649 151.432 12.2625ZM47.2445 12.7318C47.6399 10.2112 47.2419 8.49646 45.8786 6.94275C44.3776 5.23263 41.6663 4.5 38.1972 4.5H28.1271C27.4183 4.5 26.8144 5.01581 26.7042 5.71643L22.5107 32.3062C22.4282 32.8309 22.8338 33.3051 23.3644 33.3051H29.5812L29.1522 36.0261C29.0799 36.4852 29.4343 36.9 29.899 36.9H35.1393C35.7594 36.9 36.2874 36.4488 36.3841 35.836L36.4356 35.5694L37.4226 29.3097L37.4863 28.9639C37.583 28.3513 38.111 27.8996 38.7311 27.8996H39.5149C44.5915 27.8996 48.5665 25.8373 49.7279 19.8726C50.2132 17.3804 49.9621 15.3 48.6787 13.8374C48.2909 13.3959 47.8078 13.0302 47.2445 12.7318Z" fill="#009CDE"/>
<path d="M47.2445 12.7318C47.6399 10.2112 47.2418 8.49646 45.8786 6.94275C44.3776 5.23263 41.6663 4.5 38.1972 4.5H28.1271C27.4183 4.5 26.8144 5.01581 26.7042 5.71643L22.5107 32.3062C22.4282 32.8309 22.8338 33.3051 23.3644 33.3051H29.5812L31.1429 23.4024L31.0943 23.713C31.2049 23.0127 31.8032 22.4966 32.5124 22.4966H35.4673C41.2703 22.4966 45.8142 20.1389 47.1415 13.3209C47.1811 13.1196 47.2144 12.9239 47.2445 12.7318Z" fill="#012169"/>
<path d="M72.969 11.7454H65.6263C65.1243 11.7454 64.697 12.1107 64.6184 12.6068L61.6489 31.4349C61.5905 31.8065 61.8776 32.1425 62.2539 32.1425H65.7599C66.2619 32.1425 66.6892 31.7775 66.7678 31.2815L67.569 26.2019C67.6472 25.7059 68.0747 25.3406 68.5766 25.3406H70.9002C75.7369 25.3406 78.5282 22.9998 79.2578 18.3608C79.5861 16.3319 79.271 14.7376 78.3212 13.6215C77.2764 12.3942 75.4253 11.7454 72.969 11.7454ZM73.8166 18.6218C73.4153 21.2576 71.4021 21.2576 69.4554 21.2576H68.3475L69.1244 16.3365C69.1716 16.0388 69.4277 15.8198 69.729 15.8198H70.2369C71.5623 15.8198 72.8142 15.8198 73.4595 16.5748C73.8456 17.0269 73.9624 17.6965 73.8166 18.6218ZM94.9158 18.5377H91.4004C91.0989 18.5377 90.8424 18.7568 90.7956 19.0544L90.6408 20.0376L90.3951 19.6815C89.6334 18.5763 87.9364 18.207 86.2418 18.207C82.3576 18.207 79.0389 21.1507 78.3932 25.2792C78.0568 27.3388 78.534 29.3073 79.7019 30.6812C80.7748 31.9434 82.3061 32.4689 84.1304 32.4689C87.2612 32.4689 88.9981 30.4571 88.9981 30.4571L88.841 31.4346C88.782 31.8062 89.0691 32.1424 89.4456 32.1424H92.6118C93.114 32.1424 93.5406 31.7775 93.6198 31.2818L95.5206 19.2452C95.5791 18.8733 95.292 18.5377 94.9158 18.5377ZM90.0162 25.3814C89.6763 27.3902 88.0813 28.739 86.0471 28.739C85.0273 28.739 84.2109 28.411 83.6862 27.7899C83.1661 27.1744 82.9704 26.2973 83.1355 25.3204C83.4519 23.3294 85.0726 21.9371 87.0757 21.9371C88.074 21.9371 88.8849 22.2682 89.4199 22.8951C89.9584 23.5265 90.1701 24.4093 90.0162 25.3814Z" fill="#003087"/>
<path d="M113.643 18.5377H110.109C109.77 18.5377 109.454 18.7057 109.264 18.9852L104.389 26.1649L102.324 19.2654C102.194 18.8337 101.796 18.5374 101.346 18.5374H97.8722C97.4528 18.5374 97.1576 18.9499 97.2926 19.3473L101.184 30.7696L97.5239 35.9337C97.2368 36.3393 97.5266 36.9 98.0234 36.9H101.554C101.889 36.9 102.202 36.736 102.393 36.4608L114.146 19.4984C114.427 19.0928 114.136 18.5377 113.643 18.5377Z" fill="#003087"/>
<path d="M32.8206 12.7651C32.887 12.344 33.1575 11.9989 33.5216 11.8246C33.6869 11.7454 33.872 11.7012 34.0657 11.7012H41.9593C42.8946 11.7012 43.7664 11.7625 44.5635 11.891C44.7912 11.9276 45.0129 11.9698 45.2284 12.0177C45.4436 12.0656 45.6528 12.1187 45.8552 12.1781C45.9564 12.2074 46.0558 12.2388 46.1538 12.2711C46.5452 12.4012 46.9099 12.5543 47.2451 12.7322C47.6405 10.2115 47.2425 8.49678 45.8792 6.94309C44.3776 5.23263 41.6663 4.5 38.1972 4.5H28.1271C27.4183 4.5 26.8144 5.01581 26.7042 5.71643L22.5107 32.3062C22.4282 32.8309 22.8338 33.3051 23.3644 33.3051H29.5812L31.1429 23.4024L32.8206 12.7651Z" fill="#003087"/>
</g>
</svg>
