<svg width="180" height="45" viewBox="0 0 180 45" fill="none" xmlns="http://www.w3.org/2000/svg">
<g opacity="0.8">
<path d="M21.708 8.20801H49.959V36.459H21.708V8.20801Z" fill="#FFED00"/>
<path d="M84.1769 25.371L83.4479 29.871H87.8399L88.5689 25.371H91.7999L89.8199 37.476H86.6159L87.4529 32.283H83.0609L82.2239 37.476H78.9839L80.9999 25.371H84.2129H84.1769ZM96.9749 25.371H93.5999L91.5749 37.476H94.8869L95.7869 32.247L99.2069 37.512H103.5L98.9999 31.131L105.03 25.407H100.98L96.1289 30.393L96.9749 25.371ZM74.0249 32.94L73.3229 29.07L71.2979 32.94H74.0249ZM74.5109 35.343H69.9389L68.7239 37.44H65.1959L72.0989 25.335H75.6989L78.4889 37.44H74.9699L74.5109 35.343ZM65.8259 33.804C65.7308 34.6173 65.392 35.3827 64.8539 36C63.5669 37.323 61.6139 37.395 60.3539 37.431H55.5029L57.5999 25.371H65.8619L65.4749 27.738H60.4619L60.0749 30.141H61.5059C62.7258 30.0558 63.9367 30.4031 64.9259 31.122C65.2976 31.455 65.5762 31.8791 65.734 32.3526C65.8918 32.8261 65.9235 33.3325 65.8259 33.822V33.804ZM60.5969 32.4H59.6969L59.2469 34.983H60.0839C61.9649 34.983 62.3519 34.461 62.4599 33.759C62.5679 33.057 62.4599 32.4 60.5789 32.4H60.5969ZM144.279 14.157H147.627C147.55 13.7833 147.343 13.4487 147.044 13.2131C146.744 12.9774 146.371 12.8558 145.989 12.87C145.594 12.8296 145.199 12.9398 144.882 13.1784C144.565 13.417 144.349 13.7664 144.279 14.157ZM150.3 15.534V15.849H144.234C144.205 16.0923 144.231 16.3391 144.312 16.5706C144.392 16.8021 144.524 17.0126 144.697 17.1858C144.87 17.3591 145.081 17.4908 145.312 17.571C145.543 17.6513 145.791 17.6779 146.034 17.649C146.311 17.6725 146.589 17.6121 146.831 17.4757C147.073 17.3393 147.27 17.1331 147.393 16.884H150.183C149.733 18.837 147.915 19.71 146.07 19.71C143.37 19.71 141.363 18.18 141.363 15.318C141.329 14.723 141.422 14.1275 141.638 13.5719C141.853 13.0162 142.186 12.5133 142.612 12.097C143.039 11.6807 143.55 11.3607 144.111 11.1588C144.671 10.9567 145.269 10.8774 145.863 10.926C148.689 10.926 150.291 12.726 150.291 15.534H150.3ZM70.2899 13.338C70.0422 13.3254 69.7947 13.3643 69.5627 13.452C69.3307 13.5397 69.1194 13.6744 68.9419 13.8476C68.7644 14.0209 68.6248 14.2289 68.5314 14.4587C68.4382 14.6885 68.3934 14.935 68.3999 15.183C68.3937 15.4269 68.4373 15.6696 68.5277 15.8963C68.6183 16.1229 68.754 16.3287 68.9265 16.5014C69.0991 16.6739 69.305 16.8096 69.5316 16.9001C69.7583 16.9906 70.0009 17.0342 70.2449 17.028C70.4914 17.0438 70.7383 17.007 70.9693 16.9199C71.2004 16.8327 71.4102 16.6974 71.5848 16.5228C71.7594 16.3482 71.8947 16.1384 71.9818 15.9074C72.069 15.6763 72.1058 15.4294 72.0899 15.183C72.0961 14.939 72.0526 14.6963 71.962 14.4696C71.8715 14.243 71.7359 14.0372 71.5633 13.8645C71.3907 13.692 71.1849 13.5563 70.9582 13.4658C70.7316 13.3753 70.4889 13.3317 70.2449 13.338H70.2899ZM74.8799 11.07V19.305H71.9999V18.405C71.7274 18.7935 71.3607 19.1064 70.934 19.3142C70.5073 19.522 70.0349 19.618 69.5609 19.593C69.0027 19.5793 68.4528 19.4539 67.9436 19.2244C67.4345 18.9948 66.9765 18.6657 66.5965 18.2565C66.2166 17.8471 65.9224 17.3659 65.7313 16.8412C65.5403 16.3164 65.4561 15.7587 65.4839 15.201C65.4537 14.6451 65.5349 14.0888 65.7227 13.5648C65.9105 13.0408 66.2012 12.5596 66.5777 12.1496C66.9543 11.7396 67.4089 11.4089 67.915 11.1771C68.4212 10.9454 68.9686 10.8171 69.5249 10.8C69.9903 10.7891 70.4526 10.8792 70.8799 11.064C71.3071 11.249 71.6893 11.5242 71.9999 11.871V11.07H74.8799ZM117.045 13.338C116.801 13.3317 116.558 13.3753 116.331 13.4658C116.105 13.5563 115.899 13.692 115.726 13.8645C115.554 14.0372 115.419 14.243 115.328 14.4696C115.237 14.6963 115.194 14.939 115.2 15.183C115.194 15.4269 115.237 15.6696 115.328 15.8963C115.419 16.1229 115.554 16.3287 115.726 16.5014C115.899 16.6739 116.105 16.8096 116.331 16.9001C116.558 16.9906 116.801 17.0342 117.045 17.028C117.292 17.0438 117.538 17.007 117.769 16.9199C118.001 16.8327 118.21 16.6974 118.385 16.5228C118.56 16.3482 118.695 16.1384 118.782 15.9074C118.869 15.6763 118.906 15.4294 118.89 15.183C118.896 14.939 118.853 14.6963 118.762 14.4696C118.671 14.243 118.536 14.0372 118.363 13.8645C118.191 13.692 117.985 13.5563 117.759 13.4658C117.532 13.3753 117.289 13.3317 117.045 13.338ZM121.653 11.07V19.305H118.8V18.405C118.527 18.7935 118.161 19.1064 117.734 19.3142C117.308 19.522 116.835 19.618 116.361 19.593C115.803 19.5793 115.253 19.4539 114.744 19.2244C114.234 18.9948 113.776 18.6657 113.396 18.2565C113.017 17.8471 112.722 17.3659 112.531 16.8412C112.341 16.3164 112.256 15.7587 112.284 15.201C112.255 14.6451 112.337 14.0891 112.526 13.5655C112.715 13.0419 113.007 12.5614 113.385 12.1523C113.762 11.7431 114.217 11.4135 114.724 11.1828C115.23 10.9521 115.778 10.825 116.334 10.809C116.806 10.7939 117.275 10.8828 117.71 11.0695C118.144 11.2561 118.531 11.5359 118.845 11.889V11.07H121.653ZM55.9529 19.305V7.19995H60.8399C64.1159 7.19995 65.0609 9.53995 65.0609 11.178C65.0838 11.7291 64.9885 12.2787 64.7816 12.79C64.5747 13.3013 64.2608 13.7625 63.8611 14.1426C63.4614 14.5227 62.9851 14.813 62.464 14.994C61.9429 15.1749 61.3892 15.2424 60.8399 15.192H59.0399V19.305H55.9529ZM59.0579 9.81895V12.6H60.1019C61.5329 12.6 61.6679 11.7 61.6679 11.241C61.6679 10.782 61.4609 9.88195 60.1019 9.88195H59.2019L59.0939 9.81895H59.0579ZM76.7069 11.079V19.314H79.4969L82.3589 14.814V19.314H85.2569V11.07H82.4669L79.6049 15.498V11.07L76.7069 11.079ZM81.2069 10.035C81.8859 10.0896 82.565 9.93289 83.1516 9.58657C83.738 9.24016 84.203 8.72091 84.4829 8.09995L82.6019 7.39795C82.5321 7.70002 82.357 7.96734 82.1079 8.15204C81.8589 8.33674 81.5523 8.42675 81.2429 8.40595C80.9328 8.43054 80.6244 8.34198 80.3745 8.15667C80.1247 7.97136 79.9504 7.70183 79.8839 7.39795L78.0029 8.09995C78.2865 8.70905 78.7478 9.21811 79.326 9.5602C79.9043 9.90238 80.5725 10.0616 81.2429 10.017L81.2069 10.035ZM91.2149 22.887V19.44C89.5049 19.44 86.6429 18.738 86.6429 15.183C86.6429 11.628 89.4689 10.962 91.2149 10.962V7.36195H94.1129V10.962C95.8589 10.962 98.6129 11.664 98.6129 15.183C98.6129 18.702 95.7869 19.44 94.1129 19.44V22.932L91.2149 22.887ZM93.9149 12.987V17.559C94.8959 17.559 95.8679 16.857 95.8679 15.255C95.8679 13.653 94.8869 12.951 93.9149 12.987ZM91.4039 17.487V12.987C90.4229 12.987 89.4509 13.689 89.4509 15.291C89.4509 16.893 90.4319 17.559 91.4039 17.523V17.487ZM104.202 22.923V19.44C102.492 19.44 99.6299 18.738 99.6299 15.183C99.6299 11.628 102.456 10.962 104.202 10.962V7.36195H107.1V10.962C108.846 10.962 111.672 11.664 111.672 15.183C111.672 18.702 108.846 19.44 107.1 19.44V22.932H104.202V22.923ZM106.902 13.023V17.595C107.883 17.595 108.855 16.893 108.855 15.291C108.855 13.689 107.874 12.987 106.902 13.023ZM104.355 17.523V13.023C103.374 13.023 102.366 13.725 102.366 15.327C102.339 15.6083 102.372 15.892 102.463 16.1596C102.553 16.4273 102.7 16.6728 102.892 16.8801C103.083 17.0874 103.317 17.2518 103.577 17.3626C103.837 17.4734 104.117 17.528 104.4 17.523H104.355ZM123.543 11.07V19.305H126.333L129.195 14.805V19.305H132.093V11.07H129.303L126.405 15.462V11.07H123.543ZM128.043 10.026C128.711 10.068 129.375 9.90643 129.949 9.56245C130.522 9.21856 130.979 8.70857 131.256 8.09995L129.375 7.39795C129.305 7.70002 129.13 7.96734 128.881 8.15204C128.632 8.33674 128.326 8.42675 128.016 8.40595C127.705 8.43449 127.395 8.34746 127.144 8.1615C126.894 7.97554 126.72 7.7037 126.657 7.39795L124.767 8.09995C125.05 8.70905 125.512 9.21811 126.09 9.5602C126.669 9.90238 127.336 10.0616 128.007 10.017L128.043 10.026ZM134.253 13.437C134.878 13.0037 135.616 12.76 136.377 12.735C136.728 12.735 137.529 12.807 137.529 13.464C137.529 14.121 136.827 14.166 136.557 14.166H135.126V15.966H136.386C136.809 15.966 137.574 15.966 137.574 16.668C137.574 16.947 137.403 17.469 136.386 17.469C135.503 17.4669 134.641 17.2005 133.911 16.704L133.2 18.675C134.325 19.3208 135.602 19.6562 136.899 19.647C140.211 19.647 140.634 17.73 140.634 17.1C140.638 16.6194 140.472 16.1531 140.166 15.7827C139.859 15.4123 139.432 15.1617 138.96 15.075C139.326 14.9103 139.635 14.6397 139.847 14.2981C140.059 13.9565 140.163 13.5595 140.148 13.158C140.148 11.241 138.123 10.854 136.872 10.854C135.699 10.8756 134.545 11.1488 133.488 11.655L134.253 13.437ZM151.758 19.296H154.656V16.02H157.311V19.296H160.2V11.07H157.302V13.968H154.647V11.07H151.749L151.758 19.296Z" fill="black"/>
<path d="M50.9399 37.4399H20.7V7.19995H50.9399V37.4399ZM49.9589 8.20795H21.708V36.4589H49.9589V8.20795Z" fill="black"/>
<path d="M35.838 25.785L27.153 34.47L23.697 31.014L32.4 22.338L30.6 20.538V16.938L29.34 15.678V18.783L28.26 19.863L23.832 15.507L22.752 16.587C22.7578 15.6194 22.9549 14.6626 23.3317 13.7714C23.7087 12.8802 24.2578 12.0723 24.948 11.394C25.614 10.6477 26.5465 10.1927 27.5446 10.127C28.5428 10.0614 29.5269 10.3904 30.285 11.043L34.677 15.471L33.561 16.587L35.838 18.9L38.142 16.596L37.026 15.48L41.4 11.034C42.157 10.3791 43.1416 10.0487 44.1405 10.1144C45.1394 10.1801 46.0722 10.6366 46.737 11.385C47.4271 12.0633 47.9763 12.8712 48.3532 13.7624C48.73 14.6536 48.927 15.6104 48.933 16.578L47.853 15.498L43.425 19.89L42.345 18.81V15.678L41.094 16.938V20.538L39.294 22.338L47.979 31.023L44.523 34.47L35.838 25.785Z" fill="black"/>
</g>
</svg>
