<svg width="180" height="45" viewBox="0 0 180 45" fill="none" xmlns="http://www.w3.org/2000/svg">
<g opacity="0.8">
<path d="M26.3701 6.30005C25.8301 6.93005 22.8601 11.16 20.2501 17.7301C19.5301 19.71 18.2701 24.03 18.0901 28.17V30.5101C18.1801 34.7401 18.8101 38.5201 19.0801 39.69C19.0801 37.98 19.0801 32.4 20.4301 27.81C21.7801 23.22 24.3001 17.91 26.3701 15.21C28.6201 18 31.4101 24.21 32.4001 27.9C33.3901 31.59 33.9301 36.2701 33.6601 39.6001C34.2901 37.6201 34.7401 34.38 34.8301 31.32C34.9201 28.26 34.5601 23.0401 32.5801 17.64C30.6901 12.15 26.9101 6.93005 26.3701 6.30005Z" fill="url(#paint0_linear_121_1853)"/>
<path d="M22.4101 26.4601C21.9601 27.6301 21.1501 30.2401 21.0601 32.7601C20.8801 35.8201 21.5101 38.8801 21.6901 39.6901C21.6901 38.7001 21.6901 35.2801 22.5901 32.5801C23.4901 29.7901 25.1101 26.6401 26.4601 24.9301C27.9001 26.6401 29.7001 30.3301 30.3301 32.5801C30.9601 34.8301 31.3201 37.6201 31.1401 39.6901C31.5001 38.5201 31.8601 36.5401 31.8601 34.7401C31.9501 32.9401 31.6801 29.7901 30.4201 26.4601C29.1601 23.2201 26.7301 20.0701 26.3701 19.6201C26.0101 19.9801 24.1201 22.5001 22.4101 26.4601Z" fill="url(#paint1_linear_121_1853)"/>
<path d="M50.2199 29.6099C50.2199 29.9699 50.13 29.9699 50.13 29.9699C50.13 29.9699 50.0399 30.0599 49.5899 30.0599C49.2299 30.0599 49.05 29.9699 49.05 29.9699C49.05 29.9699 48.96 29.8799 48.96 29.6099V16.0199C48.96 15.6599 49.05 15.6599 49.05 15.6599C49.05 15.6599 49.2299 15.5699 49.5899 15.5699C50.0399 15.5699 50.13 15.6599 50.13 15.6599C50.13 15.6599 50.2199 15.7499 50.2199 16.0199V19.9799H53.7299V16.0199C53.7299 15.3899 53.6399 14.9399 53.5499 14.5799C53.1899 13.3199 51.8399 12.6899 49.5899 12.6899H49.5C48.15 12.6899 47.16 12.8699 46.62 13.2299C45.81 13.7699 45.45 14.6699 45.45 16.0199V29.6099C45.45 30.9599 45.81 31.8599 46.62 32.3999C47.25 32.7599 48.1499 32.9399 49.5899 32.9399C51.8399 32.9399 53.1899 32.3099 53.5499 31.0499C53.6399 30.6899 53.7299 30.2399 53.7299 29.6099V25.1099H50.2199V29.6099Z" fill="url(#paint2_linear_121_1853)"/>
<path d="M55.98 32.8499H63V29.6999H59.49V23.3999H62.82V20.3399H59.49V15.9299H63V12.8699H55.98V32.8499Z" fill="url(#paint3_linear_121_1853)"/>
<path d="M72.54 22.5899C72.27 22.2299 71.91 22.0499 71.55 21.8699C71.91 21.6899 72.18 21.5099 72.36 21.3299C72.72 20.9699 72.9 20.2499 72.9 19.3499V16.6499C72.9 15.2999 72.72 14.3099 72.18 13.7699C71.64 13.1399 70.74 12.8699 69.39 12.8699H64.98V32.8499H69.93C70.47 32.8499 70.92 32.7599 71.28 32.6699C72.45 32.3099 73.08 31.0499 73.08 28.7999V24.7499C73.08 23.7599 72.9 23.0399 72.54 22.5899ZM69.57 28.7099C69.57 29.7899 69.12 29.8799 68.76 29.8799H68.4V23.3999H68.67C69.12 23.3999 69.57 23.5799 69.57 24.7499V28.7099ZM69.57 19.2599C69.57 20.4299 69.03 20.4299 68.85 20.4299H68.4V15.6599H68.85C69.12 15.6599 69.57 15.6599 69.57 16.7399V19.2599Z" fill="url(#paint4_linear_121_1853)"/>
<path d="M75.3298 32.8499H82.4398V29.6999H78.8398V23.3999H82.2598V20.3399H78.8398V15.9299H82.4398V12.8699H75.3298V32.8499Z" fill="url(#paint5_linear_121_1853)"/>
<path d="M92.3399 14.8499C92.2499 13.8599 91.7099 13.2299 90.9899 13.0499C90.6299 12.9599 90.0899 12.8699 89.3699 12.8699H84.4199V32.7599H87.9299V25.9199C89.2799 25.9199 90.0899 25.9199 90.4499 25.8299C91.2599 25.7399 91.7999 25.2899 92.0699 24.7499C92.3399 24.2099 92.5199 23.3099 92.5199 21.9599V16.9199C92.5199 15.9299 92.4299 15.2099 92.3399 14.8499ZM89.0999 21.6899C89.0999 22.4099 89.0099 22.5899 89.0099 22.5899C89.0099 22.6799 88.9199 22.8599 88.5599 22.8599H88.0199V16.0199H88.5599C89.0099 16.0199 89.0099 16.1999 89.0099 16.2899C89.0099 16.2899 89.0999 16.4699 89.0999 17.1899V21.6899Z" fill="url(#paint6_linear_121_1853)"/>
<path d="M94.6799 32.8499H98.1899V15.9299H101.16V12.8699H94.6799V32.8499Z" fill="url(#paint7_linear_121_1853)"/>
<path d="M108.45 12.8699H103.5L101.25 32.8499H104.49L105.03 27.9899H106.74L107.19 32.8499H110.7L108.45 12.8699ZM105.03 25.4699L105.93 16.0199L106.74 25.4699H105.03Z" fill="url(#paint8_linear_121_1853)"/>
<path d="M119.07 13.2299C118.53 12.8699 117.54 12.6899 116.19 12.6899H116.1C113.76 12.6899 112.41 13.3199 112.14 14.5799C112.05 15.0299 111.96 15.4799 111.96 16.0199V18.6299H115.47V16.2899C115.47 15.8399 115.56 15.6599 115.56 15.6599C115.56 15.6599 115.65 15.5699 116.1 15.5699C116.37 15.5699 116.64 15.6599 116.64 16.3799V19.3499C116.64 20.3399 116.28 20.3399 116.1 20.3399H114.12V23.3099H116.1C116.28 23.3099 116.64 23.3099 116.64 24.3899V29.4299C116.64 30.1499 116.37 30.2399 116.1 30.2399C115.83 30.2399 115.65 30.1499 115.56 30.0599C115.56 30.0599 115.47 29.9699 115.47 29.4299V25.1999H111.96V29.6099C111.96 30.1499 112.05 30.6899 112.14 31.0499C112.5 32.3099 113.76 32.9399 116.1 32.9399C117.54 32.9399 118.53 32.7599 119.07 32.3999C119.79 31.9499 120.15 30.9599 120.15 29.6099V24.7499C120.15 23.3999 119.7 22.4099 118.71 21.8699C119.61 21.4199 120.15 20.5199 120.15 19.2599V16.0199C120.24 14.6699 119.79 13.7699 119.07 13.2299Z" fill="url(#paint9_linear_121_1853)"/>
<path d="M130.05 21.33C129.78 20.7 129.24 20.34 128.43 20.25C128.07 20.16 127.26 20.16 125.91 20.16V16.02H130.23V12.96H122.4V32.94H126.99C127.71 32.94 128.25 32.85 128.7 32.76C129.51 32.58 130.05 32.04 130.32 31.05C130.5 30.6 130.5 29.79 130.5 28.8V24.21C130.5 22.86 130.32 21.87 130.05 21.33ZM126.99 28.44C126.99 29.07 126.9 29.34 126.9 29.43C126.81 29.61 126.45 29.7 126.09 29.7H125.91V23.22H126.09C126.36 23.22 126.81 23.31 126.9 23.49C126.9 23.58 126.99 23.76 126.99 24.48V28.44Z" fill="url(#paint10_linear_121_1853)"/>
<path d="M138.96 12.8699H134.01L131.76 32.8499H135L135.54 27.9899H137.25L137.7 32.8499H141.21L138.96 12.8699ZM135.63 25.4699L136.53 16.0199L137.34 25.4699H135.63Z" fill="url(#paint11_linear_121_1853)"/>
<path d="M147.24 20.2499H146.16V12.8699H142.65V32.8499H146.16V23.4899H147.24V32.8499H150.75V12.8699H147.24V20.2499Z" fill="url(#paint12_linear_121_1853)"/>
<path d="M159.21 22.2299L161.91 12.8699H158.4L156.69 19.2599V12.8699H153.18V32.8499H156.69V25.6499L158.31 32.8499H162L159.21 22.2299Z" fill="url(#paint13_linear_121_1853)"/>
</g>
<defs>
<linearGradient id="paint0_linear_121_1853" x1="26.4664" y1="39.69" x2="26.4664" y2="6.29996" gradientUnits="userSpaceOnUse">
<stop stop-color="#0073B7"/>
<stop offset="1" stop-color="#1A93CD"/>
</linearGradient>
<linearGradient id="paint1_linear_121_1853" x1="26.452" y1="39.6901" x2="26.452" y2="19.5749" gradientUnits="userSpaceOnUse">
<stop stop-color="#0073B7"/>
<stop offset="1" stop-color="#1A93CD"/>
</linearGradient>
<linearGradient id="paint2_linear_121_1853" x1="126.45" y1="32.9399" x2="126.45" y2="12.7281" gradientUnits="userSpaceOnUse">
<stop stop-color="#0073B7"/>
<stop offset="1" stop-color="#1A93CD"/>
</linearGradient>
<linearGradient id="paint3_linear_121_1853" x1="126.45" y1="32.9399" x2="126.45" y2="12.728" gradientUnits="userSpaceOnUse">
<stop stop-color="#0073B7"/>
<stop offset="1" stop-color="#1A93CD"/>
</linearGradient>
<linearGradient id="paint4_linear_121_1853" x1="126.45" y1="32.9399" x2="126.45" y2="12.728" gradientUnits="userSpaceOnUse">
<stop stop-color="#0073B7"/>
<stop offset="1" stop-color="#1A93CD"/>
</linearGradient>
<linearGradient id="paint5_linear_121_1853" x1="126.45" y1="32.9399" x2="126.45" y2="12.728" gradientUnits="userSpaceOnUse">
<stop stop-color="#0073B7"/>
<stop offset="1" stop-color="#1A93CD"/>
</linearGradient>
<linearGradient id="paint6_linear_121_1853" x1="126.45" y1="32.9399" x2="126.45" y2="12.728" gradientUnits="userSpaceOnUse">
<stop stop-color="#0073B7"/>
<stop offset="1" stop-color="#1A93CD"/>
</linearGradient>
<linearGradient id="paint7_linear_121_1853" x1="126.45" y1="32.9399" x2="126.45" y2="12.728" gradientUnits="userSpaceOnUse">
<stop stop-color="#0073B7"/>
<stop offset="1" stop-color="#1A93CD"/>
</linearGradient>
<linearGradient id="paint8_linear_121_1853" x1="126.45" y1="32.9399" x2="126.45" y2="12.728" gradientUnits="userSpaceOnUse">
<stop stop-color="#0073B7"/>
<stop offset="1" stop-color="#1A93CD"/>
</linearGradient>
<linearGradient id="paint9_linear_121_1853" x1="126.45" y1="32.9399" x2="126.45" y2="12.7281" gradientUnits="userSpaceOnUse">
<stop stop-color="#0073B7"/>
<stop offset="1" stop-color="#1A93CD"/>
</linearGradient>
<linearGradient id="paint10_linear_121_1853" x1="126.45" y1="32.94" x2="126.45" y2="12.7281" gradientUnits="userSpaceOnUse">
<stop stop-color="#0073B7"/>
<stop offset="1" stop-color="#1A93CD"/>
</linearGradient>
<linearGradient id="paint11_linear_121_1853" x1="126.45" y1="32.9399" x2="126.45" y2="12.728" gradientUnits="userSpaceOnUse">
<stop stop-color="#0073B7"/>
<stop offset="1" stop-color="#1A93CD"/>
</linearGradient>
<linearGradient id="paint12_linear_121_1853" x1="126.45" y1="32.9399" x2="126.45" y2="12.728" gradientUnits="userSpaceOnUse">
<stop stop-color="#0073B7"/>
<stop offset="1" stop-color="#1A93CD"/>
</linearGradient>
<linearGradient id="paint13_linear_121_1853" x1="126.45" y1="32.9399" x2="126.45" y2="12.728" gradientUnits="userSpaceOnUse">
<stop stop-color="#0073B7"/>
<stop offset="1" stop-color="#1A93CD"/>
</linearGradient>
</defs>
</svg>
