<svg width="20" height="20" viewBox="0 0 20 20" fill="none" xmlns="http://www.w3.org/2000/svg">
<g clip-path="url(#clip0_2_800)">
<path d="M12.9583 10.8333C13.5833 10.8333 14.1333 10.4916 14.4166 9.97496L17.4 4.56663C17.7083 4.01663 17.3083 3.33329 16.675 3.33329H4.34165L3.55831 1.66663H0.833313V3.33329H2.49998L5.49998 9.65829L4.37498 11.6916C3.76665 12.8083 4.56665 14.1666 5.83331 14.1666H15.8333V12.5H5.83331L6.74998 10.8333H12.9583ZM5.13331 4.99996H15.2583L12.9583 9.16663H7.10831L5.13331 4.99996ZM5.83331 15C4.91665 15 4.17498 15.75 4.17498 16.6666C4.17498 17.5833 4.91665 18.3333 5.83331 18.3333C6.74998 18.3333 7.49998 17.5833 7.49998 16.6666C7.49998 15.75 6.74998 15 5.83331 15ZM14.1666 15C13.25 15 12.5083 15.75 12.5083 16.6666C12.5083 17.5833 13.25 18.3333 14.1666 18.3333C15.0833 18.3333 15.8333 17.5833 15.8333 16.6666C15.8333 15.75 15.0833 15 14.1666 15Z" fill="white"/>
</g>
<defs>
<clipPath id="clip0_2_800">
<rect width="20" height="20" fill="white"/>
</clipPath>
</defs>
</svg>
