<svg width="180" height="45" viewBox="0 0 180 45" fill="none" xmlns="http://www.w3.org/2000/svg">
<g opacity="0.8">
<path d="M85.1401 23.67C84.4201 22.68 83.3401 22.05 82.1701 21.78C83.2501 21.51 84.2401 20.88 84.8701 19.98C85.5001 19.08 85.8601 18 85.7701 16.92C85.7701 14.04 83.7001 11.52 79.6501 11.52H68.5801V32.67H80.1001C84.1501 32.67 86.2201 30.15 86.2201 27C86.2201 25.83 85.8601 24.57 85.1401 23.67ZM73.0801 15.39H78.7501C79.1101 15.39 79.3801 15.39 79.6501 15.48C79.9201 15.57 80.1901 15.75 80.4601 15.93C80.7301 16.11 80.9101 16.38 81.0001 16.74C81.0901 17.01 81.1801 17.37 81.1801 17.64C81.1801 18 81.0901 18.27 81.0001 18.54C80.9101 18.81 80.7301 19.08 80.4601 19.35C80.1901 19.53 79.9201 19.71 79.6501 19.8C79.3801 19.89 79.0201 19.98 78.7501 19.89H73.0801V15.39ZM78.8401 28.8H73.0801V23.85H78.8401C79.2001 23.85 79.5601 23.85 79.8301 23.94C80.1901 24.03 80.4601 24.21 80.7301 24.48C81.0001 24.75 81.1801 25.02 81.3601 25.29C81.5401 25.65 81.5401 25.92 81.5401 26.28C81.6301 27.9 80.5501 28.8 78.8401 28.8ZM99.5401 19.26H94.0501V15.48H104.94V11.52H89.5501V32.67H99.5401C104.04 32.67 106.56 29.61 106.56 25.92C106.56 22.23 104.04 19.26 99.5401 19.26ZM101.61 27.09C101.43 27.45 101.25 27.72 100.98 27.99C100.71 28.26 100.35 28.44 99.9901 28.62C99.6301 28.71 99.2701 28.8 98.9101 28.8H94.0501V23.31H98.9101C99.2701 23.31 99.6301 23.31 99.9901 23.49C100.35 23.58 100.71 23.85 100.98 24.12C101.25 24.39 101.43 24.66 101.61 25.02C101.79 25.38 101.88 25.74 101.88 26.1C101.88 26.46 101.79 26.73 101.61 27.09ZM119.25 11.52H109.35V32.67H113.85V25.2H119.25C123.84 25.2 126.36 22.05 126.36 18.36C126.36 14.67 123.84 11.52 119.25 11.52ZM121.5 19.53C121.32 19.89 121.14 20.25 120.78 20.52C120.51 20.79 120.15 20.97 119.79 21.15C119.43 21.24 118.98 21.33 118.62 21.24H113.85V15.57H118.62C118.98 15.57 119.43 15.57 119.79 15.66C120.15 15.75 120.51 16.02 120.78 16.29C121.05 16.56 121.32 16.92 121.5 17.28C121.68 17.64 121.77 18 121.77 18.45C121.77 18.81 121.68 19.17 121.5 19.53ZM138.6 11.52H128.7V32.67H133.2V25.2H138.6C143.19 25.2 145.71 22.05 145.71 18.36C145.71 14.67 143.28 11.52 138.6 11.52ZM140.94 19.53C140.76 19.89 140.58 20.25 140.22 20.52C139.95 20.79 139.59 20.97 139.23 21.15C138.87 21.24 138.42 21.33 138.06 21.24H133.2V15.57H137.97C138.33 15.57 138.78 15.57 139.14 15.66C139.5 15.75 139.86 16.02 140.13 16.29C140.4 16.56 140.67 16.92 140.85 17.28C141.03 17.64 141.12 18 141.12 18.45C141.21 18.81 141.12 19.17 140.94 19.53Z" fill="#1D1D1B"/>
<path d="M38.34 21.42L45.3601 21.06L45.99 32.31L38.97 32.67L38.34 21.42ZM46.35 29.79L48.15 22.95L59.04 25.83L57.24 32.67L46.35 29.79ZM50.85 20.88L56.97 11.43L62.91 15.3L56.79 24.75L50.85 20.88ZM42.57 8.91L48.15 4.5L55.26 13.23L49.77 17.64C49.68 17.73 42.66 8.91 42.57 8.91ZM33.3 15.3L43.83 11.25L46.35 17.82L35.82 21.87L33.3 15.3Z" fill="#1D1D1B"/>
<path d="M38.6101 37.4399H145.8V39.7799H38.6101V37.4399Z" fill="#FFD101"/>
</g>
</svg>
