<svg width="180" height="45" viewBox="0 0 180 45" fill="none" xmlns="http://www.w3.org/2000/svg">
<g opacity="0.8" clip-path="url(#clip0_121_1851)">
<path d="M36.27 15.3001C36 14.8501 36 14.4001 36.09 13.9501C36.18 13.5001 36.54 13.1401 36.9 12.8701L45 8.1901C45.09 8.1901 45.27 8.1001 45.45 8.1001C45.63 8.1001 45.81 8.1901 45.9 8.1901L54 12.7801C54.36 13.0501 54.72 13.4101 54.81 13.8601C54.9 14.3101 54.9 14.7601 54.63 15.2101C54.36 15.5701 54 15.9301 53.55 16.0201C53.1 16.2001 52.65 16.2001 52.2 15.9301L45.45 12.0601L38.7 15.9301C38.52 16.0201 38.25 16.1101 38.07 16.2001H37.35C37.08 16.1101 36.9 16.0201 36.72 15.9301C36.54 15.6601 36.45 15.4801 36.27 15.3001Z" fill="#EB3723"/>
<path d="M53.01 17.9101H37.98C37.71 17.9101 37.53 18.0001 37.35 18.1801C37.17 18.3601 37.08 18.5401 37.08 18.8101V27.4501C37.08 27.9901 37.26 28.5301 37.71 28.8901C38.07 29.2501 38.61 29.5201 39.15 29.5201C39.69 29.5201 40.23 29.3401 40.59 28.8901C40.95 28.5301 41.22 27.9901 41.22 27.4501V21.4201H43.65V27.4501C43.65 27.9901 43.83 28.5301 44.28 28.8901C44.64 29.2501 45.18 29.5201 45.72 29.5201C46.26 29.5201 46.8 29.3401 47.16 28.8901C47.52 28.5301 47.79 27.9901 47.79 27.4501V21.4201H50.22V27.4501C50.22 27.9901 50.4 28.5301 50.85 28.8901C51.21 29.2501 51.75 29.5201 52.29 29.5201C52.83 29.5201 53.37 29.3401 53.73 28.8901C54.09 28.5301 54.36 27.9901 54.36 27.4501V18.8101C54.27 18.5401 54.18 18.3601 54 18.1801C53.46 18.0001 53.28 17.9101 53.01 17.9101ZM9.71997 24.7501C9.53997 24.3001 9.17997 23.9401 8.81997 23.6701C8.54997 23.4901 8.27997 23.3101 7.91997 23.2201C8.36997 23.0401 8.72997 22.6801 8.99997 22.2301C9.26997 21.7801 9.35997 21.3301 9.35997 20.8801C9.35997 20.4301 9.35997 17.8201 5.75997 17.8201H0.359966H0.269966C0.269966 17.8201 0.179966 17.8201 0.179966 17.9101L0.0899658 18.0001V29.1601C0.0899658 29.1601 0.0899658 29.2501 0.179966 29.2501L0.269966 29.3401H6.02997C9.71997 29.3401 9.89997 26.6401 9.89997 26.0101C9.98997 25.6501 9.89997 25.2001 9.71997 24.7501ZM3.50997 20.5201H4.67997C4.94997 20.5201 5.21997 20.6101 5.57997 20.7001C5.75997 20.7901 5.84997 20.8801 5.93997 20.9701C6.02997 21.1501 6.02997 21.2401 6.02997 21.4201C6.02997 21.9601 5.66997 22.3201 4.76997 22.3201H3.50997V20.5201ZM4.85997 26.8201H3.50997V24.9301H4.85997C5.84997 24.9301 6.38997 25.3801 6.38997 25.8301C6.38997 26.5501 5.93997 26.8201 4.85997 26.8201ZM118.35 16.9201C119.07 16.9201 119.7 16.8301 120.33 16.5601C120.96 16.2901 121.5 15.8401 121.86 15.2101L121.95 15.1201V15.0301C121.95 15.0301 121.95 14.9401 121.86 14.9401L121.77 14.8501L120.06 14.0401H119.79C119.7 14.0401 119.61 14.1301 119.61 14.2201C119.43 14.4001 119.25 14.5801 118.98 14.7601C118.71 14.8501 118.44 14.9401 118.26 14.9401C118.08 14.9401 117.72 14.8501 117.54 14.7601C117.27 14.6701 117.09 14.4901 116.91 14.2201C116.82 14.0401 116.64 13.9501 116.55 14.1301L114.84 14.9401C114.75 15.0301 114.75 15.0301 114.75 15.1201V15.3901C115.11 15.9301 115.65 16.4701 116.28 16.7401C117 16.9201 117.63 17.0101 118.35 16.9201C118.35 17.0101 118.35 16.9201 118.35 16.9201ZM30.51 20.7001C30.96 20.7001 31.41 20.7901 31.77 20.9701C32.13 21.1501 32.49 21.4201 32.76 21.7801L32.85 21.8701H33.03C33.03 21.8701 33.12 21.8701 33.12 21.7801L34.74 19.7101C34.83 19.6201 34.83 19.5301 34.83 19.4401C34.83 19.3501 34.83 19.2601 34.74 19.1701C33.48 18.1801 31.95 17.5501 30.42 17.5501C29.61 17.5501 28.8 17.6401 28.08 17.9101C27.36 18.1801 26.64 18.6301 26.1 19.1701C25.56 19.7101 25.11 20.4301 24.84 21.1501C24.57 21.8701 24.48 22.6801 24.48 23.4901C24.48 25.8301 25.92 29.4301 30.33 29.4301C31.95 29.4301 33.48 28.8901 34.65 27.8101C34.74 27.7201 34.74 27.6301 34.74 27.5401C34.74 27.4501 34.74 27.3601 34.65 27.2701L33.3 25.6501L33.21 25.5601H33.12H33.03C33.03 25.5601 32.94 25.5601 32.94 25.6501C32.67 26.0101 32.31 26.1901 31.86 26.3701C31.5 26.5501 31.05 26.6401 30.6 26.6401C29.43 26.6401 28.26 25.6501 28.26 23.5801C28.08 21.9601 28.98 20.7001 30.51 20.7001ZM22.86 21.4201C22.59 20.7001 22.14 19.9801 21.6 19.4401C21.06 18.9001 20.34 18.4501 19.62 18.1801C18.9 17.9101 18.09 17.7301 17.28 17.8201C16.47 17.8201 15.66 17.9101 14.94 18.1801C14.22 18.4501 13.5 18.9001 12.96 19.4401C12.42 19.9801 11.97 20.7001 11.7 21.4201C11.43 22.1401 11.34 22.9501 11.34 23.7601C11.34 26.1901 12.78 29.7901 17.19 29.7901C21.6 29.7901 23.04 26.1901 23.04 23.7601C23.22 22.9501 23.13 22.1401 22.86 21.4201ZM17.28 26.8201C16.11 26.8201 14.85 25.8301 14.85 23.6701C14.85 21.8701 15.75 20.5201 17.28 20.5201C18.72 20.5201 19.62 21.8701 19.62 23.6701C19.62 25.8301 18.45 26.8201 17.28 26.8201ZM92.52 17.9101H89.64H89.55C89.55 17.9101 89.46 17.9101 89.46 18.0001L89.37 18.0901V22.2301H85.95V18.1801V18.0901C85.95 18.0901 85.95 18.0001 85.86 18.0001L85.77 17.9101H82.8H82.71C82.71 17.9101 82.62 17.9101 82.62 18.0001L82.53 18.0901V29.2501C82.53 29.2501 82.53 29.3401 82.62 29.3401L82.71 29.4301H85.77C85.77 29.4301 85.86 29.4301 85.86 29.3401L85.95 29.2501V24.9301H89.37V29.2501C89.37 29.2501 89.37 29.3401 89.46 29.3401L89.55 29.4301H92.61C92.61 29.4301 92.7 29.4301 92.7 29.3401L92.79 29.2501V18.1801C92.88 18.0001 92.7 17.9101 92.52 17.9101ZM123.21 17.9101H119.97C119.88 17.9101 119.88 18.0001 119.88 18.0901L116.64 24.0301V18.1801V18.0901C116.64 18.0901 116.64 18.0001 116.55 18.0001L116.46 17.9101H113.49H113.4C113.4 17.9101 113.31 17.9101 113.31 18.0001L113.22 18.0901V29.1601C113.22 29.1601 113.22 29.2501 113.31 29.2501L113.4 29.3401H116.55C116.64 29.3401 116.64 29.3401 116.73 29.2501C116.82 29.2501 116.82 29.1601 116.82 29.1601L120.06 23.2201V29.1601C120.06 29.1601 120.06 29.2501 120.15 29.2501L120.24 29.3401H123.3C123.3 29.3401 123.39 29.3401 123.39 29.2501L123.48 29.1601V18.1801V18.0901C123.48 18.0901 123.48 18.0001 123.39 18.0001L123.3 17.9101H123.21ZM67.41 21.4201C67.14 20.7001 66.69 19.9801 66.15 19.4401C65.61 18.9001 64.89 18.4501 64.17 18.1801C63.45 17.9101 62.64 17.7301 61.83 17.8201C61.02 17.8201 60.21 17.9101 59.49 18.1801C58.77 18.4501 58.05 18.9001 57.51 19.4401C56.97 19.9801 56.52 20.7001 56.25 21.4201C55.98 22.1401 55.89 22.9501 55.89 23.7601C55.89 26.1901 57.33 29.7901 61.74 29.7901C66.15 29.7901 67.59 26.1901 67.59 23.7601C67.86 22.9501 67.68 22.1401 67.41 21.4201ZM61.92 26.8201C60.75 26.8201 59.49 25.8301 59.49 23.6701C59.49 21.8701 60.39 20.5201 61.92 20.5201C63.45 20.5201 64.35 21.8701 64.35 23.6701C64.26 25.8301 63 26.8201 61.92 26.8201ZM110.07 17.9101H107.19H107.1C107.1 17.9101 107.01 17.9101 107.01 18.0001L106.92 18.0901V29.2501C106.92 29.2501 106.92 29.3401 107.01 29.3401L107.1 29.4301H110.16C110.16 29.4301 110.25 29.4301 110.25 29.3401L110.34 29.2501V18.1801V18.0901C110.34 18.0901 110.34 18.0001 110.25 18.0001L110.16 17.9101H110.07ZM100.8 22.1401H99.09V18.2701V18.1801C99.09 18.1801 99.09 18.0901 99 18.0901L98.91 18.0001H95.94H95.85C95.85 18.0001 95.76 18.0001 95.76 18.0901L95.67 18.1801V29.3401C95.67 29.3401 95.67 29.4301 95.76 29.4301L95.85 29.5201H100.89C103.86 29.5201 105.48 28.1701 105.48 25.7401C105.39 23.3101 103.77 22.1401 100.8 22.1401ZM101.43 26.6401C101.16 26.8201 100.8 26.9101 100.53 26.9101H99.18V24.8401H100.53C100.8 24.8401 101.16 24.9301 101.43 25.0201C101.61 25.1101 101.7 25.2001 101.79 25.3801C101.88 25.5601 101.88 25.7401 101.88 25.9201C101.79 26.1901 101.7 26.4601 101.43 26.6401ZM79.29 17.8201H76.5H76.41C76.41 17.8201 76.32 17.8201 76.32 17.9101L76.23 18.0001V22.8601C73.44 23.3101 72.99 22.3201 72.99 21.5101V18.1801V18.0901C72.99 18.0901 72.99 18.0001 72.9 18.0001L72.81 17.9101H69.84C69.75 17.9101 69.66 17.9101 69.66 18.0001C69.66 18.0901 69.57 18.0901 69.57 18.1801V20.4301C69.57 21.6901 69.66 23.0401 69.66 23.4901C69.93 25.0201 71.28 25.6501 72.72 25.8301C73.89 25.9201 75.15 25.8301 76.23 25.5601V29.2501C76.23 29.2501 76.23 29.3401 76.32 29.3401L76.41 29.4301H79.47C79.47 29.4301 79.56 29.4301 79.56 29.3401L79.65 29.2501V18.1801C79.65 18.0901 79.56 18.0001 79.56 17.9101C79.47 17.9101 79.38 17.9101 79.29 17.8201C79.29 17.9101 79.29 17.8201 79.29 17.8201ZM166.77 17.8201H163.89H163.8C163.8 17.8201 163.71 17.8201 163.71 17.9101L163.62 18.0001V22.1401H160.2V18.0901V18.0001C160.2 18.0001 160.2 17.9101 160.11 17.9101L160.02 17.8201H157.05H156.96C156.96 17.8201 156.87 17.8201 156.87 17.9101L156.78 18.0001V29.1601C156.78 29.1601 156.78 29.2501 156.87 29.2501L156.96 29.3401H160.02C160.02 29.3401 160.11 29.3401 160.11 29.2501L160.2 29.1601V24.8401H163.62V29.1601C163.62 29.1601 163.62 29.2501 163.71 29.2501L163.8 29.3401H166.86C166.86 29.3401 166.95 29.3401 166.95 29.2501L167.04 29.1601V18.1801V18.0901C167.04 18.0901 167.04 18.0001 166.95 18.0001L166.86 17.9101C166.86 17.9101 166.77 17.9101 166.77 17.8201ZM138.42 22.3201H135.9V20.6101H141.3C141.3 20.6101 141.39 20.6101 141.39 20.5201L141.48 20.4301V18.3601V18.2701C141.48 18.2701 141.48 18.1801 141.39 18.1801L141.3 18.0901H132.66H132.57C132.57 18.0901 132.48 18.0901 132.48 18.1801L132.39 18.2701V29.4301C132.39 29.4301 132.39 29.5201 132.48 29.5201L132.57 29.6101H138.33C142.02 29.6101 142.29 26.9101 142.29 26.0101C142.29 25.1101 142.11 22.3201 138.42 22.3201ZM137.25 26.8201H135.9V24.8401H137.25C138.24 24.8401 138.69 25.2001 138.78 25.8301C138.78 26.4601 138.24 26.8201 137.25 26.8201ZM176.4 23.6701L179.91 18.3601C179.91 18.2701 180 18.2701 180 18.1801V18.0901C180 18.0901 180 18.0001 179.91 18.0001L179.82 17.9101H176.49C176.4 17.9101 176.4 18.0001 176.4 18.0901L173.43 22.9501V18.1801V18.0901C173.43 18.0901 173.43 18.0001 173.34 18.0001L173.25 17.9101H170.28H170.19C170.19 17.9101 170.1 17.9101 170.1 18.0001L170.01 18.0901V29.1601C170.01 29.1601 170.01 29.2501 170.1 29.2501L170.19 29.3401H173.25C173.25 29.3401 173.34 29.3401 173.34 29.2501L173.43 29.1601V24.3001L176.4 29.2501C176.4 29.3401 176.49 29.3401 176.49 29.3401C176.58 29.3401 176.58 29.4301 176.67 29.4301H179.82C179.82 29.4301 179.91 29.4301 179.91 29.3401L180 29.2501V29.1601C180 29.0701 180 28.9801 179.91 28.9801L176.4 23.6701ZM155.07 29.0701L150.93 18.1801C150.93 18.0901 150.84 18.0901 150.84 18.0001C150.75 18.0001 150.75 17.9101 150.66 17.9101H147.6C147.51 17.9101 147.42 17.9101 147.42 18.0001C147.33 18.0001 147.33 18.0901 147.33 18.1801L143.1 29.0701V29.3401C143.1 29.3401 143.1 29.4301 143.19 29.4301L143.28 29.5201H146.34C146.43 29.5201 146.52 29.5201 146.52 29.4301C146.61 29.4301 146.61 29.3401 146.61 29.2501L147.06 27.5401H150.75L151.29 29.2501C151.29 29.3401 151.38 29.3401 151.38 29.4301C151.47 29.4301 151.47 29.5201 151.56 29.5201H154.71C154.71 29.5201 154.8 29.5201 154.8 29.4301L154.89 29.3401V29.2501L155.07 29.0701ZM148.05 24.9301L149.04 21.4201L150.12 24.9301H148.05Z" fill="#1B58A9"/>
</g>
<defs>
<clipPath id="clip0_121_1851">
<rect width="180" height="45" fill="white"/>
</clipPath>
</defs>
</svg>
