<svg width="180" height="45" viewBox="0 0 180 45" fill="none" xmlns="http://www.w3.org/2000/svg">
<g opacity="0.8">
<path d="M71.1 8.757H49.635L51.192 4.5H72.63L71.1 8.757ZM70.335 10.872H48.87L47.322 15.12H68.76L70.335 10.872ZM68.013 17.217H46.557L45 21.465H66.42L68.013 17.217Z" fill="#009FDF"/>
<path d="M122.157 32.0851H126C126.549 32.1542 127.107 32.0851 127.623 31.8839C128.138 31.6827 128.595 31.3559 128.952 30.9331C129.488 30.2409 129.754 29.377 129.699 28.5031C129.731 27.9466 129.627 27.3906 129.395 26.8838C129.163 26.377 128.81 25.9349 128.367 25.5961C127.648 25.1276 126.793 24.9123 125.937 24.9841H122.112V32.0761L122.157 32.0851ZM117.09 36.3601V10.8721H133.677L132.21 15.1471H122.157V20.7901H126.252C129.564 20.7901 131.274 21.5821 132.462 22.5901C133.311 23.3452 133.978 24.2819 134.414 25.3306C134.851 26.3794 135.045 27.513 134.982 28.6471C135.044 29.8634 134.803 31.0759 134.279 32.1757C133.756 33.2754 132.968 34.2278 131.985 34.9471C130.383 36.0541 128.718 36.3691 125.325 36.3691L117.09 36.3601ZM102.393 36.3601V15.1471H95.013V10.8721H115.488L114.021 15.1471H107.496V36.3871H102.384L102.393 36.3601ZM81.963 21.0601H84.87C85.4734 21.1104 86.081 21.0649 86.67 20.9251C87.2734 20.7302 87.7931 20.3369 88.1444 19.809C88.4958 19.2812 88.6581 18.65 88.605 18.0181C88.6877 17.3903 88.5361 16.754 88.1791 16.231C87.8221 15.708 87.2848 15.3349 86.67 15.1831C86.0366 15.0331 85.3853 14.9725 84.735 15.0031H82.035V21.0601H81.963ZM81.963 25.4701V32.1571H85.5C86.4624 32.2622 87.4286 31.9949 88.2 31.4101C88.5625 31.082 88.848 30.6779 89.0362 30.2268C89.2245 29.7756 89.3108 29.2884 89.289 28.8001C89.3079 28.0171 89.071 27.2492 88.614 26.6131C87.867 25.6411 86.922 25.4611 85.347 25.4611H81.972L81.963 25.4701ZM90.135 22.7701V22.8601C91.0035 23.2125 91.8108 23.6984 92.529 24.3001C93.258 24.9032 93.8331 25.6702 94.2084 26.5383C94.5837 27.4064 94.7484 28.3512 94.689 29.2951C94.689 32.7871 92.844 35.3071 89.802 36.0451C88.5871 36.3453 87.335 36.4666 86.085 36.4051H76.905V10.8721H85.077C86.3772 10.8233 87.6782 10.9443 88.947 11.2321C91.899 12.0241 93.834 14.0671 93.834 17.2891C93.8592 18.0529 93.7278 18.8139 93.4497 19.5257C93.1707 20.2374 92.7504 20.885 92.214 21.4291C91.6425 22.0094 90.9603 22.4686 90.207 22.7791H90.135V22.7701Z" fill="#0A2973"/>
</g>
</svg>
