<svg width="180" height="45" viewBox="0 0 180 45" fill="none" xmlns="http://www.w3.org/2000/svg">
<g opacity="0.8">
<path d="M157.86 16.2L154.62 24.12C154.62 24.21 154.53 24.3 154.53 24.48L154.44 24.66L154.35 24.48C154.35 24.39 154.26 24.3 154.26 24.12L151.02 16.2H146.7L152.37 29.88L150.03 35.1H154.35L162 16.2H157.86ZM126.27 17.01C125.46 16.47 124.56 16.11 123.48 16.02C121.59 15.84 119.79 16.47 118.62 17.82V16.2H114.75V29.88H118.62V22.68C118.62 21.06 118.98 20.7 119.16 20.25C119.61 19.44 120.51 19.08 121.5 19.17C122.49 19.17 123.57 19.62 124.02 20.34C124.38 20.88 124.38 21.51 124.38 21.96V29.79H128.25V21.6C128.16 19.44 127.53 18 126.27 17.01ZM107.46 16.29C105.57 15.66 103.5 15.75 101.61 16.65C100.26 17.19 99.2699 18.18 98.4599 19.44C97.7399 20.52 97.4699 21.78 97.4699 23.22C97.4699 24.66 97.8299 25.83 98.4599 27C99.1799 28.08 100.08 28.89 101.16 29.52C102.33 30.06 103.68 30.42 104.85 30.42C105.57 30.42 106.2 30.33 106.92 30.24C107.46 30.15 108.09 29.88 108.63 29.61C109.8 28.98 110.7 28.17 111.33 27.18C112.05 26.1 112.32 24.84 112.32 23.4C112.23 19.98 110.43 17.46 107.46 16.29ZM108.45 23.13C108.45 24.3 108 25.29 107.19 26.01C106.65 26.55 105.84 26.82 104.67 26.82C103.68 26.82 102.87 26.46 102.15 26.01C101.34 25.38 100.98 24.39 100.89 23.13C100.89 21.78 101.34 20.61 102.33 19.8C102.87 19.35 103.59 19.17 104.49 19.17C105.39 19.17 106.11 19.35 106.65 19.8C108 20.61 108.63 21.87 108.45 23.13ZM93.0599 17.01C92.3399 16.47 91.3499 16.11 90.2699 16.02H89.5499C87.9299 16.02 86.7599 16.65 85.5899 18L85.3199 18.18H84.8699C84.5099 17.73 84.1499 17.28 83.6999 17.1C82.9799 16.47 82.0799 16.11 80.9999 16.02C79.1999 15.84 77.7599 16.38 76.4999 17.64V16.2H72.6299V29.88H76.4999V22.59C76.4999 21.06 76.7699 20.7 76.9499 20.25C77.3999 19.44 78.2999 19.08 79.1999 19.08C80.0999 19.08 80.9999 19.53 81.4499 20.25C81.8099 20.79 81.8099 21.42 81.8099 22.14V29.7H85.7699V22.5C85.7699 21.15 86.0399 20.61 86.2199 20.16C86.6699 19.35 87.5699 19.08 88.4699 19.08C89.3699 19.08 90.1799 19.62 90.6299 20.25C90.8999 20.7 90.9899 21.24 90.9899 21.69V29.79H94.8599V21.6C94.8599 20.79 94.7699 20.16 94.5899 19.53C94.4099 18.45 93.8699 17.55 93.0599 17.01ZM142.74 25.74C142.2 26.28 140.85 27.27 139.05 27.36C137.61 27.36 136.35 27 135.54 26.19C135.18 25.74 134.82 25.29 134.73 24.75H145.44V24.66C145.53 24.12 145.53 23.58 145.53 23.13C145.53 22.68 145.44 22.05 145.17 21.15C144.72 19.62 143.82 18.36 142.56 17.37C141.21 16.38 139.86 16.02 139.5 16.02C136.71 15.57 133.56 16.83 131.94 19.35C130.77 21.15 130.77 22.86 130.95 23.4C130.95 24.03 131.04 26.19 132.75 27.9C134.64 29.97 137.52 30.06 138.42 30.24C142.29 30.33 144.81 28.08 145.44 27.45L142.74 25.74ZM136.08 19.98C136.62 19.53 137.34 19.35 138.24 19.35C139.14 19.35 139.86 19.53 140.4 19.98C140.94 20.43 141.39 20.97 141.66 21.78H134.82C135.09 20.97 135.54 20.43 136.08 19.98Z" fill="black"/>
<path d="M46.17 7.29004C37.53 7.29004 30.6 14.13 30.6 22.5C30.6 30.87 37.62 37.71 46.17 37.71C54.72 37.71 61.74 30.87 61.74 22.5C61.83 14.13 54.72 7.29004 46.17 7.29004ZM46.17 28.08C43.02 28.08 40.32 25.56 40.32 22.5C40.32 19.44 42.93 16.92 46.17 16.92C49.41 16.92 52.02 19.44 52.02 22.5C51.93 25.56 49.41 28.08 46.17 28.08ZM30.6 11.79V33.93H25.11L18 11.79H30.6Z" fill="#8B3FFD"/>
</g>
</svg>
