<svg width="180" height="45" viewBox="0 0 180 45" fill="none" xmlns="http://www.w3.org/2000/svg">
<g opacity="0.8">
<path d="M22.4662 5.61531C22.4662 6.60892 22.5472 6.83197 22.9731 7.17669C23.3787 7.48085 23.48 7.74446 23.48 8.45418C23.48 9.16388 23.4192 9.32615 23.1759 9.24497C22.9325 9.14363 22.8717 9.32615 22.8717 10.2386C22.8717 11.3336 22.8919 11.3539 23.9667 12.2866C24.575 12.7936 25.1631 13.2195 25.2848 13.2195C25.5686 13.2195 25.5889 11.07 25.305 10.8875C25.0414 10.7253 25.0414 9.16388 25.2848 9.16388C25.4065 9.16388 25.5484 9.26531 25.6092 9.36665C25.8728 9.81278 26.1161 9.30581 26.1161 8.29196L26.0959 7.23752L24.5953 5.96003C22.527 4.21615 22.4662 4.19587 22.4662 5.61531ZM28.9755 5.93971L27.333 7.35915V10.4819C27.333 12.2055 27.4141 13.6453 27.4952 13.7061C27.5966 13.7668 28.4077 13.1991 29.3202 12.4488L30.9829 11.0902V10.0156C30.9829 9.22472 30.9019 8.96108 30.6991 8.96108C30.5368 8.96108 30.3544 9.0422 30.2732 9.16388C30.2125 9.26522 29.888 9.54917 29.5636 9.77219L28.9552 10.198V9.32606C28.9755 8.53525 29.0566 8.39331 29.9691 7.66331C30.9829 6.87248 30.9829 6.8522 30.9829 5.6761C30.9829 5.02722 30.9019 4.5 30.8004 4.5C30.7193 4.5 29.888 5.14888 28.9755 5.93971ZM18.1471 9.71126C17.8834 9.95462 18.0051 15.3283 18.2687 15.7743C18.4107 16.0177 19.9517 17.4168 21.7159 18.8768C23.4598 20.3571 24.8995 21.6346 24.8995 21.6954C24.8995 21.8576 23.5612 22.9526 23.3787 22.9526C23.3178 22.9526 22.2229 22.0807 20.9453 21.006C19.4651 19.769 18.4918 19.0999 18.3092 19.181C18.066 19.2621 18.0051 19.7488 18.0051 21.6751V24.0476L18.9987 24.9804L19.9721 25.9334L19.0392 26.7446L18.1065 27.5557L18.0456 30.719C17.9848 32.767 18.0456 34.0039 18.1876 34.2878C18.5323 34.9164 25.3659 40.6145 25.7107 40.5333C26.1364 40.4724 26.2581 35.1597 25.8728 34.4298C25.7309 34.1661 24.1695 32.7467 22.4257 31.2664C20.6615 29.7862 19.2217 28.5087 19.2217 28.4276C19.2217 28.3465 19.6273 27.9409 20.1343 27.5151L21.0468 26.7648L23.1961 28.5695C24.3723 29.5429 25.4875 30.3539 25.6701 30.3539C25.9743 30.3539 26.0148 30.0701 26.0148 27.8598V25.3453L25.2239 24.6357L24.4331 23.9057L25.082 23.3785C25.4267 23.0945 25.812 22.5268 25.9134 22.1415C26.2175 21.1073 26.1567 16.4638 25.8526 15.8555C25.589 15.3283 18.8568 9.56933 18.4918 9.56933C18.3701 9.56933 18.2079 9.63017 18.1471 9.71126ZM31.2263 12.53C29.2999 14.1521 27.6372 15.7135 27.5155 15.9974C27.4141 16.261 27.333 17.6805 27.333 19.1405C27.333 21.5941 27.3532 21.7766 27.7385 21.8779C28.0832 21.9793 28.1441 22.1619 28.1441 23.2366C28.1441 24.0882 28.0224 24.7371 27.7385 25.2846C27.4141 25.9132 27.333 26.481 27.333 27.9409C27.333 29.989 27.4343 30.4554 27.8602 30.4554C28.3266 30.4554 28.2658 33.6389 27.7994 34.1661C27.4952 34.4703 27.4141 35.0178 27.3736 37.0862C27.2924 39.9251 27.3938 40.6551 27.8602 40.5536C28.3672 40.4523 34.9573 34.8759 35.221 34.3487C35.363 34.0445 35.4441 31.9153 35.4441 28.2248C35.4441 23.0743 35.4035 22.5471 35.0994 22.5471C34.7952 22.5471 34.7952 22.5268 35.0994 22.1821C35.4035 21.8577 35.4441 21.0871 35.4441 15.6933C35.4441 9.99521 35.4238 9.56942 35.0994 9.56942C34.8966 9.56942 33.1527 10.9077 31.2263 12.53ZM34.1463 17.9441C34.3896 18.9985 33.9637 19.7488 32.1793 21.2899C31.2466 22.101 30.2327 22.9526 29.9285 23.1757L29.3608 23.5813V20.9452L31.348 19.2216C32.4227 18.2686 33.4771 17.498 33.6596 17.498C33.8624 17.4777 34.0652 17.6805 34.1463 17.9441ZM34.2274 27.0082C34.2274 28.4073 33.8827 28.9345 31.7738 30.6987C30.6585 31.6112 29.6649 32.4021 29.5636 32.4426C29.4419 32.4831 29.3608 31.8342 29.3608 30.9217V29.3198L31.5102 27.5557C33.8624 25.609 34.2274 25.5482 34.2274 27.0082Z" fill="#E2251D"/>
<path d="M45.1162 13.3615C45.0554 13.4628 44.9134 13.9292 44.7715 14.4362C44.6498 14.9431 44.5079 15.5109 44.447 15.6934C44.3456 16.0381 44.6296 16.0583 48.604 16.0583C50.9561 16.0583 52.8826 16.0989 52.8826 16.1598C52.8826 16.2206 50.875 19.5664 48.4214 23.5813L43.9603 30.8813V33.4972H56.2487L56.6136 32.3211C56.8164 31.6924 57.0395 31.0435 57.08 30.9016C57.1611 30.7191 56.2081 30.6583 52.6798 30.6583C49.1514 30.6583 48.1984 30.5975 48.2795 30.3947C48.3201 30.273 50.3073 26.9678 52.6595 23.0745L56.9381 15.9772V13.2195H51.0778C47.8334 13.2195 45.1568 13.2803 45.1162 13.3615ZM59.2497 13.5845C57.5464 14.9431 58.398 17.4576 60.5474 17.4778C61.825 17.4778 62.6158 16.6667 62.6158 15.3487C62.6158 14.0306 61.825 13.2195 60.5474 13.2195C60.0202 13.2195 59.493 13.3615 59.2497 13.5845ZM110.512 23.2772L110.572 33.3957L114.668 33.3552C119.21 33.3349 120.346 33.1321 121.766 32.098C123.652 30.7394 124.28 27.5963 123.144 25.2644C122.576 24.1086 121.725 23.3787 120.448 22.9325L119.778 22.7094L120.65 22.1417C122.232 21.1481 122.84 20.0328 122.84 18.2484C122.82 16.3017 121.705 14.6998 119.697 13.7873C118.765 13.3817 118.318 13.3209 114.567 13.26L110.471 13.179L110.512 23.2772ZM118.399 15.7745C119.495 16.4234 120.002 17.3359 120.002 18.6742C120.002 20.0328 119.515 20.9453 118.542 21.4522C118.035 21.7158 117.304 21.797 115.439 21.8172L113.006 21.8375L112.945 18.7959C112.925 17.1331 112.945 15.6325 113.006 15.4906C113.188 15.004 117.487 15.2472 118.399 15.7745ZM119.333 24.433C120.427 25.0211 120.893 25.9133 120.975 27.5152C121.056 29.32 120.65 30.1716 119.393 30.8002C118.582 31.226 118.197 31.2666 115.703 31.2666H112.904V23.9261L115.804 24.0072C118.035 24.0681 118.825 24.1491 119.333 24.433ZM151.331 13.3614C151.107 13.402 150.722 13.4831 150.479 13.5439L150.013 13.625V33.5173L151.188 33.4565L152.345 33.3957L152.446 29.401L152.547 25.4266L155.792 29.401L159.036 33.3957L160.435 33.4565C161.206 33.4971 161.896 33.4362 161.996 33.3552C162.077 33.2741 160.638 31.449 158.813 29.3402C156.968 27.211 155.426 25.3658 155.366 25.2441C155.305 25.1022 156.461 23.6422 157.962 21.9997C161.692 17.8428 161.49 18.2889 159.705 18.2889H158.205L155.386 21.5333L152.547 24.798L152.486 18.9985C152.426 12.6922 152.527 13.0978 151.331 13.3614ZM100.84 14.3753C100.616 14.4158 99.9468 14.5578 99.3789 14.6592L98.3043 14.862V18.2889H96.6618L96.723 19.4448L96.7842 20.6208L97.5339 20.6816L98.2845 20.7425L98.3448 26.0553C98.406 30.9827 98.4267 31.4288 98.8317 32.0777C99.7236 33.6188 101.549 34.1866 103.8 33.6188C104.51 33.4363 105.098 33.2538 105.138 33.2132C105.179 33.1727 105.118 32.686 104.996 32.1183C104.774 31.1043 104.774 31.1043 104.165 31.3071C103.374 31.5707 102.218 31.3477 101.955 30.8611C101.833 30.638 101.752 28.5088 101.752 25.6091V20.7222H104.206L104.712 19.6069C104.976 18.9784 105.199 18.4308 105.199 18.3903C105.199 18.3295 104.429 18.2889 103.476 18.2889H101.752V16.2611C101.752 14.1522 101.752 14.1726 100.84 14.3753ZM60.5881 18.512C60.0812 18.6133 59.4728 18.7553 59.2295 18.8161L58.7632 18.8972V33.4972H62.2103V25.893C62.2103 17.3359 62.3928 18.147 60.5881 18.512ZM65.9618 18.5727L64.7452 18.7958L64.6844 26.1566L64.6438 33.5173L66.3065 33.4565L67.9896 33.3957L68.0909 28.2857L68.1924 23.1758L68.7804 22.5674C69.4698 21.8577 70.5446 21.5738 71.3759 21.8982C72.0046 22.1214 72.0046 22.1619 72.329 20.2355C72.5723 18.8566 72.471 18.6944 71.3759 18.6944C70.4432 18.6944 69.4902 19.1405 68.5168 20.0125L67.6854 20.7627V19.5258C67.6854 18.6538 67.6043 18.2889 67.4421 18.3091C67.3001 18.3294 66.631 18.4308 65.9618 18.5727ZM75.5529 18.6538C74.8027 18.8567 74.1335 19.0797 74.0727 19.1406C73.951 19.2419 73.363 22.2024 73.4238 22.2835C73.4441 22.3039 74.1335 21.9794 74.9649 21.5739C76.1612 20.9858 76.6885 20.8439 77.6618 20.8236C79.2435 20.8236 79.649 21.2494 79.649 22.9528V24.1086L77.9863 24.2708C75.5123 24.4736 73.8902 25.0413 72.8763 26.0553C70.5038 28.448 71.3758 32.686 74.458 33.5985C76.1208 34.1055 77.4388 33.9838 79.3043 33.193C79.5679 33.0915 79.649 33.1524 79.649 33.4768C79.649 33.9026 79.7301 33.923 81.3321 33.8621L82.9949 33.8013V27.5152C82.9949 21.5333 82.9746 21.1886 82.569 20.418C82.3054 19.9314 81.7781 19.3839 81.2104 19.0189C79.9735 18.2483 77.601 18.1064 75.5529 18.6538ZM79.649 28.2857C79.649 29.8674 79.6085 30.0093 79.1015 30.496C77.378 32.1385 75.188 31.4694 75.188 29.2997C75.188 28.5899 75.6138 27.2313 75.8571 27.211C75.8774 27.211 76.2627 27.0691 76.7088 26.9068C77.1549 26.7447 78.0065 26.623 78.5946 26.6027H79.649V28.2857ZM88.4092 18.6133C86.787 19.0392 86.6247 19.1811 86.4828 20.1545C86.422 20.6411 86.3004 21.4117 86.2192 21.8577L86.0975 22.7094L87.6589 21.9186C88.9364 21.2698 89.4434 21.1278 90.396 21.1278C91.431 21.1278 91.6335 21.1886 91.998 21.655C92.3022 22.02 92.4246 22.4864 92.4246 23.1353V24.0883L90.2952 24.3317C87.7806 24.6155 86.422 25.1427 85.4487 26.1972C84.5564 27.1908 84.2523 28.1641 84.3537 29.8471C84.4956 32.3008 85.9151 33.6391 88.6728 33.8419C89.8489 33.9432 90.5382 33.8216 92.0799 33.193C92.3427 33.0916 92.4246 33.1524 92.4246 33.4768C92.4246 33.8825 92.5254 33.9027 94.0464 33.9027H95.6682V27.6369C95.6682 23.703 95.5872 21.1481 95.4459 20.7831C94.6746 18.6945 91.593 17.7414 88.4092 18.6133ZM92.4246 28.2047C92.4246 30.0702 92.1204 30.6177 90.7821 31.1449C89.1392 31.8141 87.9225 31.003 87.9225 29.2794C87.9225 28.7319 88.024 28.083 88.1659 27.8397C88.5106 27.1503 89.9097 26.6027 91.2681 26.6027H92.4246V28.2047ZM129.188 18.5119C128.701 18.593 127.931 18.8566 127.444 19.0594C126.612 19.4244 126.552 19.5055 126.348 20.641C126.227 21.2899 126.146 21.8577 126.186 21.8982C126.207 21.9185 126.734 21.6752 127.363 21.3508C127.991 21.0263 128.984 20.641 129.593 20.5194C131.925 19.9921 133.182 20.8438 133.182 22.9527V24.1288L131.418 24.2707C127.91 24.5546 125.842 25.5888 124.95 27.4746C123.773 30.0093 124.807 32.6454 127.282 33.4767C128.903 34.0243 131.479 33.5579 132.614 32.544C132.959 32.2399 132.98 32.2601 132.98 32.9495V33.6999H135.413V27.2921C135.413 22.9729 135.332 20.7627 135.19 20.4585C134.257 18.6741 132.026 17.9441 129.188 18.5119ZM132.98 27.9815C132.98 29.9687 132.979 29.9687 132.331 30.6176C130.486 32.3818 127.849 32.2195 127.322 30.3135C127.038 29.2793 127.038 28.9751 127.424 28.0221C127.991 26.623 129.208 26.0349 131.62 26.0146L132.98 25.9943V27.9815ZM138.19 18.5322L137.237 18.735L137.279 26.0755L137.339 33.3957H139.569L139.631 27.9005L139.671 22.385L140.746 21.655C142.55 20.4181 144.315 20.2153 145.105 21.1481C145.409 21.4928 145.471 22.2634 145.552 27.4747L145.653 33.3957H148.086V21.2292L147.579 20.3573C146.302 18.1267 143.585 17.782 140.909 19.5056L139.671 20.3167V19.3028C139.671 18.1875 139.732 18.228 138.19 18.5322Z" fill="#1D1D1B"/>
</g>
</svg>
